<svg width="172" height="76" viewBox="0 0 172 76" fill="none" xmlns="http://www.w3.org/2000/svg">
<path fill-rule="evenodd" clip-rule="evenodd" d="M42.2426 10.2426C44.5858 7.8995 44.5858 4.1005 42.2426 1.75736C39.8995 -0.585786 36.1005 -0.585786 33.7574 1.75736L1.75736 33.7574C0.585786 34.9289 0 36.4645 0 38C0 38.8136 0.161932 39.5894 0.455324 40.2968C0.748122 41.0045 1.18213 41.6674 1.75736 42.2426L33.7574 74.2426C36.1005 76.5858 39.8995 76.5858 42.2426 74.2426C44.5858 71.8995 44.5858 68.1005 42.2426 65.7574L20.4853 44H166C169.314 44 172 41.3137 172 38C172 34.6863 169.314 32 166 32H20.4853L42.2426 10.2426Z" fill="#1075BB"/>
</svg>
