<svg width="172" height="76" viewBox="0 0 172 76" fill="none" xmlns="http://www.w3.org/2000/svg">
<path fill-rule="evenodd" clip-rule="evenodd" d="M138.243 1.75736C135.899 -0.585786 132.101 -0.585786 129.757 1.75736C127.414 4.1005 127.414 7.8995 129.757 10.2426L151.515 32H6C2.68629 32 0 34.6863 0 38C0 41.3137 2.68629 44 6 44H151.515L129.757 65.7574C127.414 68.1005 127.414 71.8995 129.757 74.2426C132.101 76.5858 135.899 76.5858 138.243 74.2426L170.243 42.2426C171.387 41.0985 171.972 39.6073 171.999 38.108C172 38.072 172 38.036 172 38C172 37.1871 171.838 36.4119 171.545 35.7049C171.253 34.9966 170.818 34.3331 170.243 33.7574L138.243 1.75736Z" fill="#1075BB"/>
</svg>
