<svg width="72" height="72" viewBox="0 0 72 72" fill="none" xmlns="http://www.w3.org/2000/svg">
<g clip-path="url(#clip0_14356_5789)">
<path fill-rule="evenodd" clip-rule="evenodd" d="M50.4904 36.9544C47.2404 40.5934 42.5373 45.1749 38.9551 47.657C35.8243 49.8268 32.7036 51.3845 29.7721 52.05C27.1988 52.6334 24.9801 52.5075 23.2288 51.8341C22.1687 51.4364 21.2253 50.781 20.4843 49.9276C19.7414 49.0469 19.2253 47.9991 18.9807 46.8749C18.5257 44.8849 18.7329 42.4819 19.7534 39.8473C21.044 36.5155 23.5747 32.9607 27.0428 29.2346C30.6994 25.3042 34.9013 22.4091 40.1792 18.2867L35.9181 11.1641C30.2978 15.5527 25.3694 19.863 21.4608 24.0632C17.3629 28.467 14.3108 32.8211 12.6497 37.1141C11.0565 41.2258 10.7719 45.1468 11.549 48.5412C12.1008 50.9542 13.1762 53.0961 14.6936 54.8638C16.2539 56.6733 18.2442 58.0648 20.4829 58.9114C23.6036 60.1107 27.3353 60.3856 31.4418 59.4539C35.414 58.551 39.4354 56.5883 43.3122 53.9018C47.3986 51.0694 51.0198 48.1721 54.6511 44.1043L50.4904 36.9544Z" fill="url(#paint0_linear_14356_5789)"/>
<path fill-rule="evenodd" clip-rule="evenodd" d="M49.6445 37.8866C49.8904 37.5443 50.1741 37.2306 50.4902 36.9513C50.2182 37.2559 49.9363 37.5677 49.6445 37.8866ZM50.4902 36.9513L54.6546 44.0998L60.8194 44.1718L57.1007 36.7168L50.4902 36.9513Z" fill="url(#paint1_linear_14356_5789)"/>
<path fill-rule="evenodd" clip-rule="evenodd" d="M49.9626 37.3716C49.826 37.5208 49.6989 37.6785 49.582 37.8435L49.7012 37.9378C49.8485 37.7771 49.993 37.6193 50.1345 37.4644C50.2588 37.327 50.375 37.1989 50.4783 37.0831L54.5892 44.1409L54.6108 44.1776H54.6542L60.8198 44.2496H60.944L60.8891 44.1388L57.1697 36.6838L57.148 36.6392H57.0989L50.4891 36.8759L50.3613 36.8802L50.3953 36.937C50.2378 37.0809 50.0934 37.2248 49.9619 37.3687L49.9626 37.3716ZM50.6206 37.0255L57.0541 36.7953L60.6963 44.0963L54.7018 44.0244L50.6206 37.0255Z" fill="url(#paint2_linear_14356_5789)"/>
<path fill-rule="evenodd" clip-rule="evenodd" d="M36.2491 11.1697L44.8435 11.3704C44.8435 11.3704 46.2424 13.677 49.0418 18.2887C49.0735 18.3412 49.1537 18.4743 48.9789 18.4707L40.1787 18.2865L35.9977 11.297C35.8742 11.092 35.9277 11.1639 36.2491 11.1697Z" fill="url(#paint3_linear_14356_5789)"/>
<path fill-rule="evenodd" clip-rule="evenodd" d="M36.2465 11.3217L44.7593 11.5239L48.8831 18.3198L40.2663 18.1393L36.1894 11.3224H36.245L36.2465 11.3217ZM44.8503 11.2195L36.2559 11.0188C36.1779 11.0188 36.1114 11.0102 36.0681 11.0059C36.002 10.9899 35.9324 10.997 35.8709 11.026C35.7265 11.1109 35.7619 11.19 35.8709 11.3742L40.0511 18.3637L40.0945 18.4357H40.1789L48.9821 18.6206C49.1807 18.6249 49.2443 18.5292 49.2464 18.4098C49.243 18.3378 49.2192 18.2682 49.1778 18.2091L44.9803 11.2908L44.9369 11.2188L44.8503 11.2195Z" fill="url(#paint4_linear_14356_5789)"/>
<path fill-rule="evenodd" clip-rule="evenodd" d="M49.1571 18.4744C31.936 28.1223 22.7325 37.1459 21.5467 45.5453C21.252 47.6317 21.1307 48.7383 22.695 50.2326C25.3292 52.7478 29.5753 52.6144 35.4335 49.8326C33.5016 50.8729 31.6 51.6312 29.772 52.0499C27.1987 52.6334 24.9801 52.5075 23.2287 51.8341C22.1687 51.4363 21.2253 50.7809 20.4843 49.9275C19.7414 49.0469 19.2252 47.9991 18.9806 46.8749C18.5256 44.8849 18.7329 42.4819 19.7534 39.8472C21.044 36.5154 23.5746 32.9606 27.0427 29.2346C30.6993 25.3042 34.9012 22.4091 40.1792 18.2866L49.1571 18.4744Z" fill="url(#paint5_linear_14356_5789)"/>
<path fill-rule="evenodd" clip-rule="evenodd" d="M48.878 18.5442C40.3789 23.3228 33.8481 27.9494 29.2856 32.4239C24.6721 36.9479 22.0672 41.3183 21.4712 45.5353C21.3267 46.5864 21.2184 47.39 21.3491 48.1253C21.4798 48.8606 21.8475 49.5283 22.6426 50.288C23.9749 51.56 25.7133 52.1627 27.8578 52.096C29.1529 52.0552 30.5957 51.7699 32.186 51.2399C31.3934 51.5394 30.5815 51.7855 29.7558 51.9766C28.612 52.2466 27.4382 52.369 26.2631 52.3406C25.2356 52.3178 24.2193 52.1232 23.2565 51.7651C22.7277 51.5638 22.2255 51.2992 21.7608 50.9772C21.3092 50.6647 20.8995 50.296 20.5417 49.8801C20.1801 49.4577 19.8736 48.9913 19.6295 48.4923C19.3738 47.9724 19.1799 47.4245 19.0517 46.8598C18.8138 45.77 18.7601 44.6483 18.8928 43.541C19.0418 42.2846 19.3536 41.0527 19.8202 39.8761C20.4637 38.2163 21.4163 36.4997 22.6368 34.7334C23.8574 32.9671 25.3596 31.1484 27.0908 29.2871C29.9486 26.2165 33.1415 23.7761 36.9231 20.8853C37.9681 20.0867 39.0587 19.2529 40.1983 18.3636L48.8708 18.5457L48.878 18.5442ZM29.3925 32.5319C33.9887 28.0262 40.5895 23.3624 49.195 18.5406L49.1596 18.3967L40.181 18.2075L40.1326 18.2233C38.985 19.1205 37.888 19.958 36.8378 20.7616C33.0505 23.656 29.8533 26.1007 26.9868 29.1792C25.2534 31.0448 23.7483 32.8679 22.5184 34.6427C21.2885 36.4176 20.3293 38.1451 19.6822 39.8163C19.2099 41.0048 18.8943 42.2493 18.7434 43.5187C18.6081 44.6428 18.6625 45.7816 18.9044 46.8879C19.0342 47.4638 19.2308 48.0227 19.4901 48.5534C19.7399 49.064 20.0537 49.541 20.424 49.9729C20.79 50.3988 21.2092 50.7765 21.6712 51.0967C22.1467 51.4266 22.6606 51.6979 23.2016 51.9046C24.18 52.2703 25.2133 52.4688 26.258 52.4917C27.446 52.5204 28.6327 52.3966 29.789 52.1233C30.73 51.905 31.6532 51.6164 32.5507 51.26C33.5486 50.8648 34.5217 50.4102 35.4649 49.8988L35.3963 49.7628C32.4761 51.1499 29.9604 51.8766 27.8491 51.9428C25.7474 52.0085 24.0459 51.42 22.7445 50.1772C21.9753 49.4427 21.62 48.8059 21.495 48.098C21.3701 47.39 21.4719 46.5922 21.6178 45.5547C22.2114 41.3732 24.803 37.0323 29.3925 32.5319Z" fill="url(#paint6_linear_14356_5789)"/>
<path d="M26.6379 52.5571C26.5094 52.5571 26.3815 52.5571 26.2559 52.5514C25.2047 52.5278 24.1651 52.3279 23.1807 51.96C22.6361 51.7524 22.1186 51.4802 21.6394 51.1492C21.1731 50.8259 20.7501 50.4446 20.3806 50.0146C20.0086 49.5785 19.6932 49.0975 19.4417 48.5829C19.1807 48.0479 18.9825 47.4846 18.851 46.9044C18.6081 45.7914 18.5532 44.646 18.6885 43.515C18.8392 42.2407 19.1548 40.9912 19.6273 39.7976C20.26 38.1652 21.2162 36.4162 22.4707 34.6118C23.666 32.8851 25.1711 31.0462 26.9434 29.1439C29.8157 26.0582 33.0534 23.5833 36.8017 20.7177L36.8545 20.6774C37.8937 19.886 38.9684 19.0622 40.0965 18.1801L40.1146 18.1708L40.1832 18.1514L49.2066 18.3413L49.2644 18.5715L49.2254 18.5938C40.6656 23.3897 34.0067 28.0906 29.4365 32.5757C24.8779 37.045 22.2699 41.4157 21.6835 45.5648C21.5261 46.6821 21.4394 47.4094 21.56 48.09C21.6886 48.8145 22.0656 49.4455 22.7921 50.1362C24.0112 51.3003 25.6088 51.8909 27.5429 51.8909C27.6447 51.8909 27.7487 51.8909 27.8534 51.8852C29.9479 51.8197 32.4756 51.088 35.3775 49.711L35.4295 49.6865L35.5508 49.9254L35.4858 49.9592C34.544 50.4704 33.5721 50.9244 32.5753 51.319C31.6745 51.6752 30.7482 51.9638 29.8041 52.1823C28.766 52.424 27.704 52.5497 26.6379 52.5571ZM40.1615 18.2787C39.0348 19.1586 37.9638 19.9773 36.9267 20.7702L36.8747 20.8105C33.1292 23.6725 29.8951 26.1445 27.0294 29.2223C25.2607 31.1231 23.7592 32.9592 22.5668 34.6794C21.3188 36.478 20.3662 38.2162 19.7371 39.8408C19.2675 41.0245 18.9538 42.2639 18.804 43.528C18.6696 44.6456 18.7235 45.7778 18.9636 46.8778C19.0927 47.4499 19.2881 48.0052 19.5457 48.5325C19.7933 49.0386 20.1041 49.5114 20.4709 49.9398C20.8334 50.3618 21.2487 50.7359 21.7066 51.0528C22.1781 51.3785 22.6874 51.6464 23.2233 51.8506C24.1944 52.213 25.2198 52.4103 26.2566 52.4341C27.4395 52.4625 28.6211 52.3392 29.7724 52.0672C30.7105 51.85 31.6311 51.5631 32.5262 51.2089C33.5052 50.8209 34.4605 50.3757 35.3869 49.8757L35.371 49.8434C32.4821 51.2103 29.95 51.9377 27.852 52.0017C27.7465 52.0053 27.6411 52.0068 27.5378 52.0068C25.5727 52.0068 23.9462 51.4053 22.704 50.2189C21.9616 49.5095 21.5708 48.8584 21.4372 48.1073C21.3137 47.4094 21.4011 46.6742 21.5607 45.5461C22.1501 41.3732 24.7703 36.9759 29.3477 32.4879C33.9251 28 40.576 23.3041 49.1293 18.5111L49.1149 18.4571L40.1933 18.2694L40.1615 18.2787ZM26.6423 52.4053C26.5137 52.4053 26.3866 52.4053 26.2609 52.3996C25.2267 52.3759 24.2039 52.1796 23.2348 51.819C22.7018 51.6167 22.1952 51.3509 21.7261 51.0276C21.2716 50.7116 20.859 50.3396 20.4983 49.9203C20.1341 49.4933 19.8248 49.0228 19.5775 48.5196C19.322 47.9953 19.1281 47.4434 18.9997 46.8749C18.7605 45.7785 18.7065 44.65 18.8401 43.5359C18.9903 42.2745 19.3032 41.0376 19.7711 39.8559C20.3994 38.2357 21.3498 36.5011 22.5978 34.701C23.7866 32.9858 25.2867 31.1512 27.0575 29.2482C29.9197 26.1726 33.1531 23.7012 36.8971 20.8392L36.9158 20.8256C37.9602 20.027 39.0392 19.2025 40.1716 18.3183L40.1875 18.3053H40.2092L48.8823 18.4874L48.9105 18.5989C40.4562 23.353 33.8688 28.0194 29.3304 32.4692C24.7479 36.963 22.1241 41.3624 21.5304 45.5461C21.3708 46.6778 21.2827 47.4166 21.4076 48.1174C21.5419 48.875 21.9356 49.5325 22.6838 50.247C23.9989 51.5024 25.7417 52.1125 27.8563 52.0384C29.139 51.9981 30.5899 51.7111 32.168 51.1859L32.2077 51.2981C31.4121 51.5982 30.5973 51.845 29.7688 52.037C28.7435 52.275 27.6949 52.3985 26.6423 52.4053ZM40.225 18.4219C39.0991 19.3011 38.0244 20.1227 36.9859 20.9162L36.9671 20.9306C33.2275 23.789 29.9977 26.2546 27.1449 29.3259C25.3784 31.2246 23.8812 33.0549 22.6961 34.7657C21.4538 36.5579 20.507 38.2846 19.8794 39.8962C19.4155 41.068 19.105 42.2944 18.9557 43.5452C18.8235 44.6461 18.8767 45.7612 19.1131 46.8447C19.2397 47.4046 19.4309 47.948 19.683 48.4642C19.9251 48.9587 20.2289 49.4209 20.5872 49.8398C20.9418 50.2517 21.3475 50.617 21.7947 50.9269C22.2558 51.2459 22.7539 51.5083 23.2782 51.7082C24.2342 52.0656 25.2437 52.2602 26.2645 52.2837C27.2415 52.31 28.2184 52.2282 29.1773 52.0399C28.7407 52.1036 28.3009 52.1432 27.8599 52.1586C25.7113 52.224 23.9397 51.6118 22.6014 50.334C21.8337 49.6009 21.4293 48.9232 21.2906 48.139C21.1628 47.4195 21.2509 46.6727 21.4127 45.5302C22.0071 41.32 24.6417 36.8968 29.2437 32.3851C33.7561 27.9619 40.2872 23.325 48.6591 18.6025L40.225 18.4219Z" fill="#C5DEF8"/>
<path fill-rule="evenodd" clip-rule="evenodd" d="M31.4425 59.4524C35.4147 58.5494 39.436 56.5868 43.3129 53.9003C47.3992 51.0678 51.0204 48.1706 54.6518 44.1028L60.8166 44.1747C43.0471 61.9971 28.5519 66.355 17.3311 57.2487C18.3098 57.9275 19.3674 58.486 20.4807 58.912C23.6043 60.1092 27.336 60.3841 31.4425 59.4524Z" fill="url(#paint7_linear_14356_5789)"/>
<path fill-rule="evenodd" clip-rule="evenodd" d="M31.4594 59.5266C33.4094 59.0841 35.3645 58.3877 37.3094 57.4775C39.42 56.4771 41.4421 55.3012 43.3544 53.9623C45.3983 52.5464 47.3266 51.1125 49.2044 49.5225C51.1562 47.8703 52.9902 46.0849 54.6933 44.1791L60.6436 44.2468C51.8181 53.0721 43.8051 58.568 36.6045 60.7345C29.9197 62.7447 23.9344 61.8813 18.6487 58.1445C18.7043 58.1754 18.7607 58.2049 18.8177 58.2351C19.3501 58.5164 19.899 58.7656 20.4615 58.9812C22.1417 59.6173 23.9133 59.9817 25.7091 60.0604C27.6434 60.1443 29.5801 59.9639 31.4652 59.5244L31.4594 59.5266ZM37.2459 57.3401C35.3096 58.2466 33.3632 58.9388 31.4262 59.3784C29.5541 59.815 27.6308 59.9941 25.7099 59.9108C23.9302 59.8322 22.1747 59.4703 20.5099 58.8388C19.9532 58.6247 19.4096 58.3783 18.882 58.1006C18.3622 57.8258 17.8596 57.52 17.3769 57.1847L17.2852 57.3056C22.9185 61.8756 29.3703 63.0672 36.6406 60.8806C43.9004 58.6977 51.9775 53.1464 60.8718 44.2266L60.9982 44.0993H60.8184L54.6528 44.0273H54.6174L54.5943 44.0525C52.8922 45.9627 51.0581 47.752 49.1054 49.4074C47.2385 50.9902 45.3138 52.4227 43.2699 53.8378C41.3645 55.1722 39.3493 56.3438 37.2459 57.3401Z" fill="url(#paint8_linear_14356_5789)"/>
<path fill-rule="evenodd" clip-rule="evenodd" d="M19.7631 48.9045L13.617 53.432C12.6401 51.9374 11.94 50.2804 11.55 48.5397C10.7729 45.1454 11.0574 41.2243 12.6506 37.1126C14.3118 32.8197 17.3639 28.4655 21.4617 24.0617C25.3682 19.8616 30.2988 15.5527 35.9191 11.1641L40.1802 18.2867C34.9001 22.4099 30.7004 25.3049 27.043 29.2353C23.5764 32.9614 21.0443 36.5162 19.7537 39.848C18.7332 42.4827 18.5259 44.8842 18.9809 46.8756C19.1404 47.5865 19.404 48.27 19.7631 48.9045Z" fill="white"/>
<path fill-rule="evenodd" clip-rule="evenodd" d="M17.2511 57.3531C22.8974 61.9346 29.3666 63.1291 36.6586 60.9367C43.9289 58.7519 52.0142 53.1958 60.9143 44.2683L60.9822 44.1964L60.9396 44.1108L57.2173 36.6587L57.1783 36.581H57.0923L50.4826 36.8177L50.3974 36.8529C50.2287 37.0034 50.0681 37.1626 49.9164 37.3299C49.7805 37.478 49.6541 37.6344 49.5379 37.7983C47.8407 39.6423 45.8467 41.651 43.8591 43.4676C42.1258 45.0504 40.399 46.4893 38.8758 47.544C37.3687 48.6019 35.7793 49.5385 34.1229 50.3449C32.6308 51.0586 31.1618 51.5938 29.7397 51.9161C28.6006 52.1844 27.4316 52.3053 26.2615 52.2759C25.2404 52.2524 24.2306 52.0578 23.2744 51.7003C22.7503 51.4999 22.2523 51.2376 21.791 50.919C21.3434 50.609 20.9374 50.2434 20.5827 49.8312C20.4512 49.6779 20.3256 49.516 20.2071 49.3484C20.0887 49.1808 19.9789 49.0074 19.8771 48.829C19.7024 48.5233 19.5513 48.2049 19.425 47.8764C19.2945 47.5377 19.1888 47.19 19.1086 46.8361C18.8722 45.7524 18.8192 44.637 18.9519 43.5359C19.1018 42.2877 19.4133 41.0641 19.8785 39.8955C20.5198 38.2407 21.4674 36.5277 22.6952 34.7651C23.9229 33.0024 25.4151 31.1843 27.144 29.326C29.999 26.2575 33.1898 23.8193 36.9662 20.9299C38.0026 20.1385 39.0852 19.3097 40.2249 18.4205L48.945 18.6039H49.0396L49.0735 18.5147L49.1522 18.3032L49.1754 18.2421L49.1421 18.1874L44.9627 11.3L44.9251 11.2367H44.8529L35.9241 11.0288L35.8381 11.0569C33.0215 13.2548 30.3839 15.4319 27.9609 17.583C25.5378 19.7342 23.3235 21.866 21.3656 23.9704C19.3123 26.1769 17.5205 28.372 16.0341 30.5534C14.5478 32.7348 13.3619 34.909 12.527 37.0644C11.7808 38.9566 11.2975 40.9415 11.0905 42.964C10.8996 44.8377 11.0111 46.7299 11.4206 48.5685C11.6221 49.4543 11.9007 50.321 12.2533 51.1586C12.5984 51.9777 13.0179 52.7637 13.5064 53.5069C13.6701 53.7572 13.8439 54.004 14.0278 54.2472C14.2098 54.4889 14.399 54.7242 14.594 54.9508C15.3756 55.8601 16.2693 56.6675 17.254 57.3538L17.2511 57.3531ZM36.5813 60.6798C29.3793 62.8454 22.9918 61.6667 17.4186 57.1437L17.4107 57.138C16.4421 56.4644 15.5633 55.671 14.7955 54.7767C14.6029 54.5513 14.4178 54.321 14.2401 54.086C14.0625 53.851 13.892 53.6088 13.7288 53.3594C13.2502 52.6307 12.8393 51.8601 12.501 51.0571C12.1544 50.2347 11.8806 49.3837 11.6828 48.5138C11.2792 46.7031 11.1695 44.8396 11.3578 42.9942C11.5629 40.9964 12.0406 39.0358 12.7777 37.1666C13.6053 35.0291 14.7796 32.8765 16.2559 30.7095C17.7321 28.5425 19.5174 26.3561 21.562 24.1589C23.512 22.0631 25.7191 19.9385 28.14 17.7888C30.5609 15.6391 33.1746 13.4843 35.966 11.3029L44.772 11.5087L48.88 18.2788L48.8576 18.3399L40.1845 18.1572L40.0992 18.1859C38.9574 19.0773 37.8603 19.9177 36.8045 20.7227C33.0121 23.6106 29.8126 26.0568 26.9433 29.1432C25.2042 31.0138 23.7005 32.8369 22.4698 34.6111C21.2392 36.3853 20.2765 38.122 19.6265 39.7977C19.1537 40.9912 18.8381 42.2407 18.6876 43.5151C18.552 44.6455 18.607 45.7906 18.8501 46.903C18.9333 47.2701 19.0429 47.6307 19.178 47.9822C19.3088 48.323 19.4655 48.6535 19.6467 48.9707C19.7536 49.1578 19.8691 49.3391 19.9912 49.5125C20.1132 49.6858 20.244 49.8542 20.3826 50.0161C20.7519 50.4457 21.1747 50.8267 21.6407 51.1499C22.1194 51.4795 22.6361 51.7505 23.1798 51.9572C24.1644 52.3243 25.2039 52.524 26.255 52.5478C27.448 52.5761 28.6398 52.4518 29.8011 52.178C31.2419 51.8514 32.7297 51.3097 34.2406 50.5866C35.9104 49.7744 37.5125 48.8308 39.0318 47.7649C40.5643 46.703 42.3027 45.2569 44.044 43.664C46.0395 41.8409 48.0393 39.8243 49.743 37.9738L49.7539 37.9594C49.8655 37.8021 49.986 37.6512 50.115 37.5076C50.2435 37.3671 50.3856 37.2256 50.5411 37.0831L57.0158 36.8508L60.6536 44.1432C51.8146 52.9977 43.7905 58.5097 36.5813 60.6791V60.6798Z" fill="url(#paint9_linear_14356_5789)"/>
</g>
<defs>
<linearGradient id="paint0_linear_14356_5789" x1="29.9913" y1="11.1641" x2="48.3551" y2="28.0766" gradientUnits="userSpaceOnUse">
<stop stop-color="#002698"/>
<stop offset="1" stop-color="#3263F8" stop-opacity="0.35"/>
</linearGradient>
<linearGradient id="paint1_linear_14356_5789" x1="54.487" y1="36.7168" x2="57.0494" y2="40.6875" gradientUnits="userSpaceOnUse">
<stop stop-color="#002698"/>
<stop offset="1" stop-color="#3263F8" stop-opacity="0.35"/>
</linearGradient>
<linearGradient id="paint2_linear_14356_5789" x1="54.5055" y1="36.6392" x2="57.1257" y2="40.6831" gradientUnits="userSpaceOnUse">
<stop stop-color="#002698"/>
<stop offset="1" stop-color="#3263F8"/>
</linearGradient>
<linearGradient id="paint3_linear_14356_5789" x1="41.6355" y1="11.1528" x2="43.9396" y2="15.4336" gradientUnits="userSpaceOnUse">
<stop stop-color="#002698"/>
<stop offset="1" stop-color="#3263F8" stop-opacity="0.35"/>
</linearGradient>
<linearGradient id="paint4_linear_14356_5789" x1="41.6128" y1="10.9976" x2="44.0352" y2="15.4228" gradientUnits="userSpaceOnUse">
<stop stop-color="#002698"/>
<stop offset="1" stop-color="#3263F8"/>
</linearGradient>
<linearGradient id="paint5_linear_14356_5789" x1="31.9275" y1="18.2866" x2="44.7604" y2="30.1031" gradientUnits="userSpaceOnUse">
<stop stop-color="#002698"/>
<stop offset="1" stop-color="#3263F8" stop-opacity="0.35"/>
</linearGradient>
<linearGradient id="paint6_linear_14356_5789" x1="31.898" y1="18.2075" x2="44.7878" y2="30.0697" gradientUnits="userSpaceOnUse">
<stop stop-color="#002698"/>
<stop offset="1" stop-color="#3263F8"/>
</linearGradient>
<linearGradient id="paint7_linear_14356_5789" x1="36.1748" y1="44.1028" x2="40.7559" y2="55.6951" gradientUnits="userSpaceOnUse">
<stop stop-color="#002698"/>
<stop offset="1" stop-color="#3263F8" stop-opacity="0.35"/>
</linearGradient>
<linearGradient id="paint8_linear_14356_5789" x1="36.2275" y1="44.0273" x2="40.8579" y2="55.7073" gradientUnits="userSpaceOnUse">
<stop stop-color="#002698"/>
<stop offset="1" stop-color="#3263F8"/>
</linearGradient>
<linearGradient id="paint9_linear_14356_5789" x1="32.659" y1="11.0288" x2="51.885" y2="30.5179" gradientUnits="userSpaceOnUse">
<stop stop-color="#002698"/>
<stop offset="1" stop-color="#3263F8"/>
</linearGradient>
<clipPath id="clip0_14356_5789">
<rect width="50" height="51" fill="white" transform="translate(11 11)"/>
</clipPath>
</defs>
</svg>
