<svg width="72" height="72" viewBox="0 0 72 72" fill="none" xmlns="http://www.w3.org/2000/svg">
<g clip-path="url(#clip0_14430_2302)">
<path d="M42.6978 62.1101C42.6076 61.9829 42.5593 61.8315 42.5593 61.6764C42.5593 61.5212 42.6076 61.3698 42.6978 61.2427C42.9467 60.9025 43.0836 60.4951 43.09 60.0756C43.09 58.1727 40.1021 56.6313 36.4166 56.6313C32.7311 56.6313 29.7432 58.1727 29.7432 60.0756C29.7496 60.4951 29.8865 60.9025 30.1353 61.2427C30.2249 61.3701 30.2728 61.5214 30.2728 61.6764C30.2728 61.8314 30.2249 61.9827 30.1353 62.1101C29.8863 62.4496 29.7494 62.8566 29.7432 63.2756C29.7432 64.1779 30.4166 64.9993 31.5112 65.6146C31.4858 65.7184 31.4729 65.8249 31.4726 65.9317C31.4726 67.3398 33.6842 68.4816 36.4118 68.4816C39.1393 68.4816 41.3493 67.3398 41.3493 65.9317C41.3496 65.8249 41.3372 65.7185 41.3123 65.6146C42.4117 64.9993 43.0803 64.1779 43.0803 63.2756C43.0769 62.8576 42.9434 62.4507 42.6978 62.1101Z" fill="white"/>
<path d="M36.4164 69C33.3497 69 30.9517 67.6505 30.9517 65.9268V65.8872C29.8266 65.1736 29.2158 64.2554 29.2158 63.2754C29.2202 62.7503 29.3886 62.2392 29.698 61.8118C29.7264 61.7718 29.7416 61.7242 29.7416 61.6754C29.7416 61.6266 29.7264 61.579 29.698 61.5391C29.3884 61.1118 29.22 60.6006 29.2158 60.0754C29.2158 57.8554 32.3805 56.1111 36.4212 56.1111C40.4619 56.1111 43.6251 57.8554 43.6251 60.0754C43.6202 60.6005 43.4519 61.1115 43.1429 61.5391C43.1139 61.5791 43.0984 61.6271 43.0984 61.6762C43.0984 61.7254 43.1139 61.7734 43.1429 61.8134C43.4521 62.2403 43.6204 62.7508 43.6251 63.2754C43.6251 64.2554 43.0127 65.1783 41.8892 65.8872C41.89 65.9004 41.89 65.9136 41.8892 65.9268C41.886 67.6505 39.4831 69 36.4164 69ZM36.4164 57.1545C33.0862 57.1545 30.2734 58.4929 30.2734 60.0754C30.2807 60.3884 30.3851 60.6917 30.5724 60.9444C30.7239 61.1589 30.8052 61.414 30.8052 61.6754C30.8052 61.9369 30.7239 62.192 30.5724 62.4065C30.3851 62.6592 30.2807 62.9625 30.2734 63.2754C30.2734 63.9478 30.807 64.617 31.7778 65.1577L32.1234 65.3512L32.0334 65.7333C32.0179 65.7967 32.0098 65.8616 32.0093 65.9268C32.0093 66.8782 33.8191 67.9518 36.4164 67.9518C39.0138 67.9518 40.8236 66.8846 40.8236 65.9268C40.823 65.8616 40.8149 65.7967 40.7995 65.7333L40.7095 65.3512L41.055 65.1577C42.0194 64.617 42.5578 63.9478 42.5578 63.2754C42.5514 62.9623 42.4469 62.6588 42.2589 62.4065C42.1086 62.1915 42.0281 61.9366 42.0281 61.6754C42.0281 61.4143 42.1086 61.1594 42.2589 60.9444C42.4471 60.6922 42.5516 60.3886 42.5578 60.0754C42.5578 58.4929 39.7451 57.1545 36.4164 57.1545Z" fill="url(#paint0_linear_14430_2302)"/>
<path d="M54.5321 33.6619C54.5321 23.9033 46.3012 15.5845 36.4101 15.5845C26.5189 15.5845 18.3973 23.6828 18.3314 33.4224C18.2976 38.381 20.723 42.9939 24.0276 46.2225C26.4221 48.5385 28.1385 51.4492 28.9957 54.6475L29.0359 54.8061C29.4341 56.3181 30.3297 57.6568 31.5823 58.6125C32.8348 59.5681 34.3734 60.0866 35.9568 60.0866H37.2924C38.8758 60.0866 40.4144 59.5681 41.667 58.6125C42.9195 57.6568 43.8151 56.3181 44.2134 54.8061L44.2375 54.7126C45.0617 51.5239 46.7528 48.6179 49.1284 46.3081C50.8417 44.6647 52.2028 42.6984 53.131 40.526C54.0593 38.3536 54.5357 36.0194 54.5321 33.6619Z" fill="url(#paint1_linear_14430_2302)"/>
<path d="M37.2893 60.602H35.9537C34.2528 60.6016 32.6001 60.0446 31.2546 59.0181C29.9091 57.9917 28.9468 56.5538 28.5184 54.9298L28.4783 54.7712C27.646 51.6651 25.9803 48.8379 23.6564 46.5872C19.9034 42.9226 17.7706 38.1194 17.8011 33.4097C17.8702 23.288 26.2184 15.0532 36.4118 15.0532C46.5232 15.0532 55.0562 23.5734 55.0562 33.6587C55.0642 36.0863 54.5757 38.4906 53.6199 40.7276C52.6641 42.9646 51.2606 44.9883 49.4934 46.6776C47.1876 48.9189 45.546 51.7388 44.7455 54.8331L44.7214 54.9266C44.2938 56.5507 43.3322 57.9889 41.9873 59.0159C40.6424 60.0429 38.9901 60.6008 37.2893 60.602ZM36.4069 16.1046C26.7954 16.1046 18.923 23.8747 18.8587 33.4208C18.8298 37.8498 20.8485 42.3771 24.399 45.8451C26.8595 48.2288 28.624 51.2223 29.5069 54.5111L29.5471 54.6697C29.9161 56.0691 30.7452 57.3081 31.9046 58.1925C33.0641 59.077 34.4881 59.5569 35.9537 59.557H37.2893C38.755 59.5571 40.1792 59.0773 41.3387 58.1928C42.4981 57.3084 43.3272 56.0692 43.6959 54.6697L43.7217 54.5762C44.5695 51.2969 46.3103 48.3088 48.7557 45.9355C50.4208 44.3429 51.7432 42.4355 52.6441 40.3272C53.5449 38.2189 54.0056 35.953 53.9986 33.665C53.9986 24.1443 45.9429 16.1046 36.4069 16.1046Z" fill="url(#paint2_linear_14430_2302)"/>
<path d="M37.424 58.0711C37.3543 58.0709 37.2854 58.0572 37.2211 58.0307C37.1568 58.0042 37.0985 57.9655 37.0494 57.9167C37.0003 57.868 36.9614 57.8102 36.9349 57.7466C36.9084 57.683 36.8949 57.6149 36.8952 57.5462C36.9353 47.9937 42.5801 37.2266 43.7116 35.1651C44.3545 33.9774 44.6117 33.0133 44.4751 32.2188C44.2742 31.0501 43.6714 30.2985 42.6894 29.9877C41.8378 29.7481 40.9281 29.8098 40.1177 30.1621C41.3393 31.483 42.1333 33.5255 41.5916 35.3951C41.4821 35.7795 41.2617 36.1243 40.9572 36.3875C40.6527 36.6507 40.2774 36.821 39.8766 36.8777C39.3944 36.954 38.9001 36.8944 38.4506 36.7059C38.0011 36.5174 37.6146 36.2076 37.3355 35.8121C36.8534 35.1318 36.2699 33.5921 37.792 30.9455C37.9649 30.6434 38.1732 30.3624 38.4124 30.1082C37.9688 29.8456 37.4722 29.6822 36.9575 29.6296C36.4429 29.577 35.9229 29.6364 35.4341 29.8037C35.1737 29.9008 34.9268 30.0303 34.6996 30.1891C36.0224 31.2705 36.6155 33.6682 36.3342 35.0462C36.1044 36.1689 35.4357 36.9713 34.4971 37.2504C34.1 37.3678 33.6781 37.3766 33.2764 37.2758C32.8746 37.1749 32.5083 36.9683 32.2164 36.6779C31.4031 35.8739 31.2054 34.5419 31.6731 33.0307C31.9294 32.1397 32.3358 31.2975 32.8754 30.5395C31.0913 30.1605 29.8585 31.0152 29.5161 31.8414C29.3079 32.373 29.2361 32.9471 29.3074 33.5127C29.3786 34.0782 29.5906 34.6176 29.9244 35.0827C31.5847 37.4232 35.4679 44.2562 35.6575 57.1117C35.6593 57.2507 35.6051 57.3846 35.5069 57.4842C35.4086 57.5838 35.2744 57.6409 35.1336 57.643C34.994 57.643 34.8601 57.5887 34.7608 57.4919C34.6615 57.3952 34.6049 57.2637 34.6032 57.126C34.4183 44.5622 30.667 37.9386 29.0629 35.6837C28.623 35.0775 28.3445 34.3719 28.253 33.6319C28.1614 32.8918 28.2597 32.1409 28.5389 31.4482C29.1642 29.9274 31.2263 28.8919 33.6822 29.6658C34.0907 29.3035 34.5637 29.0191 35.0773 28.8269C36.5946 28.2688 38.1311 28.689 39.0585 29.2662C39.1373 29.3153 39.2193 29.3677 39.2916 29.4247C39.8517 29.1058 40.472 28.9032 41.1144 28.8296C41.7568 28.7559 42.4076 28.8128 43.0269 28.9966C44.4011 29.4311 45.2675 30.4872 45.5375 32.0507C45.7175 33.0989 45.4394 34.2486 44.6599 35.6694C43.5493 37.6928 38.0106 48.2538 37.972 57.5526C37.9712 57.6223 37.9563 57.6912 37.9282 57.7552C37.9001 57.8192 37.8593 57.877 37.8083 57.9253C37.7572 57.9736 37.697 58.0113 37.631 58.0364C37.565 58.0614 37.4946 58.0732 37.424 58.0711ZM33.9136 30.9233C33.3484 31.6417 32.9307 32.462 32.6841 33.3383C32.3337 34.4737 32.4366 35.4236 32.9638 35.9469C33.1188 36.1044 33.3149 36.2165 33.5305 36.2708C33.7461 36.3251 33.9727 36.3195 34.1853 36.2545C34.7366 36.0959 35.1384 35.579 35.2879 34.848C35.5129 33.7411 34.9311 31.6242 33.9136 30.9233ZM39.2337 30.7806C39.0297 30.9863 38.8541 31.2177 38.7114 31.4688C37.8097 33.0386 37.6233 34.4056 38.2003 35.219C38.3645 35.4523 38.5918 35.6355 38.8564 35.7476C39.1209 35.8597 39.412 35.8964 39.6966 35.8533C39.8985 35.8283 40.0885 35.7451 40.2428 35.6143C40.3972 35.4835 40.5091 35.3107 40.5646 35.1176C40.9953 33.619 40.2785 31.8557 39.2337 30.7742V30.7806Z" fill="white"/>
<path d="M44.7138 45.2725C44.5989 45.2721 44.4872 45.235 44.3954 45.1668C44.3036 45.0985 44.2367 45.0028 44.2047 44.8939C44.1726 44.785 44.1772 44.6688 44.2177 44.5627C44.2582 44.4565 44.3325 44.3662 44.4294 44.3052C46.0019 43.3262 47.3631 42.0506 48.4349 40.5515C49.5067 39.0525 50.2681 37.3594 50.6752 35.5694C50.7057 35.4337 50.7896 35.3156 50.9083 35.241C51.0271 35.1663 51.171 35.1413 51.3085 35.1714C51.446 35.2014 51.5657 35.2841 51.6414 35.4013C51.717 35.5185 51.7424 35.6605 51.7119 35.7961C51.2744 37.7218 50.4558 39.5432 49.3032 41.1561C48.1506 42.7689 46.6865 44.1414 44.9951 45.1948C44.9109 45.247 44.8132 45.274 44.7138 45.2725Z" fill="white"/>
<path d="M25.2222 43.2253C25.1471 43.2257 25.0729 43.2101 25.0044 43.1798C24.9359 43.1494 24.8748 43.1049 24.8252 43.0493C23.2849 41.338 22.1652 39.2995 21.5529 37.092C20.9406 34.8845 20.8522 32.5675 21.2947 30.3209C21.7372 28.0743 22.6985 25.9585 24.1041 24.1379C25.5097 22.3172 27.3218 20.8407 29.3995 19.823C29.5257 19.7612 29.6716 19.7513 29.8051 19.7957C29.9387 19.84 30.0489 19.9348 30.1116 20.0593C30.1742 20.1838 30.1842 20.3277 30.1393 20.4595C30.0944 20.5912 29.9982 20.6999 29.8721 20.7618C27.9402 21.7079 26.2554 23.0807 24.9485 24.7734C23.6416 26.4661 22.7478 28.4333 22.3364 30.5221C21.925 32.6109 22.0072 34.7652 22.5766 36.8176C23.1459 38.87 24.1871 40.7653 25.6192 42.3563C25.6876 42.4317 25.7323 42.5251 25.748 42.625C25.7637 42.725 25.7497 42.8273 25.7077 42.9196C25.6657 43.0119 25.5975 43.0902 25.5113 43.145C25.4252 43.1998 25.3248 43.2288 25.2222 43.2285V43.2253Z" fill="white"/>
<path d="M37.5562 62.4429C37.4222 62.4445 37.2925 62.3959 37.1932 62.307C37.094 62.218 37.0326 62.0952 37.0214 61.9634C37.0102 61.8316 37.05 61.7004 37.1328 61.5964C37.2157 61.4924 37.3354 61.4232 37.4678 61.4027C38.0519 61.3045 38.6302 61.1759 39.2005 61.0174C39.2676 60.9986 39.3378 60.9931 39.4071 61.0011C39.4764 61.0092 39.5434 61.0306 39.6043 61.0641C39.6652 61.0977 39.7188 61.1428 39.762 61.1968C39.8052 61.2508 39.8373 61.3127 39.8563 61.3789C39.8752 61.4451 39.8809 61.5144 39.8727 61.5827C39.8646 61.6511 39.8429 61.7172 39.8089 61.7773C39.7748 61.8374 39.7291 61.8902 39.6744 61.9329C39.6197 61.9755 39.5569 62.0072 39.4898 62.0259C38.8831 62.1946 38.2677 62.3312 37.6462 62.435C37.6165 62.4401 37.5864 62.4427 37.5562 62.4429Z" fill="url(#paint3_linear_14430_2302)"/>
<path d="M34.743 65.8286C34.6072 65.8213 34.4794 65.7628 34.3859 65.6654C34.2924 65.5679 34.2402 65.4388 34.2402 65.3046C34.2402 65.1703 34.2924 65.0412 34.3859 64.9437C34.4794 64.8463 34.6072 64.7878 34.743 64.7805C36.098 64.7678 38.0829 64.5822 39.8526 63.7672C39.9159 63.7381 39.9844 63.7217 40.0541 63.7187C40.1239 63.7158 40.1936 63.7265 40.2592 63.7501C40.3248 63.7737 40.385 63.8099 40.4364 63.8565C40.4879 63.9031 40.5295 63.9592 40.5589 64.0217C40.5884 64.0842 40.6051 64.1517 40.6081 64.2206C40.611 64.2894 40.6002 64.3581 40.5763 64.4229C40.5523 64.4876 40.5157 64.547 40.4684 64.5978C40.4212 64.6485 40.3643 64.6896 40.301 64.7186C38.3594 65.6146 36.2121 65.8175 34.7527 65.8286H34.743Z" fill="url(#paint4_linear_14430_2302)"/>
<path d="M36.5067 11.8515H36.4954C36.3547 11.8482 36.2211 11.7902 36.1235 11.6901C36.026 11.59 35.9725 11.4559 35.9747 11.3171L36.1354 3.51371C36.1353 3.44447 36.1495 3.37593 36.1769 3.31221C36.2044 3.2485 36.2446 3.19091 36.2952 3.14293C36.3458 3.09494 36.4057 3.05753 36.4713 3.03296C36.5369 3.00839 36.6069 2.99715 36.6771 2.99993C36.7469 3.00137 36.8158 3.01638 36.8798 3.0441C36.9438 3.07182 37.0016 3.11171 37.05 3.16148C37.0983 3.21125 37.1363 3.26994 37.1616 3.33418C37.187 3.39843 37.1993 3.46697 37.1978 3.53591L37.0371 11.3393C37.0341 11.4762 36.977 11.6064 36.8778 11.7022C36.7787 11.7979 36.6454 11.8515 36.5067 11.8515Z" fill="url(#paint5_linear_14430_2302)"/>
<path d="M13.5818 27.7518H8.53013C8.3943 27.7444 8.26648 27.686 8.17296 27.5885C8.07945 27.491 8.02734 27.3619 8.02734 27.2277C8.02734 27.0935 8.07945 26.9644 8.17296 26.8669C8.26648 26.7694 8.3943 26.711 8.53013 26.7036H13.5818C13.7176 26.711 13.8454 26.7694 13.939 26.8669C14.0325 26.9644 14.0846 27.0935 14.0846 27.2277C14.0846 27.3619 14.0325 27.491 13.939 27.5885C13.8454 27.686 13.7176 27.7444 13.5818 27.7518Z" fill="url(#paint6_linear_14430_2302)"/>
<path d="M18.2414 17.3304C18.1533 17.3302 18.0666 17.3084 17.9891 17.2669L12.2929 14.2207C12.1693 14.1545 12.0774 14.0425 12.0375 13.9094C11.9975 13.7763 12.0128 13.6331 12.0799 13.5111C12.1471 13.3891 12.2606 13.2985 12.3955 13.2591C12.5303 13.2197 12.6756 13.2348 12.7992 13.301L18.4954 16.3456C18.5999 16.4008 18.6828 16.4889 18.7306 16.5959C18.7784 16.703 18.7885 16.8227 18.7593 16.9361C18.7301 17.0495 18.6632 17.1499 18.5693 17.2214C18.4754 17.2928 18.36 17.3312 18.2414 17.3304Z" fill="url(#paint7_linear_14430_2302)"/>
<path d="M59.2517 27.7518C59.1794 27.7558 59.1072 27.7451 59.0393 27.7206C58.9714 27.696 58.9093 27.658 58.8567 27.609C58.8042 27.5599 58.7624 27.5008 58.7338 27.4353C58.7052 27.3697 58.6904 27.2991 58.6904 27.2278C58.6904 27.1564 58.7052 27.0858 58.7338 27.0203C58.7624 26.9547 58.8042 26.8956 58.8567 26.8465C58.9093 26.7975 58.9714 26.7595 59.0393 26.735C59.1072 26.7104 59.1794 26.6998 59.2517 26.7037H64.3017C64.374 26.6998 64.4462 26.7104 64.5141 26.735C64.582 26.7595 64.6441 26.7975 64.6967 26.8465C64.7492 26.8956 64.791 26.9547 64.8196 27.0203C64.8482 27.0858 64.863 27.1564 64.863 27.2278C64.863 27.2991 64.8482 27.3697 64.8196 27.4353C64.791 27.5008 64.7492 27.5599 64.6967 27.609C64.6441 27.658 64.582 27.696 64.5141 27.7206C64.4462 27.7451 64.374 27.7558 64.3017 27.7518H59.2517Z" fill="url(#paint8_linear_14430_2302)"/>
<path d="M54.5919 17.3304C54.4733 17.3312 54.3579 17.2928 54.264 17.2214C54.1701 17.1499 54.1032 17.0495 54.074 16.9361C54.0448 16.8227 54.0549 16.703 54.1027 16.5959C54.1506 16.4889 54.2334 16.4008 54.3379 16.3456L60.0341 13.301C60.0953 13.2682 60.1625 13.2476 60.2318 13.2404C60.301 13.2332 60.3711 13.2396 60.4378 13.2591C60.5046 13.2786 60.5669 13.3109 60.621 13.3541C60.6751 13.3974 60.7201 13.4507 60.7534 13.5111C60.7866 13.5715 60.8075 13.6378 60.8148 13.7061C60.8221 13.7744 60.8156 13.8435 60.7959 13.9094C60.7761 13.9753 60.7433 14.0367 60.6995 14.0901C60.6557 14.1435 60.6016 14.1879 60.5404 14.2207L54.8442 17.2669C54.7667 17.3084 54.68 17.3302 54.5919 17.3304Z" fill="url(#paint9_linear_14430_2302)"/>
</g>
<defs>
<linearGradient id="paint0_linear_14430_2302" x1="35.4598" y1="56.1111" x2="40.2713" y2="61.6717" gradientUnits="userSpaceOnUse">
<stop stop-color="#002698"/>
<stop offset="1" stop-color="#3263F8" stop-opacity="0.25"/>
</linearGradient>
<linearGradient id="paint1_linear_14430_2302" x1="34.0182" y1="15.5845" x2="50.5566" y2="29.4921" gradientUnits="userSpaceOnUse">
<stop stop-color="#002698"/>
<stop offset="1" stop-color="#3263F8" stop-opacity="0.25"/>
</linearGradient>
<linearGradient id="paint2_linear_14430_2302" x1="33.9448" y1="15.0532" x2="50.8878" y2="29.3792" gradientUnits="userSpaceOnUse">
<stop stop-color="#002698"/>
<stop offset="1" stop-color="#3263F8" stop-opacity="0.25"/>
</linearGradient>
<linearGradient id="paint3_linear_14430_2302" x1="38.2575" y1="60.9976" x2="38.6881" y2="61.8773" gradientUnits="userSpaceOnUse">
<stop stop-color="#002698"/>
<stop offset="1" stop-color="#3263F8" stop-opacity="0.25"/>
</linearGradient>
<linearGradient id="paint4_linear_14430_2302" x1="36.9998" y1="63.7183" x2="37.4627" y2="65.1621" gradientUnits="userSpaceOnUse">
<stop stop-color="#002698"/>
<stop offset="1" stop-color="#3263F8" stop-opacity="0.25"/>
</linearGradient>
<linearGradient id="paint5_linear_14430_2302" x1="36.5047" y1="2.99951" x2="37.4397" y2="3.13309" gradientUnits="userSpaceOnUse">
<stop stop-color="#002698"/>
<stop offset="1" stop-color="#3263F8" stop-opacity="0.25"/>
</linearGradient>
<linearGradient id="paint6_linear_14430_2302" x1="10.6521" y1="26.7036" x2="10.7809" y2="27.4728" gradientUnits="userSpaceOnUse">
<stop stop-color="#002698"/>
<stop offset="1" stop-color="#3263F8" stop-opacity="0.25"/>
</linearGradient>
<linearGradient id="paint7_linear_14430_2302" x1="14.945" y1="13.2375" x2="16.2915" y2="15.5367" gradientUnits="userSpaceOnUse">
<stop stop-color="#002698"/>
<stop offset="1" stop-color="#3263F8" stop-opacity="0.25"/>
</linearGradient>
<linearGradient id="paint8_linear_14430_2302" x1="61.3652" y1="26.7029" x2="61.4921" y2="27.474" gradientUnits="userSpaceOnUse">
<stop stop-color="#002698"/>
<stop offset="1" stop-color="#3263F8" stop-opacity="0.25"/>
</linearGradient>
<linearGradient id="paint9_linear_14430_2302" x1="56.987" y1="13.2375" x2="58.3335" y2="15.5367" gradientUnits="userSpaceOnUse">
<stop stop-color="#002698"/>
<stop offset="1" stop-color="#3263F8" stop-opacity="0.25"/>
</linearGradient>
<clipPath id="clip0_14430_2302">
<rect width="56.8333" height="66" fill="white" transform="translate(8 3)"/>
</clipPath>
</defs>
</svg>
