<svg width="72" height="72" viewBox="0 0 72 72" fill="none" xmlns="http://www.w3.org/2000/svg">
<path d="M50.278 34.8969H22.33C21.9176 34.8976 21.5224 35.0618 21.2308 35.3533C20.9392 35.6449 20.7751 36.0402 20.7743 36.4525V47.5472C23.4987 51.324 27.499 53.986 32.0349 55.0404H40.6353C45.1461 53.9972 49.1251 51.3527 51.8336 47.5978V36.4525C51.8329 36.0402 51.6687 35.6449 51.3772 35.3533C51.0856 35.0618 50.6903 34.8976 50.278 34.8969ZM36.304 47.5342C35.7966 47.5342 35.3005 47.3838 34.8786 47.1019C34.4567 46.82 34.1279 46.4193 33.9337 45.9505C33.7395 45.4817 33.6887 44.9658 33.7877 44.4681C33.8867 43.9704 34.131 43.5133 34.4898 43.1545C34.8486 42.7957 35.3058 42.5513 35.8035 42.4524C36.3011 42.3534 36.817 42.4042 37.2858 42.5984C37.7546 42.7925 38.1553 43.1214 38.4372 43.5433C38.7191 43.9652 38.8696 44.4612 38.8696 44.9686C38.8689 45.6489 38.5984 46.3011 38.1174 46.7821C37.6364 47.2631 36.9842 47.5336 36.304 47.5342ZM50.278 34.8969H22.33C21.9176 34.8976 21.5224 35.0618 21.2308 35.3533C20.9392 35.6449 20.7751 36.0402 20.7743 36.4525V47.5472C23.4987 51.324 27.499 53.986 32.0349 55.0404H40.6353C45.1461 53.9972 49.1251 51.3527 51.8336 47.5978V36.4525C51.8329 36.0402 51.6687 35.6449 51.3772 35.3533C51.0856 35.0618 50.6903 34.8976 50.278 34.8969ZM36.304 47.5342C35.7966 47.5342 35.3005 47.3838 34.8786 47.1019C34.4567 46.82 34.1279 46.4193 33.9337 45.9505C33.7395 45.4817 33.6887 44.9658 33.7877 44.4681C33.8867 43.9704 34.131 43.5133 34.4898 43.1545C34.8486 42.7957 35.3058 42.5513 35.8035 42.4524C36.3011 42.3534 36.817 42.4042 37.2858 42.5984C37.7546 42.7925 38.1553 43.1214 38.4372 43.5433C38.7191 43.9652 38.8696 44.4612 38.8696 44.9686C38.8689 45.6489 38.5984 46.3011 38.1174 46.7821C37.6364 47.2631 36.9842 47.5336 36.304 47.5342ZM50.278 34.8969H22.33C21.9176 34.8976 21.5224 35.0618 21.2308 35.3533C20.9392 35.6449 20.7751 36.0402 20.7743 36.4525V47.5472C23.4987 51.324 27.499 53.986 32.0349 55.0404H40.6353C45.1461 53.9972 49.1251 51.3527 51.8336 47.5978V36.4525C51.8329 36.0402 51.6687 35.6449 51.3772 35.3533C51.0856 35.0618 50.6903 34.8976 50.278 34.8969ZM36.304 47.5342C35.7966 47.5342 35.3005 47.3838 34.8786 47.1019C34.4567 46.82 34.1279 46.4193 33.9337 45.9505C33.7395 45.4817 33.6887 44.9658 33.7877 44.4681C33.8867 43.9704 34.131 43.5133 34.4898 43.1545C34.8486 42.7957 35.3058 42.5513 35.8035 42.4524C36.3011 42.3534 36.817 42.4042 37.2858 42.5984C37.7546 42.7925 38.1553 43.1214 38.4372 43.5433C38.7191 43.9652 38.8696 44.4612 38.8696 44.9686C38.8689 45.6489 38.5984 46.3011 38.1174 46.7821C37.6364 47.2631 36.9842 47.5336 36.304 47.5342ZM66.3806 35.8251H61.7084C61.4348 22.2258 50.4232 11.2128 36.8225 10.9405V6.267C36.8225 6.12947 36.7679 5.99757 36.6707 5.90032C36.5734 5.80307 36.4415 5.74843 36.304 5.74843C36.1664 5.74843 36.0345 5.80307 35.9373 5.90032C35.8401 5.99757 35.7854 6.12947 35.7854 6.267V10.9405C22.1848 11.2128 11.1731 22.2258 10.8996 35.8251H6.22733C6.0898 35.8251 5.9579 35.8797 5.86065 35.977C5.7634 36.0742 5.70876 36.2061 5.70876 36.3436C5.70876 36.4812 5.7634 36.6131 5.86065 36.7103C5.9579 36.8076 6.0898 36.8622 6.22733 36.8622H10.8996C11.1731 50.4641 22.1848 61.4745 35.7854 61.7493V66.4203C35.7854 66.5578 35.8401 66.6897 35.9373 66.787C36.0345 66.8842 36.1664 66.9389 36.304 66.9389C36.4415 66.9389 36.5734 66.8842 36.6707 66.787C36.7679 66.6897 36.8225 66.5578 36.8225 66.4203V61.7493C50.4232 61.4745 61.4348 50.4641 61.7084 36.8622H66.3806C66.5182 36.8622 66.6501 36.8076 66.7473 36.7103C66.8446 36.6131 66.8992 36.4812 66.8992 36.3436C66.8992 36.2061 66.8446 36.0742 66.7473 35.977C66.6501 35.8797 66.5182 35.8251 66.3806 35.8251ZM35.7854 11.979C35.9578 11.9725 36.1303 11.9712 36.304 11.9712C36.4777 11.9712 36.6501 11.9725 36.8225 11.979V13.5269C36.8225 13.6644 36.7679 13.7963 36.6707 13.8936C36.5734 13.9908 36.4415 14.0454 36.304 14.0454C36.1664 14.0454 36.0345 13.9908 35.9373 13.8936C35.8401 13.7963 35.7854 13.6644 35.7854 13.5269V11.979ZM13.4872 36.8622H11.938C11.9328 36.6911 11.9315 36.5174 11.9315 36.3436C11.9315 36.1699 11.9328 35.9975 11.938 35.8251H13.4872C13.6247 35.8251 13.7566 35.8797 13.8539 35.977C13.9511 36.0742 14.0058 36.2061 14.0058 36.3436C14.0058 36.4812 13.9511 36.6131 13.8539 36.7103C13.7566 36.8076 13.6247 36.8622 13.4872 36.8622ZM36.8225 60.7109C36.6501 60.7148 36.4777 60.7161 36.304 60.7161C36.1303 60.7161 35.9578 60.7148 35.7854 60.7109V59.1604C35.7854 59.0229 35.8401 58.891 35.9373 58.7937C36.0345 58.6965 36.1664 58.6419 36.304 58.6419C36.4415 58.6419 36.5734 58.6965 36.6707 58.7937C36.7679 58.891 36.8225 59.0229 36.8225 59.1604V60.7109ZM53.2052 47.437C53.2052 47.437 51.8699 49.239 51.8336 49.2831C49.0795 52.5944 45.3392 54.939 41.1586 55.9747C36.9779 57.0104 32.5757 56.6831 28.5942 55.0404C24.9526 53.5353 21.5236 50.818 19.4779 47.555L19.3729 47.3916C18.7979 46.5155 18.2925 45.5957 17.8613 44.6407L19.6801 35.5451C19.9691 34.1173 20.7421 32.833 21.8686 31.9095C22.9951 30.9859 24.406 30.4795 25.8627 30.4761H33.098C33.2209 31.2379 33.6111 31.9309 34.1985 32.4312C34.786 32.9315 35.5324 33.2062 36.304 33.2062C37.0756 33.2062 37.822 32.9315 38.4094 32.4312C38.9969 31.9309 39.3871 31.2379 39.51 30.4761H46.7452C48.202 30.4795 49.6128 30.9859 50.7393 31.9095C51.8658 32.833 52.6389 34.1173 52.9278 35.5451L54.7467 44.6407C54.3075 45.612 53.7921 46.5471 53.2052 47.437ZM34.9998 25.9763C34.7684 25.9486 34.5552 25.8369 34.4006 25.6625C34.246 25.4881 34.1607 25.263 34.161 25.0299V25.0105C34.1653 24.7754 34.2564 24.5503 34.4168 24.3784C34.5772 24.2066 34.7954 24.1002 35.0296 24.0796C35.0361 24.0783 35.0413 24.0783 35.0478 24.077C35.0702 24.0749 35.0927 24.074 35.1152 24.0745C35.2614 24.074 35.4057 24.1077 35.5365 24.173C35.6478 24.2292 35.7757 24.2432 35.8965 24.2124C36.0173 24.1817 36.1229 24.1083 36.1938 24.0057C36.4925 23.5773 36.6886 23.0858 36.7668 22.5693L36.7824 22.4617C37.2995 22.7725 37.8558 23.0127 38.4366 23.176V26.5545C38.4366 26.9435 38.2822 27.3166 38.0072 27.5918C37.7323 27.8669 37.3593 28.0217 36.9703 28.022C36.8328 28.022 36.7009 28.0766 36.6037 28.1739C36.5064 28.2711 36.4518 28.403 36.4518 28.5406C36.4518 28.6781 36.5064 28.81 36.6037 28.9073C36.7009 29.0045 36.8328 29.0591 36.9703 29.0591C37.0313 29.0591 37.0909 29.0539 37.1505 29.0501V29.9575C37.1504 30.0257 37.1637 30.0932 37.1898 30.1561C37.2158 30.2191 37.254 30.2763 37.3022 30.3245C37.3503 30.3727 37.4075 30.4109 37.4705 30.4369C37.5335 30.4629 37.601 30.4762 37.6691 30.4761H38.4534C38.3372 30.9587 38.062 31.3881 37.6721 31.6952C37.2822 32.0024 36.8003 32.1694 36.304 32.1694C35.8076 32.1694 35.3257 32.0024 34.9358 31.6952C34.5459 31.3881 34.2707 30.9587 34.1545 30.4761H34.9389C35.007 30.4762 35.0745 30.4629 35.1375 30.4369C35.2004 30.4109 35.2576 30.3727 35.3058 30.3245C35.354 30.2763 35.3922 30.2191 35.4182 30.1561C35.4442 30.0932 35.4575 30.0257 35.4574 29.9575V26.491C35.4569 26.3641 35.4102 26.2419 35.3259 26.1471C35.2416 26.0523 35.1257 25.9916 34.9998 25.9763ZM55.4493 42.8659L53.9442 35.3415C53.6081 33.6789 52.708 32.1833 51.3963 31.1078C50.0845 30.0322 48.4415 29.4427 46.7452 29.439H38.1877V28.7415C38.5765 28.5236 38.9005 28.2062 39.1265 27.8219C39.3524 27.4377 39.4723 27.0003 39.4737 26.5545V23.3796C39.7408 23.4121 40.0097 23.4286 40.2788 23.4288H41.57C41.7075 23.4288 41.8394 23.3742 41.9367 23.277C42.0339 23.1797 42.0885 23.0478 42.0885 22.9103V21.0149C42.0878 20.4117 41.9117 19.8216 41.5817 19.3166C41.2484 18.8063 40.7798 18.3987 40.2282 18.1395C39.7639 17.9219 39.2574 17.809 38.7446 17.8088C38.2318 17.8086 37.7253 17.921 37.2607 18.1382L35.8878 18.7877C35.4231 18.6304 34.9254 18.5968 34.4437 18.6903C33.962 18.7837 33.513 19.0009 33.1407 19.3205C32.7648 19.6305 32.4852 20.0413 32.3347 20.5048C32.1843 20.9682 32.1693 21.465 32.2916 21.9367C32.2916 21.9367 32.9605 24.6073 33.1796 25.4966C33.2564 25.8134 33.4096 26.1066 33.6259 26.3504C33.8422 26.5943 34.1149 26.7814 34.4203 26.8954V29.439H25.8627C24.1664 29.4427 22.5235 30.0322 21.2117 31.1078C19.9 32.1833 18.9999 33.6789 18.6638 35.3415L17.1586 42.8659C16.4427 40.7659 16.0783 38.5623 16.08 36.3436C16.08 25.1932 25.1523 16.1197 36.304 16.1197C47.4557 16.1197 56.5279 25.1932 56.5279 36.3436C56.5297 38.5623 56.1652 40.7659 55.4493 42.8659ZM60.67 36.8622H59.1208C58.9832 36.8622 58.8513 36.8076 58.7541 36.7103C58.6568 36.6131 58.6022 36.4812 58.6022 36.3436C58.6022 36.2061 58.6568 36.0742 58.7541 35.977C58.8513 35.8797 58.9832 35.8251 59.1208 35.8251H60.67C60.6751 35.9975 60.6764 36.1699 60.6764 36.3436C60.6764 36.5174 60.6751 36.6911 60.67 36.8622ZM50.278 34.8969H22.33C21.9176 34.8976 21.5224 35.0618 21.2308 35.3533C20.9392 35.6449 20.7751 36.0402 20.7743 36.4525V47.5472C23.4987 51.324 27.499 53.986 32.0349 55.0404H40.6353C45.1461 53.9972 49.1251 51.3527 51.8336 47.5978V36.4525C51.8329 36.0402 51.6687 35.6449 51.3772 35.3533C51.0856 35.0618 50.6903 34.8976 50.278 34.8969ZM36.304 47.5342C35.7966 47.5342 35.3005 47.3838 34.8786 47.1019C34.4567 46.82 34.1279 46.4193 33.9337 45.9505C33.7395 45.4817 33.6887 44.9658 33.7877 44.4681C33.8867 43.9704 34.131 43.5133 34.4898 43.1545C34.8486 42.7957 35.3058 42.5513 35.8035 42.4524C36.3011 42.3534 36.817 42.4042 37.2858 42.5984C37.7546 42.7925 38.1553 43.1214 38.4372 43.5433C38.7191 43.9652 38.8696 44.4612 38.8696 44.9686C38.8689 45.6489 38.5984 46.3011 38.1174 46.7821C37.6364 47.2631 36.9842 47.5336 36.304 47.5342ZM50.278 34.8969H22.33C21.9176 34.8976 21.5224 35.0618 21.2308 35.3533C20.9392 35.6449 20.7751 36.0402 20.7743 36.4525V47.5472C23.4987 51.324 27.499 53.986 32.0349 55.0404H40.6353C45.1461 53.9972 49.1251 51.3527 51.8336 47.5978V36.4525C51.8329 36.0402 51.6687 35.6449 51.3772 35.3533C51.0856 35.0618 50.6903 34.8976 50.278 34.8969ZM36.304 47.5342C35.7966 47.5342 35.3005 47.3838 34.8786 47.1019C34.4567 46.82 34.1279 46.4193 33.9337 45.9505C33.7395 45.4817 33.6887 44.9658 33.7877 44.4681C33.8867 43.9704 34.131 43.5133 34.4898 43.1545C34.8486 42.7957 35.3058 42.5513 35.8035 42.4524C36.3011 42.3534 36.817 42.4042 37.2858 42.5984C37.7546 42.7925 38.1553 43.1214 38.4372 43.5433C38.7191 43.9652 38.8696 44.4612 38.8696 44.9686C38.8689 45.6489 38.5984 46.3011 38.1174 46.7821C37.6364 47.2631 36.9842 47.5336 36.304 47.5342ZM50.278 34.8969H22.33C21.9176 34.8976 21.5224 35.0618 21.2308 35.3533C20.9392 35.6449 20.7751 36.0402 20.7743 36.4525V47.5472C23.4987 51.324 27.499 53.986 32.0349 55.0404H40.6353C45.1461 53.9972 49.1251 51.3527 51.8336 47.5978V36.4525C51.8329 36.0402 51.6687 35.6449 51.3772 35.3533C51.0856 35.0618 50.6903 34.8976 50.278 34.8969ZM36.304 47.5342C35.7966 47.5342 35.3005 47.3838 34.8786 47.1019C34.4567 46.82 34.1279 46.4193 33.9337 45.9505C33.7395 45.4817 33.6887 44.9658 33.7877 44.4681C33.8867 43.9704 34.131 43.5133 34.4898 43.1545C34.8486 42.7957 35.3058 42.5513 35.8035 42.4524C36.3011 42.3534 36.817 42.4042 37.2858 42.5984C37.7546 42.7925 38.1553 43.1214 38.4372 43.5433C38.7191 43.9652 38.8696 44.4612 38.8696 44.9686C38.8689 45.6489 38.5984 46.3011 38.1174 46.7821C37.6364 47.2631 36.9842 47.5336 36.304 47.5342ZM67.5053 65.3051C67.5534 65.3533 67.5916 65.4105 67.6177 65.4734C67.6437 65.5363 67.6572 65.6037 67.6572 65.6718C67.6572 65.7399 67.6437 65.8074 67.6177 65.8703C67.5916 65.9332 67.5534 65.9904 67.5053 66.0385L66.0385 67.5053C65.9413 67.6025 65.8094 67.6571 65.6719 67.6571C65.5344 67.6571 65.4025 67.6025 65.3053 67.5053L58.2863 60.4863L57.1861 61.5863C57.1212 61.6511 57.0403 61.6977 56.9515 61.721C56.8628 61.7444 56.7694 61.7438 56.681 61.7193C56.5926 61.6948 56.5122 61.6473 56.4481 61.5815C56.3841 61.5158 56.3386 61.4343 56.3164 61.3453L54.8496 55.4785C54.8279 55.3916 54.829 55.3006 54.8529 55.2143C54.8768 55.128 54.9227 55.0493 54.986 54.986C55.0493 54.9227 55.128 54.8768 55.2143 54.8529C55.3006 54.829 55.3916 54.8279 55.4785 54.8496L61.3454 56.3164C61.4344 56.3386 61.5159 56.3841 61.5816 56.4482C61.6473 56.5122 61.6948 56.5926 61.7193 56.681C61.7438 56.7695 61.7444 56.8628 61.721 56.9516C61.6977 57.0403 61.6511 57.1212 61.5863 57.1861L60.4864 58.2861L67.5053 65.3051ZM5.15196 7.35196C5.10378 7.30381 5.06557 7.24663 5.03949 7.1837C5.01342 7.12077 5 7.05332 5 6.98521C5 6.91709 5.01342 6.84964 5.03949 6.78671C5.06557 6.72378 5.10378 6.66661 5.15196 6.61845L6.61871 5.15183C6.71596 5.05461 6.84783 5 6.98534 5C7.12284 5 7.25472 5.05461 7.35196 5.15183L14.371 12.1708L15.4711 11.0708C15.536 11.0059 15.6169 10.9594 15.7057 10.9361C15.7944 10.9127 15.8878 10.9133 15.9762 10.9378C16.0646 10.9622 16.145 11.0098 16.209 11.0755C16.2731 11.1412 16.3186 11.2227 16.3409 11.3117L17.8076 17.1786C17.8293 17.2655 17.8282 17.3565 17.8043 17.4428C17.7804 17.5291 17.7346 17.6078 17.6712 17.6711C17.6079 17.7344 17.5293 17.7803 17.4429 17.8042C17.3566 17.8281 17.2656 17.8292 17.1787 17.8075L11.3118 16.3407C11.2228 16.3185 11.1413 16.273 11.0757 16.2089C11.01 16.1449 10.9625 16.0645 10.938 15.9761C10.9135 15.8877 10.9129 15.7944 10.9363 15.7056C10.9596 15.6169 11.0061 15.536 11.071 15.4711L12.1708 14.371L5.15196 7.35196ZM17.6711 54.986C17.7345 55.0493 17.7804 55.128 17.8043 55.2143C17.8282 55.3007 17.8294 55.3917 17.8076 55.4786L16.3409 61.3454C16.3186 61.4344 16.2731 61.516 16.2091 61.5817C16.145 61.6474 16.0647 61.6949 15.9762 61.7194C15.8878 61.7439 15.7944 61.7445 15.7057 61.7212C15.6169 61.6978 15.536 61.6513 15.4711 61.5864L14.371 60.4864L7.35196 67.5053C7.25472 67.6025 7.12284 67.6571 6.98534 67.6571C6.84783 67.6571 6.71596 67.6025 6.61871 67.5053L5.15196 66.0385C5.1038 65.9904 5.0656 65.9332 5.03954 65.8703C5.01348 65.8074 5.00006 65.7399 5.00006 65.6718C5.00006 65.6037 5.01348 65.5363 5.03954 65.4734C5.0656 65.4105 5.1038 65.3533 5.15196 65.3051L12.1708 58.2861L11.071 57.1861C11.0061 57.1212 10.9596 57.0403 10.9362 56.9516C10.9128 56.8628 10.9134 56.7695 10.9379 56.681C10.9624 56.5926 11.0099 56.5122 11.0756 56.4482C11.1413 56.3841 11.2228 56.3386 11.3118 56.3164L17.1787 54.8496C17.2656 54.8279 17.3566 54.8291 17.4429 54.853C17.5292 54.8769 17.6078 54.9227 17.6711 54.986ZM54.9861 17.6711C54.9227 17.6078 54.8769 17.5291 54.8529 17.4428C54.829 17.3564 54.8279 17.2654 54.8496 17.1785L56.3164 11.3116C56.3386 11.2226 56.3841 11.141 56.4482 11.0753C56.5122 11.0096 56.5926 10.9621 56.681 10.9376C56.7695 10.9131 56.8628 10.9125 56.9516 10.9359C57.0403 10.9593 57.1212 11.0058 57.1861 11.0707L58.2863 12.1708L65.3053 5.15183C65.4025 5.05461 65.5344 5 65.6719 5C65.8094 5 65.9413 5.05461 66.0385 5.15183L67.5053 6.61845C67.5534 6.66661 67.5917 6.72378 67.6177 6.78671C67.6438 6.84964 67.6572 6.91709 67.6572 6.98521C67.6572 7.05332 67.6438 7.12077 67.6177 7.1837C67.5917 7.24663 67.5534 7.30381 67.5053 7.35196L60.4864 14.371L61.5863 15.4711C61.6511 15.536 61.6976 15.6169 61.721 15.7056C61.7443 15.7944 61.7437 15.8877 61.7192 15.9761C61.6947 16.0645 61.6472 16.1449 61.5816 16.2089C61.5159 16.273 61.4344 16.3185 61.3454 16.3407L55.4785 17.8075C55.3916 17.8292 55.3005 17.8281 55.2142 17.8042C55.1279 17.7803 55.0492 17.7345 54.9859 17.6711H54.9861Z" fill="url(#paint0_linear_14430_2227)"/>
<defs>
<linearGradient id="paint0_linear_14430_2227" x1="32.1515" y1="5" x2="55.7741" y2="29.4202" gradientUnits="userSpaceOnUse">
<stop stop-color="#002698"/>
<stop offset="1" stop-color="#3263F8" stop-opacity="0.35"/>
</linearGradient>
</defs>
</svg>
