<svg width="72" height="72" viewBox="0 0 72 72" fill="none" xmlns="http://www.w3.org/2000/svg">
<g clip-path="url(#clip0_14430_2290)">
<path d="M54.2172 72L51.7398 71.5563L53.4251 61.8815C53.4682 61.6536 53.4603 61.4187 53.402 61.1943C53.3437 60.9699 53.2364 60.7616 53.0881 60.5847C52.9416 60.4021 52.7566 60.2552 52.5466 60.1548C52.3365 60.0544 52.1069 60.003 51.8746 60.0045H19.9213C19.689 60.003 19.4594 60.0544 19.2493 60.1548C19.0393 60.2552 18.8543 60.4021 18.7078 60.5847C18.5651 60.7653 18.4601 60.9734 18.3993 61.1963C18.3385 61.4192 18.323 61.6523 18.3539 61.8815L20.0392 71.5563L17.545 72L15.8597 62.3251C15.7513 61.7248 15.7752 61.1077 15.9296 60.5177C16.084 59.9278 16.3651 59.3797 16.7529 58.9125C17.1408 58.4488 17.6234 58.076 18.1675 57.8197C18.7117 57.5634 19.3043 57.4297 19.9044 57.428H51.8241C52.4242 57.4297 53.0168 57.5634 53.5609 57.8197C54.105 58.076 54.5877 58.4488 54.9756 58.9125C55.3634 59.3797 55.6445 59.9278 55.7989 60.5177C55.9533 61.1077 55.9772 61.7248 55.8688 62.3251L54.2172 72Z" fill="url(#paint0_linear_14430_2290)"/>
<path d="M37.1285 30.6899H34.6006V59.6292H37.1285V30.6899Z" fill="url(#paint1_linear_14430_2290)"/>
<path d="M35.8981 35.4506C33.5058 35.4514 31.1416 34.9275 28.9682 33.9151C26.7948 32.9026 24.8638 31.4256 23.308 29.5856C21.7521 27.7455 20.6083 25.5861 19.9553 23.2559C19.3023 20.9257 19.1555 18.4799 19.525 16.0867C19.8945 13.6936 20.7716 11.4098 22.0959 9.39258C23.4202 7.37533 25.1604 5.67241 27.1966 4.40094C29.2329 3.12947 31.517 2.31962 33.8919 2.02708C36.2668 1.73454 38.6761 1.96624 40.9541 2.70627L40.1788 5.14631C38.7858 4.6876 37.3293 4.45718 35.8644 4.46377C32.7567 4.468 29.7384 5.51743 27.2837 7.44718C24.8291 9.37694 23.0772 12.0777 22.3033 15.125C21.5293 18.1724 21.7773 21.3938 23.0081 24.283C24.239 27.1722 26.3829 29.5655 29.1032 31.087C31.8235 32.6084 34.966 33.1718 38.0368 32.6885C41.1077 32.2052 43.933 30.7027 46.0689 28.4171C48.2047 26.1314 49.53 23.1921 49.8366 20.0609C50.1432 16.9298 49.4137 13.7842 47.7627 11.1184L49.8862 9.75337C51.5549 12.4227 52.4377 15.5183 52.431 18.6774C52.4266 23.1187 50.6844 27.3772 47.5858 30.5208C44.4872 33.6644 40.2847 35.437 35.8981 35.4506Z" fill="url(#paint2_linear_14430_2290)"/>
<path d="M45.4033 8.21781C44.5914 7.45684 43.6916 6.79799 42.7236 6.25555L43.9539 4.02026C45.0896 4.66091 46.1473 5.43401 47.1054 6.3238L45.4033 8.21781Z" fill="url(#paint3_linear_14430_2290)"/>
<path d="M37.5664 25.827H29.7803V23.2676H37.5664C37.9308 23.1751 38.2542 22.962 38.4854 22.6621C38.7165 22.3623 38.842 21.9928 38.842 21.6124C38.842 21.2321 38.7165 20.8626 38.4854 20.5627C38.2542 20.2629 37.9308 20.0498 37.5664 19.9573H34.4486C33.3446 19.9573 32.2858 19.5133 31.5051 18.7229C30.7244 17.9325 30.2859 16.8605 30.2859 15.7427C30.2859 14.6249 30.7244 13.5529 31.5051 12.7625C32.2858 11.9721 33.3446 11.5281 34.4486 11.5281H42.0325V14.0876H34.4486C34.0842 14.18 33.7607 14.3931 33.5296 14.693C33.2985 14.9929 33.173 15.3623 33.173 15.7427C33.173 16.1231 33.2985 16.4925 33.5296 16.7924C33.7607 17.0923 34.0842 17.3054 34.4486 17.3978H37.5664C38.6704 17.3978 39.7292 17.8419 40.5099 18.6323C41.2905 19.4226 41.7291 20.4947 41.7291 21.6124C41.7291 22.7302 41.2905 23.8022 40.5099 24.5926C39.7292 25.383 38.6704 25.827 37.5664 25.827Z" fill="url(#paint4_linear_14430_2290)"/>
<path d="M37.1793 7.96191H34.6514V29.4104H37.1793V7.96191Z" fill="url(#paint5_linear_14430_2290)"/>
<path d="M53.9649 36.2698C53.9649 36.2698 54.5379 44.1018 50.1224 48.5723C45.7069 53.0429 37.9882 52.4457 37.9882 52.4457C37.9882 52.4457 37.4152 44.6307 41.8307 40.1602C46.2462 35.6896 53.9649 36.2698 53.9649 36.2698Z" fill="url(#paint6_linear_14430_2290)"/>
<path d="M38.7967 53.7595C38.2069 53.7595 37.8529 53.7595 37.7855 53.7595H36.6901L36.6058 52.6674C36.6058 52.3262 36.0497 44.1358 40.8191 39.3752C45.5885 34.6145 53.6106 35.0923 53.9476 35.1264H55.0262L55.1105 36.2355C55.1105 36.5768 55.6666 44.7671 50.8972 49.5278C47.1221 53.3499 41.2067 53.7595 38.7967 53.7595ZM52.5994 37.5323C50.4085 37.5323 45.5885 38.0442 42.6055 41.0644C39.6225 44.0846 39.2349 48.9647 39.1169 51.1829C41.3078 51.1829 46.1278 50.671 49.1108 47.6508C52.0938 44.6306 52.6162 39.7676 52.6499 37.5323H52.5994Z" fill="url(#paint7_linear_14430_2290)"/>
<path d="M34.3311 52.4457C34.3311 52.4457 34.9041 44.6307 30.4886 40.1602C26.0731 35.6896 18.3544 36.2698 18.3544 36.2698C18.3544 36.2698 17.7814 44.1018 22.1969 48.5723C26.6124 53.0429 34.3311 52.4457 34.3311 52.4457Z" fill="url(#paint8_linear_14430_2290)"/>
<path d="M33.4035 53.7595C31.044 53.7595 25.1286 53.3499 21.303 49.4766C16.5335 44.6477 17.0728 36.5256 17.0897 36.1843V35.0752H18.1683C18.5054 35.0752 26.5948 34.4951 31.2968 39.324C35.9988 44.1529 35.527 52.275 35.5101 52.6162V53.7083H34.4146C34.4146 53.7083 33.9933 53.7595 33.4035 53.7595ZM19.6008 37.5323C19.6008 39.7676 20.1064 44.6306 23.0894 47.6508C26.0724 50.671 30.8924 51.1488 33.0833 51.1829C33.0833 48.9647 32.5777 44.0846 29.5947 41.0644C26.6117 38.0442 21.7917 37.5835 19.6008 37.5323Z" fill="url(#paint9_linear_14430_2290)"/>
</g>
<defs>
<linearGradient id="paint0_linear_14430_2290" x1="33.1881" y1="57.428" x2="36.6248" y2="67.2149" gradientUnits="userSpaceOnUse">
<stop stop-color="#002698"/>
<stop offset="1" stop-color="#3263F8" stop-opacity="0.25"/>
</linearGradient>
<linearGradient id="paint1_linear_14430_2290" x1="35.696" y1="30.6899" x2="37.6517" y2="30.8665" gradientUnits="userSpaceOnUse">
<stop stop-color="#002698"/>
<stop offset="1" stop-color="#3263F8" stop-opacity="0.25"/>
</linearGradient>
<linearGradient id="paint2_linear_14430_2290" x1="33.6716" y1="1.9043" x2="46.3235" y2="14.8112" gradientUnits="userSpaceOnUse">
<stop stop-color="#002698"/>
<stop offset="1" stop-color="#3263F8" stop-opacity="0.25"/>
</linearGradient>
<linearGradient id="paint3_linear_14430_2290" x1="44.6224" y1="4.02026" x2="46.2012" y2="5.72403" gradientUnits="userSpaceOnUse">
<stop stop-color="#002698"/>
<stop offset="1" stop-color="#3263F8" stop-opacity="0.25"/>
</linearGradient>
<linearGradient id="paint4_linear_14430_2290" x1="35.0896" y1="11.5281" x2="40.444" y2="16.271" gradientUnits="userSpaceOnUse">
<stop stop-color="#002698"/>
<stop offset="1" stop-color="#3263F8" stop-opacity="0.25"/>
</linearGradient>
<linearGradient id="paint5_linear_14430_2290" x1="35.7468" y1="7.96191" x2="37.6896" y2="8.19862" gradientUnits="userSpaceOnUse">
<stop stop-color="#002698"/>
<stop offset="1" stop-color="#3263F8" stop-opacity="0.25"/>
</linearGradient>
<linearGradient id="paint6_linear_14430_2290" x1="44.9082" y1="36.2451" x2="51.0281" y2="42.493" gradientUnits="userSpaceOnUse">
<stop stop-color="#002698"/>
<stop offset="1" stop-color="#3263F8" stop-opacity="0.25"/>
</linearGradient>
<linearGradient id="paint7_linear_14430_2290" x1="44.6219" y1="35.0979" x2="51.6589" y2="42.3268" gradientUnits="userSpaceOnUse">
<stop stop-color="#002698"/>
<stop offset="1" stop-color="#3263F8" stop-opacity="0.25"/>
</linearGradient>
<linearGradient id="paint8_linear_14430_2290" x1="25.2744" y1="36.2451" x2="31.3943" y2="42.493" gradientUnits="userSpaceOnUse">
<stop stop-color="#002698"/>
<stop offset="1" stop-color="#3263F8" stop-opacity="0.25"/>
</linearGradient>
<linearGradient id="paint9_linear_14430_2290" x1="25.0659" y1="35.0535" x2="32.1207" y2="42.2534" gradientUnits="userSpaceOnUse">
<stop stop-color="#002698"/>
<stop offset="1" stop-color="#3263F8" stop-opacity="0.25"/>
</linearGradient>
<clipPath id="clip0_14430_2290">
<rect width="72" height="72" fill="white"/>
</clipPath>
</defs>
</svg>
