<svg width="72" height="72" viewBox="0 0 72 72" fill="none" xmlns="http://www.w3.org/2000/svg">
<path fill-rule="evenodd" clip-rule="evenodd" d="M51.1971 57.0698C52.3596 57.0714 53.4965 56.7281 54.4639 56.0833C55.4313 55.4386 56.1856 54.5213 56.6315 53.4477C57.0774 52.374 57.1948 51.1923 56.9689 50.0519C56.7429 48.9115 56.1838 47.8638 55.3622 47.0413C54.5406 46.2188 53.4935 45.6585 52.3533 45.4313C51.2132 45.2041 50.0313 45.3202 48.9572 45.765C47.883 46.2097 46.965 46.9631 46.3192 47.9298C45.6734 48.8964 45.3288 50.033 45.3291 51.1955C45.3287 52.7525 45.9466 54.2459 47.0469 55.3475C48.1473 56.449 49.6401 57.0686 51.1971 57.0698ZM60.1744 59.9831C59.3497 60.841 58.4023 61.5718 57.3632 62.1517L57.5226 65.1398L55.0511 66.0105L53.2971 63.5899L52.6162 63.692H49.746L48.1196 66.2002L45.9016 65.5624L45.825 65.5257L45.5986 65.4508V62.4498L45.1011 62.1979L42.6742 60.4439L42.4095 60.5571L39.8885 61.5138C39.2935 60.8709 38.7557 60.1773 38.2812 59.4409L40.0352 57.0268C39.4836 55.9722 39.0842 54.8448 38.8489 53.6782L35.9691 52.9096L35.8926 50.2802L38.7596 49.3602C38.926 48.183 39.2639 47.0366 39.7625 45.9574L37.8778 43.6373C38.3127 42.8744 38.8103 42.1491 39.3655 41.4688L42.2134 42.4016L45.0246 40.2394L44.8651 37.2528C45.6648 36.8869 46.4957 36.5934 47.3478 36.3758L49.0939 38.7963L52.6417 38.7022L54.2618 36.1924L56.778 36.937V39.9252C57.8434 40.4517 58.8282 41.1277 59.7024 41.9328L60.4518 41.6489L62.4944 40.8612C63.0872 41.5074 63.6208 42.2054 64.089 42.9469L62.335 45.361C62.8896 46.4143 63.2892 47.5421 63.5213 48.7096L66.4075 49.4782L66.4776 52.114L63.6346 53.0229C63.463 54.1994 63.1254 55.3456 62.6316 56.4272L64.5163 58.7473C64.0776 59.5088 63.5779 60.2335 63.0222 60.9143L60.1744 59.9831Z" fill="url(#paint0_linear_14430_2319)"/>
<path fill-rule="evenodd" clip-rule="evenodd" d="M43.0033 58.1285C43.0756 58.128 43.1453 58.1014 43.1995 58.0535C43.2311 58.0278 43.2572 57.996 43.2763 57.96C43.2954 57.924 43.3071 57.8846 43.3106 57.844C43.3142 57.8034 43.3096 57.7625 43.2971 57.7237C43.2846 57.6849 43.2644 57.6491 43.2378 57.6182C41.7399 55.8129 40.9193 53.5412 40.9177 51.1954C40.9164 50.0794 41.1029 48.9711 41.4694 47.917C41.4948 47.8391 41.4893 47.7544 41.454 47.6805C41.4186 47.6066 41.3562 47.5491 41.2796 47.52C41.2009 47.4949 41.1156 47.5013 41.0415 47.5379C40.9675 47.5745 40.9105 47.6383 40.8826 47.7161C40.2875 49.4504 40.1484 51.3085 40.4784 53.1121C40.8085 54.9157 41.5967 56.6041 42.7674 58.0153C42.7964 58.0498 42.8325 58.0777 42.8732 58.0972C42.9139 58.1167 42.9582 58.1274 43.0033 58.1285Z" fill="white"/>
<path fill-rule="evenodd" clip-rule="evenodd" d="M43.8747 43.953C43.9131 43.9537 43.9512 43.9467 43.9868 43.9325C44.0224 43.9183 44.0548 43.897 44.082 43.8701C45.0787 42.9323 46.2561 42.2075 47.5422 41.7397C47.6203 41.7106 47.6838 41.6521 47.7193 41.5767C47.7547 41.5013 47.7593 41.415 47.7319 41.3363C47.7016 41.2609 47.6436 41.1999 47.5698 41.1659C47.496 41.1318 47.412 41.1272 47.3349 41.153C45.9706 41.6523 44.7226 42.4249 43.6674 43.4236C43.6378 43.4511 43.6139 43.4842 43.5972 43.521C43.5806 43.5579 43.5715 43.5977 43.5704 43.6381C43.5694 43.6785 43.5764 43.7187 43.5912 43.7564C43.6059 43.794 43.6281 43.8284 43.6563 43.8573C43.6844 43.8871 43.7183 43.9109 43.7558 43.9273C43.7933 43.9437 43.8338 43.9525 43.8747 43.953Z" fill="white"/>
<path fill-rule="evenodd" clip-rule="evenodd" d="M53.5248 41.4546C53.5994 41.4528 53.6709 41.4243 53.7262 41.3741C53.7816 41.324 53.817 41.2557 53.8261 41.1816C53.8352 41.1075 53.8173 41.0326 53.7758 40.9706C53.7342 40.9086 53.6717 40.8636 53.5997 40.8438C52.7424 40.63 51.8619 40.5229 50.9783 40.5249C50.8962 40.5249 50.8176 40.5575 50.7596 40.6155C50.7015 40.6736 50.6689 40.7522 50.6689 40.8343C50.6689 40.9163 50.7015 40.995 50.7596 41.053C50.8176 41.111 50.8962 41.1436 50.9783 41.1436C51.809 41.1449 52.6364 41.2483 53.4419 41.4514C53.4693 41.4556 53.4971 41.4567 53.5248 41.4546Z" fill="white"/>
<path d="M17.7473 70.4998C20.1134 70.4986 22.4261 69.796 24.393 68.4809C26.36 67.1658 27.893 65.2972 28.7983 63.1111C29.7036 60.9251 29.9406 58.5198 29.4794 56.1991C29.0182 53.8784 27.8794 51.7465 26.207 50.0727C24.5345 48.399 22.4035 47.2586 20.0831 46.7956C17.7628 46.3326 15.3573 46.5678 13.1705 47.4714C10.9838 48.3751 9.11399 49.9066 7.79739 51.8726C6.48083 53.8384 5.77652 56.1504 5.77344 58.5164L17.7473 70.4998ZM17.7473 70.4998C16.1742 70.4998 14.6165 70.1897 13.1632 69.5874C11.7098 68.9851 10.3894 68.1023 9.27734 66.9894C8.16531 65.8765 7.2835 64.5554 6.68228 63.1016C6.0811 61.6478 5.77227 60.0898 5.77344 58.5167L17.7473 70.4998Z" stroke="url(#paint1_linear_14430_2319)"/>
<path fill-rule="evenodd" clip-rule="evenodd" d="M51.196 55.5439C52.0565 55.5442 52.8977 55.2893 53.6133 54.8114C54.3289 54.3336 54.8867 53.6542 55.2161 52.8593C55.5455 52.0644 55.6318 51.1896 55.464 50.3457C55.2962 49.5017 54.8819 48.7265 54.2735 48.1181C53.665 47.5096 52.8898 47.0953 52.0458 46.9275C51.2019 46.7597 50.3271 46.846 49.5322 47.1754C48.7373 47.5049 48.0579 48.0626 47.5801 48.7782C47.1022 49.4938 46.8473 50.3351 46.8477 51.1955C46.8481 52.3486 47.3063 53.4544 48.1217 54.2698C48.9371 55.0852 50.0429 55.5434 51.196 55.5439Z" fill="url(#paint2_linear_14430_2319)"/>
<path fill-rule="evenodd" clip-rule="evenodd" d="M21.8122 15.2161C23.1895 15.2149 24.5354 14.8053 25.68 14.0392C26.8245 13.2731 27.7163 12.1849 28.2425 10.9121C28.7686 9.6393 28.9057 8.23907 28.6362 6.88842C28.3667 5.53776 27.7029 4.29731 26.7286 3.32388C25.7542 2.35045 24.5132 1.68773 23.1623 1.4195C21.8114 1.15127 20.4113 1.28957 19.139 1.81692C17.8666 2.34427 16.7792 3.237 16.0142 4.38225C15.2492 5.52749 14.8408 6.87386 14.8408 8.25113C14.8429 10.0988 15.5783 11.8701 16.8854 13.176C18.1925 14.482 19.9645 15.2157 21.8122 15.2161Z" fill="url(#paint3_linear_14430_2319)"/>
<path fill-rule="evenodd" clip-rule="evenodd" d="M22.6076 8.31342C22.6158 8.20872 22.6034 8.10342 22.571 8.00352C22.5385 7.90363 22.4868 7.8111 22.4186 7.73122C22.3504 7.65134 22.2671 7.58566 22.1736 7.53796C22.08 7.49025 21.978 7.46144 21.8733 7.45317C21.7686 7.4449 21.6633 7.45733 21.5634 7.48975C21.4635 7.52218 21.371 7.57396 21.2911 7.64214C21.2112 7.71033 21.1455 7.79358 21.0978 7.88714C21.0501 7.98071 21.0213 8.08276 21.013 8.18745L16.8672 59.5399L51.3557 51.9786C51.5629 51.9342 51.744 51.8093 51.8591 51.6313C51.9743 51.4534 52.014 51.237 51.9696 51.0298C51.9252 50.8226 51.8003 50.6415 51.6224 50.5264C51.4444 50.4112 51.2281 50.3715 51.0208 50.4159L18.6228 57.518L22.6076 8.31342Z" fill="url(#paint4_linear_14430_2319)"/>
<defs>
<linearGradient id="paint0_linear_14430_2319" x1="49.1461" y1="36.1924" x2="60.4503" y2="48.103" gradientUnits="userSpaceOnUse">
<stop stop-color="#002698"/>
<stop offset="1" stop-color="#3263F8" stop-opacity="0.35"/>
</linearGradient>
<linearGradient id="paint1_linear_14430_2319" x1="16.0788" y1="46.0642" x2="25.4799" y2="55.7827" gradientUnits="userSpaceOnUse">
<stop stop-color="#002698"/>
<stop offset="1" stop-color="#3263F8" stop-opacity="0.35"/>
</linearGradient>
<linearGradient id="paint2_linear_14430_2319" x1="50.6176" y1="46.844" x2="53.8976" y2="50.2347" gradientUnits="userSpaceOnUse">
<stop stop-color="#002698"/>
<stop offset="1" stop-color="#3263F8" stop-opacity="0.35"/>
</linearGradient>
<linearGradient id="paint3_linear_14430_2319" x1="20.8771" y1="1.28613" x2="26.129" y2="6.71524" gradientUnits="userSpaceOnUse">
<stop stop-color="#002698"/>
<stop offset="1" stop-color="#3263F8" stop-opacity="0.35"/>
</linearGradient>
<linearGradient id="paint4_linear_14430_2319" x1="32.0859" y1="7.45068" x2="50.5209" y2="20.2997" gradientUnits="userSpaceOnUse">
<stop stop-color="#002698"/>
<stop offset="1" stop-color="#3263F8" stop-opacity="0.35"/>
</linearGradient>
</defs>
</svg>
