<svg width="72" height="72" viewBox="0 0 72 72" fill="none" xmlns="http://www.w3.org/2000/svg">
<g clip-path="url(#clip0_14352_1387)">
<path d="M37.6111 14.915C27.0499 14.915 17.7383 23.5035 16.8204 34.0999C15.9025 44.6962 23.7101 53.2847 34.2713 53.2847C36.6302 53.2806 38.9696 52.8569 41.1809 52.0334L53.213 55.388L49.453 46.4911C52.6496 43.1049 54.6242 38.7427 55.0621 34.0999C55.9888 23.5035 48.1745 14.915 37.6111 14.915ZM25.7405 37.2437C23.5641 37.2437 21.9495 35.5376 22.1331 33.4321C22.3167 31.3265 24.2365 29.6182 26.404 29.6182C28.5716 29.6182 30.195 31.3265 30.0115 33.4321C29.8279 35.5376 27.9235 37.2437 25.7405 37.2437ZM35.6581 37.2437C33.4817 37.2437 31.8649 35.5376 32.0485 33.4321C32.2321 31.3265 34.1453 29.6182 36.3283 29.6182C38.5113 29.6182 40.1215 31.3265 39.9379 33.4321C39.7543 35.5376 37.8412 37.2437 35.6648 37.2437H35.6581ZM45.5735 37.2437C43.3971 37.2437 41.7825 35.5376 41.9661 33.4321C42.1497 31.3265 44.0629 29.6182 46.2392 29.6182C48.4156 29.6182 50.0325 31.3265 49.8489 33.4321C49.6653 35.5376 47.7565 37.2437 45.5801 37.2437H45.5735Z" fill="url(#paint0_linear_14352_1387)"/>
<path d="M70.0801 25.6399H67.008C64.7409 12.0661 53.3282 2 38.7393 2C24.1504 2 10.9793 12.0661 6.34558 25.6399H3.27339C2.70314 25.651 2.15664 25.871 1.73697 26.2585C1.31731 26.646 1.05353 27.1741 0.995302 27.7432L0.00880369 39.0451C-0.0200837 39.3125 0.008085 39.583 0.0913674 39.8387C0.17465 40.0944 0.311156 40.3293 0.491874 40.528C0.672593 40.7267 0.893348 40.8846 1.13953 40.9912C1.38572 41.0978 1.65171 41.1506 1.91981 41.1462H4.99195C6.9184 52.6833 15.4581 61.6955 26.9416 64.1338C26.9305 64.9096 27.0751 65.6797 27.3669 66.3982C27.6587 67.1168 28.0917 67.7691 28.64 68.3162C29.1884 68.8634 29.8409 69.2942 30.5588 69.5831C31.2766 69.872 32.045 70.013 32.8183 69.9978C36.3572 69.9978 39.4691 67.1135 39.7788 63.577C40.0884 60.0404 37.4631 57.1606 33.9242 57.1606C31.0489 57.1606 28.428 59.0819 27.3995 61.7155C22.4285 60.6395 17.8861 58.1123 14.3439 54.4521C10.8017 50.792 8.41822 46.1624 7.49348 41.1462H8.54629C9.11634 41.1356 9.66283 40.9161 10.0825 40.529C10.5023 40.1419 10.7662 39.6141 10.8244 39.0451L11.8109 27.7432C11.8401 27.4756 11.8122 27.2049 11.7291 26.949C11.6459 26.693 11.5095 26.4578 11.3287 26.2588C11.148 26.0599 10.9271 25.9018 10.6807 25.7951C10.4344 25.6884 10.1682 25.6355 9.89987 25.6399H8.8449C13.2994 13.4151 25.2806 4.41834 38.5314 4.41834C51.7821 4.41834 62.1974 13.4151 64.5175 25.6399H63.4625C62.8919 25.6505 62.3448 25.8703 61.9247 26.2578C61.5046 26.6453 61.2404 27.1737 61.1822 27.7432L60.1979 39.0451C60.1691 39.3125 60.1972 39.583 60.2804 39.8387C60.3637 40.0944 60.5003 40.3293 60.681 40.528C60.8617 40.7267 61.0825 40.8846 61.3287 40.9912C61.5749 41.0978 61.8408 41.1506 62.1089 41.1462H68.7442C69.3141 41.1352 69.8604 40.9155 70.28 40.5284C70.6996 40.1414 70.9636 39.6139 71.0224 39.0451L72.0066 27.7432C72.036 27.4743 72.0077 27.2022 71.9237 26.9452C71.8397 26.6881 71.7018 26.4521 71.5194 26.2529C71.3369 26.0537 71.1141 25.8959 70.8659 25.7902C70.6177 25.6845 70.3497 25.6332 70.0801 25.6399ZM33.7163 59.57C34.2263 59.5615 34.7322 59.6618 35.2007 59.8641C35.6691 60.0665 36.0894 60.3665 36.4336 60.744C36.7778 61.1216 37.0381 61.5682 37.1973 62.0543C37.3565 62.5404 37.4109 63.0549 37.3569 63.5636C37.2438 64.6454 36.7405 65.6484 35.9417 66.3839C35.1429 67.1194 34.1037 67.5367 33.0196 67.5572C32.1542 67.5743 31.3119 67.2766 30.6484 66.719C29.9849 66.1615 29.545 65.3819 29.41 64.5243C29.3599 64.2037 29.3487 63.8781 29.3768 63.5548C29.4216 63.0518 29.5565 62.561 29.7749 62.106C30.1323 61.3578 30.6903 60.7242 31.3865 60.2763C32.0826 59.8284 32.8894 59.5838 33.7163 59.57ZM9.37349 28.0649L8.44234 38.7367H2.45061L3.38176 28.0649H9.37349ZM68.627 38.7367H62.6353L63.562 28.0649H69.5538L68.627 38.7367Z" fill="url(#paint1_linear_14352_1387)"/>
</g>
<defs>
<linearGradient id="paint0_linear_14352_1387" x1="33.3826" y1="14.915" x2="48.6469" y2="29.8824" gradientUnits="userSpaceOnUse">
<stop stop-color="#002698"/>
<stop offset="1" stop-color="#3263F8" stop-opacity="0.25"/>
</linearGradient>
<linearGradient id="paint1_linear_14352_1387" x1="31.2065" y1="2" x2="56.7521" y2="29.9697" gradientUnits="userSpaceOnUse">
<stop stop-color="#002698"/>
<stop offset="1" stop-color="#3263F8" stop-opacity="0.25"/>
</linearGradient>
<clipPath id="clip0_14352_1387">
<rect width="72" height="68" fill="white" transform="translate(0 2)"/>
</clipPath>
</defs>
</svg>
