<svg width="72" height="72" viewBox="0 0 72 72" fill="none" xmlns="http://www.w3.org/2000/svg">
<g clip-path="url(#clip0_14356_5755)">
<path d="M37.1656 64.3804H25.5158C25.0629 64.3809 24.6195 64.2473 24.2392 63.9958C23.8588 63.7442 23.5577 63.3854 23.3721 62.9626C23.1865 62.5398 23.1244 62.0711 23.1933 61.613C23.2622 61.1549 23.4592 60.727 23.7604 60.3809C23.9706 60.611 24.1699 60.8383 24.3696 61.0147C25.1438 61.6959 26.1253 62.1189 27.1216 62.3182C28.7699 62.6531 30.4679 62.4767 32.1487 62.5276C33.8295 62.5785 35.5996 62.9058 36.8534 64.0484C36.9661 64.1502 37.0705 64.2612 37.1656 64.3804Z" fill="url(#paint0_linear_14356_5755)"/>
<path d="M37.1656 59.5337H25.5158C25.0629 59.5342 24.6195 59.4006 24.2392 59.1491C23.8588 58.8975 23.5577 58.5387 23.3721 58.1159C23.1865 57.6931 23.1244 57.2244 23.1933 56.7663C23.2622 56.3082 23.4592 55.8803 23.7604 55.5342C23.9706 55.764 24.1699 55.9916 24.3696 56.168C25.1438 56.8492 26.1253 57.2719 27.1216 57.4712C28.7699 57.806 30.4679 57.6297 32.1487 57.6809C33.8295 57.7322 35.5996 58.0592 36.8534 59.2014C36.9662 59.3032 37.0706 59.4143 37.1656 59.5337Z" fill="url(#paint1_linear_14356_5755)"/>
<path d="M63.0002 39.9172C59.8502 47.5305 53.0316 52.5994 45.401 53.6749C42.9096 54.0223 40.8532 55.8539 40.0619 58.2957L34.1562 56.292L37.4243 46.2072L37.4531 46.2172C38.2388 46.4836 38.9044 47.059 39.2397 47.8352C39.5451 48.5449 40.0492 49.1461 40.6883 49.5627C41.3275 49.9794 42.0729 50.1929 42.8305 50.1762C43.5881 50.1595 44.3239 49.9134 44.9449 49.469C45.5659 49.0246 46.0443 48.4018 46.3196 47.6792C46.3339 47.6348 46.3493 47.5864 46.3686 47.5394C46.4217 47.3774 46.4658 47.2125 46.5007 47.0454C46.8587 45.2955 45.9752 43.4786 44.3949 42.7157C43.8675 42.4568 43.2889 42.3258 42.7039 42.3327C42.119 42.3397 41.5435 42.4845 41.0221 42.7559C40.6621 42.9435 40.2693 43.0563 39.8664 43.0877C39.4636 43.1191 39.0586 43.0684 38.675 42.9387L38.4998 42.8799L41.7903 32.723L51.7877 36.1152C52.3313 33.8369 51.6227 34.0427 51.3126 32.4703C50.8376 29.7485 53.2022 27.3601 55.8583 27.9298C58.1354 28.4223 59.4347 30.8089 58.7225 33.0066C57.8222 35.7861 55.8306 34.7751 55.0487 37.1889L55.0389 37.2183L63.0002 39.9172Z" fill="url(#paint2_linear_14356_5755)"/>
<path d="M39.5347 59.679H25.5147C24.8643 59.679 24.2406 59.4146 23.7807 58.944C23.3209 58.4734 23.0625 57.835 23.0625 57.1695C23.0625 56.5039 23.3209 55.8656 23.7807 55.3949C24.2406 54.9243 24.8643 54.6599 25.5147 54.6599H39.5347C40.1851 54.6599 40.8088 54.9243 41.2687 55.3949C41.7286 55.8656 41.9869 56.5039 41.9869 57.1695C41.9869 57.835 41.7286 58.4734 41.2687 58.944C40.8088 59.4146 40.1851 59.679 39.5347 59.679ZM25.5147 54.8714C24.9239 54.879 24.3598 55.1245 23.9446 55.5547C23.5294 55.985 23.2965 56.5653 23.2965 57.17C23.2965 57.7747 23.5294 58.355 23.9446 58.7853C24.3598 59.2155 24.9239 59.461 25.5147 59.4686H39.5347C39.832 59.4724 40.1271 59.4157 40.4029 59.3019C40.6786 59.1881 40.9296 59.0194 41.1411 58.8056C41.3527 58.5918 41.5207 58.3371 41.6353 58.0563C41.75 57.7756 41.809 57.4743 41.809 57.17C41.809 56.8657 41.75 56.5644 41.6353 56.2837C41.5207 56.0029 41.3527 55.7482 41.1411 55.5344C40.9296 55.3206 40.6786 55.1519 40.4029 55.0381C40.1271 54.9243 39.832 54.8676 39.5347 54.8714H25.5147Z" fill="#536FF5"/>
<path d="M39.5351 64.4857H25.5158C25.1884 64.4947 24.8625 64.4364 24.5574 64.3144C24.2524 64.1924 23.9743 64.009 23.7396 63.7752C23.5049 63.5413 23.3184 63.2617 23.191 62.9529C23.0637 62.6441 22.998 62.3123 22.998 61.9771C22.998 61.6419 23.0637 61.3101 23.191 61.0013C23.3184 60.6924 23.5049 60.4128 23.7396 60.179C23.9743 59.9452 24.2524 59.7618 24.5574 59.6398C24.8625 59.5177 25.1884 59.4595 25.5158 59.4684H39.5351C40.1739 59.4859 40.7808 59.7579 41.2265 60.2264C41.6723 60.695 41.9218 61.3231 41.9218 61.9771C41.9218 62.631 41.6723 63.2592 41.2265 63.7277C40.7808 64.1963 40.1739 64.4683 39.5351 64.4857ZM25.5158 59.6785C24.9201 59.6785 24.3489 59.9207 23.9277 60.3517C23.5065 60.7827 23.2699 61.3673 23.2699 61.9769C23.2699 62.5865 23.5065 63.1711 23.9277 63.6021C24.3489 64.0332 24.9201 64.2753 25.5158 64.2753H39.5351C40.1307 64.2753 40.702 64.0332 41.1232 63.6021C41.5443 63.1711 41.781 62.5865 41.781 61.9769C41.781 61.3673 41.5443 60.7827 41.1232 60.3517C40.702 59.9207 40.1307 59.6785 39.5351 59.6785H25.5158Z" fill="#536FF5"/>
<path d="M35.311 67.0006H29.7392C29.474 67.0008 29.2128 66.9338 28.9792 66.8054C28.7455 66.677 28.5466 66.4913 28.4003 66.2649L27.219 64.4401C27.2084 64.4242 27.2023 64.4055 27.2013 64.3863C27.2003 64.367 27.2046 64.3479 27.2136 64.3309C27.2225 64.3139 27.2359 64.2998 27.2522 64.2901C27.2685 64.2804 27.287 64.2755 27.3059 64.2759H37.7453C37.7639 64.2758 37.7821 64.281 37.7981 64.2907C37.8141 64.3004 37.8272 64.3144 37.836 64.3311C37.8448 64.3479 37.849 64.3668 37.8481 64.3858C37.8473 64.4048 37.8414 64.4232 37.8311 64.439L36.6492 66.2638C36.5032 66.4904 36.3045 66.6764 36.0709 66.805C35.8373 66.9336 35.5762 67.0008 35.311 67.0006ZM27.4961 64.4874L28.5723 66.1487C28.6997 66.3461 28.8731 66.5081 29.0767 66.62C29.2804 66.7319 29.508 66.7904 29.7392 66.7901H35.311C35.5421 66.7904 35.7698 66.732 35.9734 66.62C36.1771 66.5081 36.3504 66.3462 36.4779 66.1487L37.5537 64.4874H27.4961Z" fill="#536FF5"/>
<path d="M54.9376 27.5058C54.9566 28.3158 54.9332 29.1264 54.8675 29.9339H46.4845C46.4911 29.9038 46.4263 28.5329 47.4226 27.6578C47.8199 27.2903 48.1375 26.8415 48.3547 26.3406C48.5719 25.8396 48.684 25.2976 48.6838 24.7495C48.6838 22.4343 46.7153 20.588 44.4036 20.8533C42.6643 21.0566 41.2564 22.4852 41.0504 24.2591C40.918 25.3705 41.2273 26.503 42.0232 27.3939C42.5967 28.0977 43.057 28.6193 43.057 29.7439V29.9354H32.5251V19.155C32.4491 19.1694 31.2072 19.0116 30.1752 20.0764C29.3817 20.8963 28.2337 21.357 26.9747 21.2086C25.2354 20.9899 23.8467 19.5494 23.6484 17.7733C23.5538 16.9526 23.7153 16.1222 24.1097 15.4011C24.5042 14.6799 25.1114 14.1049 25.8445 13.7583C26.5777 13.4117 27.3991 13.3114 28.1914 13.4715C28.9837 13.6317 29.7061 14.0442 30.2554 14.65C30.541 14.9645 30.8869 15.2152 31.2716 15.3865C31.6562 15.5578 32.0713 15.646 32.4908 15.6456H32.5258V5.10547C32.8761 5.10547 33.2264 5.11335 33.5823 5.12877C45.2675 5.67908 54.6668 15.5363 54.9376 27.5058Z" fill="url(#paint3_linear_14356_5755)"/>
<path d="M54.869 30.0385H46.4845C46.471 30.0386 46.4576 30.0359 46.4451 30.0307C46.4326 30.0254 46.4212 30.0177 46.4117 30.0079C46.4021 29.9981 46.3945 29.9866 46.3893 29.9738C46.3842 29.961 46.3815 29.9473 46.3815 29.9335C46.3885 29.9034 46.323 28.4801 47.3557 27.5774C47.9421 27.0344 48.3446 26.3147 48.5051 25.5223C48.6657 24.7299 48.5759 23.9058 48.2488 23.169C47.9217 22.4323 47.3743 21.821 46.6855 21.4234C45.9967 21.0259 45.2022 20.8628 44.4169 20.9575C42.7266 21.1551 41.3545 22.5479 41.1544 24.2694C41.0259 25.3471 41.3222 26.4492 42.1003 27.3211C42.6829 28.0302 43.1607 28.5844 43.1607 29.7421V29.9335C43.1607 29.9614 43.1499 29.9881 43.1306 30.0078C43.1114 30.0275 43.0853 30.0385 43.058 30.0385H32.5251C32.5116 30.0386 32.4982 30.0359 32.4857 30.0307C32.4732 30.0254 32.4619 30.0177 32.4523 30.0079C32.4427 29.9981 32.4351 29.9866 32.4299 29.9738C32.4248 29.961 32.4221 29.9473 32.4221 29.9335V19.2604C32.0196 19.2495 31.6191 19.3228 31.2452 19.4759C30.8714 19.6291 30.5321 19.8588 30.248 20.1509C29.3929 21.0346 28.1952 21.4598 26.9628 21.3132C25.1863 21.0898 23.7493 19.606 23.5461 17.7851C23.2711 15.3114 25.1657 13.2916 27.4553 13.2916C27.9953 13.2922 28.5294 13.4068 29.0242 13.6283C29.5189 13.8497 29.9637 14.1732 30.3307 14.5786C30.5995 14.8728 30.9229 15.1093 31.282 15.2743C31.6411 15.4392 32.0286 15.5294 32.4221 15.5394V5.10504C32.4221 5.09122 32.4248 5.07753 32.4299 5.06476C32.4351 5.05199 32.4427 5.0404 32.4523 5.03064C32.4619 5.02088 32.4732 5.01315 32.4857 5.00789C32.4982 5.00264 32.5116 4.99995 32.5251 5C32.8754 5 33.2338 5.00753 33.5862 5.0233C45.3432 5.5772 54.7663 15.4516 55.0392 27.5017C55.0582 28.3151 55.0348 29.1288 54.9691 29.9396C54.9677 29.966 54.9566 29.9909 54.938 30.0092C54.9194 30.0276 54.8948 30.038 54.869 30.0385ZM46.5882 29.8281H54.774C54.8328 29.0561 54.8532 28.2816 54.835 27.5075C54.5645 15.5663 45.2276 5.7819 33.5788 5.23339C33.2636 5.21941 32.9448 5.21188 32.6291 5.21044V15.6455C32.6291 15.6734 32.6183 15.7001 32.5991 15.7198C32.5798 15.7395 32.5537 15.7506 32.5265 15.7506C32.4915 15.7434 31.162 15.7979 30.1815 14.7217C29.8355 14.3353 29.4143 14.0272 28.9451 13.8173C28.4758 13.6074 27.9688 13.5002 27.4567 13.5027C25.289 13.5027 23.4911 15.4125 23.7521 17.7622C23.9448 19.4873 25.3058 20.8934 26.9887 21.1049C28.1577 21.2444 29.2927 20.841 30.1034 20.0032C30.395 19.7006 30.7425 19.4606 31.1258 19.297C31.5091 19.1335 31.9203 19.0497 32.3356 19.0506H32.5251C32.5386 19.0506 32.5519 19.0534 32.5644 19.0586C32.5768 19.0639 32.5881 19.0717 32.5977 19.0814C32.6072 19.0912 32.6148 19.1027 32.6199 19.1155C32.6251 19.1282 32.6277 19.1419 32.6277 19.1557V29.8292H42.9547V29.7431C42.9547 28.5758 42.4012 28.018 41.9447 27.4605C41.139 26.5599 40.8118 25.3934 40.9488 24.2454C41.159 22.4281 42.6079 20.9579 44.392 20.7496C46.7714 20.4789 48.7868 22.379 48.7868 24.7502C48.7858 25.3129 48.67 25.8692 48.4468 26.3835C48.2236 26.8977 47.8979 27.3586 47.4906 27.7366C47.0082 28.1603 46.6078 28.9272 46.5882 29.8285V29.8281Z" fill="#536FF5"/>
<path d="M20.1886 39.15C19.2239 39.1527 18.2927 38.7882 17.5759 38.1276C17.1625 37.7492 16.8317 37.2859 16.6051 36.7678C16.3785 36.2498 16.2612 35.6887 16.2608 35.1211C16.259 34.5682 16.3694 34.021 16.5852 33.5141C16.801 33.0072 17.1174 32.5518 17.5143 32.1767C17.8054 31.9047 18.0393 31.5747 18.2015 31.207C18.3637 30.8393 18.4509 30.4416 18.4577 30.0382H10.1804C10.1546 30.0383 10.1298 30.0284 10.1108 30.0105C10.0918 29.9926 10.0802 29.9681 10.0781 29.9418C10.0263 29.2993 10 28.6637 10 28.0521C10 15.3462 20.1049 5.00502 32.5253 5C32.5526 5 32.5787 5.01105 32.598 5.03074C32.6173 5.05043 32.6282 5.07715 32.6283 5.10504V15.6452C32.6283 15.659 32.6256 15.6727 32.6205 15.6855C32.6153 15.6982 32.6077 15.7098 32.5981 15.7196C32.5886 15.7293 32.5772 15.7371 32.5647 15.7423C32.5522 15.7476 32.5388 15.7503 32.5253 15.7502C32.4903 15.743 31.1591 15.7947 30.1824 14.7224C29.8362 14.3358 29.4147 14.0276 28.9452 13.8177C28.4756 13.6078 27.9683 13.5007 27.4559 13.5034C25.2941 13.5034 23.4896 15.4071 23.7524 17.7618C23.9443 19.488 25.3057 20.8934 26.9889 21.1035C28.1576 21.2411 29.2933 20.84 30.1022 20.0018C30.3945 19.7 30.7424 19.4606 31.1258 19.2974C31.5091 19.1341 31.9202 19.0503 32.3354 19.0506H32.5253C32.5389 19.0506 32.5523 19.0533 32.5648 19.0586C32.5773 19.0638 32.5887 19.0716 32.5982 19.0814C32.6078 19.0912 32.6154 19.1028 32.6206 19.1157C32.6257 19.1285 32.6283 19.1422 32.6283 19.156V29.9332C32.6283 29.947 32.6257 29.9607 32.6206 29.9735C32.6154 29.9864 32.6078 29.998 32.5982 30.0078C32.5887 30.0176 32.5773 30.0253 32.5648 30.0306C32.5523 30.0359 32.5389 30.0386 32.5253 30.0386H22.0926C22.1017 30.0841 21.9875 31.2575 23.0034 32.3025C23.4184 32.7369 23.7325 33.2612 23.9226 33.8367C24.1127 34.4122 24.1737 35.024 24.1013 35.627C23.8862 37.4432 22.4366 38.9134 20.6545 39.1235C20.4998 39.1413 20.3443 39.1501 20.1886 39.15ZM10.2746 29.8288H18.5603C18.5738 29.8288 18.5872 29.8315 18.5997 29.8367C18.6122 29.842 18.6236 29.8497 18.6331 29.8595C18.6427 29.8692 18.6503 29.8808 18.6555 29.8936C18.6606 29.9064 18.6633 29.92 18.6633 29.9339V29.9697C18.6635 30.4136 18.574 30.8526 18.4004 31.2593C18.2267 31.6661 17.9728 32.0316 17.6544 32.333C17.2783 32.6884 16.9785 33.1199 16.774 33.6002C16.5695 34.0805 16.4647 34.599 16.4665 35.1229C16.4668 35.6608 16.578 36.1926 16.7928 36.6836C17.0076 37.1745 17.3213 37.6136 17.7133 37.972C18.5151 38.7055 19.5493 39.0407 20.63 38.9156C22.3182 38.7166 23.6917 37.3238 23.8956 35.6037C24.0298 34.4303 23.6504 33.2813 22.8552 32.452C22.2313 31.8067 21.8873 30.9821 21.8873 30.1314V29.9349C21.8873 29.9071 21.8981 29.8804 21.9173 29.8607C21.9366 29.841 21.9627 29.8299 21.9899 29.8299H32.423V19.2611C32.0206 19.2509 31.6203 19.3245 31.2465 19.4773C30.8727 19.6302 30.5331 19.8591 30.2483 20.1502C29.3952 21.0343 28.1979 21.458 26.9651 21.3128C25.1872 21.0909 23.7509 19.6074 23.5485 17.7851C23.2731 15.3222 25.1557 13.2926 27.4562 13.2926C27.997 13.2897 28.5324 13.4027 29.028 13.6242C29.5236 13.8457 29.9683 14.171 30.3337 14.579C30.6008 14.8747 30.9236 15.1122 31.2826 15.2771C31.6417 15.442 32.0296 15.531 32.423 15.5387V5.2108C20.162 5.27282 10.2056 15.4975 10.2056 28.0521C10.2056 28.6271 10.2291 29.224 10.2753 29.8281L10.2746 29.8288Z" fill="#536FF5"/>
<path d="M41.3944 42.739C41.3324 44.8509 39.6313 46.5391 37.556 46.5323C37.0217 46.5318 36.4934 46.4163 36.0056 46.1932C35.5177 45.9701 35.0812 45.6444 34.7244 45.2374C33.7915 44.1791 32.5255 44.2777 32.4954 44.2716L32.4712 54.8117L26.2457 54.7967C26.2366 54.7655 26.3764 50.6021 22.525 48.6303C15.6665 45.1281 10.8112 38.1325 10.1816 29.9248L18.5622 29.9449V29.9807C18.5623 30.4098 18.4751 30.8343 18.3062 31.227C18.1373 31.6198 17.8905 31.9724 17.5814 32.2623C16.9883 32.8238 16.5839 33.5628 16.4258 34.3737C16.2678 35.1845 16.3642 36.0257 16.7013 36.7772C17.0384 37.5286 17.599 38.1517 18.3029 38.5576C19.0068 38.9635 19.818 39.1312 20.6207 39.037C22.3569 38.838 23.7714 37.4126 23.9837 35.6409C24.0563 35.0541 23.9986 34.4582 23.8149 33.8975C23.6313 33.3367 23.3264 32.8256 22.923 32.4021C22.3407 31.7955 21.988 30.9982 21.9897 30.151V29.956L32.5258 29.9811L32.5013 40.7636C32.5714 40.7503 33.809 40.907 34.8533 39.844C35.2677 39.4198 35.7714 39.0982 36.3259 38.904C36.8804 38.7097 37.471 38.6479 38.0524 38.7233C39.7973 38.942 41.3997 40.4481 41.3944 42.739Z" fill="url(#paint4_linear_14356_5755)"/>
<path d="M32.4714 54.919L26.2459 54.904C26.2324 54.9039 26.2191 54.9012 26.2066 54.8958C26.1942 54.8905 26.1829 54.8827 26.1734 54.873C26.1639 54.8632 26.1564 54.8516 26.1513 54.8388C26.1462 54.826 26.1436 54.8124 26.1436 54.7986C26.1489 52.2105 24.7451 49.887 22.4797 48.728C15.4446 45.135 10.6929 37.9344 10.0785 29.936C10.0773 29.9216 10.0791 29.907 10.0837 29.8933C10.0884 29.8795 10.0958 29.8669 10.1054 29.8563C10.1151 29.8456 10.1268 29.8371 10.1398 29.8314C10.1528 29.8256 10.1669 29.8227 10.1811 29.8228L18.5621 29.8425C18.5756 29.8425 18.5889 29.8453 18.6013 29.8506C18.6138 29.8559 18.625 29.8637 18.6345 29.8735C18.644 29.8833 18.6516 29.8949 18.6567 29.9077C18.6618 29.9204 18.6644 29.9341 18.6644 29.9479V29.9837C18.6632 30.4274 18.5723 30.8661 18.3975 31.2721C18.2227 31.6782 17.9676 32.0428 17.6484 32.3431C17.2716 32.6981 16.9709 33.1293 16.7653 33.6094C16.5597 34.0895 16.4538 34.6081 16.4542 35.1323C16.4535 35.6703 16.5637 36.2024 16.7776 36.6939C16.9914 37.1854 17.3042 37.6252 17.6954 37.9845C18.0865 38.3463 18.5487 38.6181 19.051 38.7819C19.5533 38.9456 20.0841 38.9975 20.6076 38.9339C22.2968 38.7399 23.6739 37.3503 23.8816 35.6291C23.9516 35.0581 23.8952 34.4783 23.7165 33.9326C23.5378 33.3869 23.2414 32.8893 22.8492 32.4768C22.2264 31.8283 21.8848 31.0022 21.8869 30.1519V29.9568C21.8869 29.943 21.8896 29.9294 21.8947 29.9167C21.8999 29.9039 21.9075 29.8924 21.917 29.8826C21.9805 29.8174 21.3121 29.8618 32.526 29.8769C32.5533 29.877 32.5794 29.8881 32.5986 29.9079C32.6179 29.9276 32.6287 29.9544 32.6287 29.9823L32.6045 40.6597C33.007 40.6694 33.4073 40.5957 33.7812 40.4429C34.1552 40.2901 34.495 40.0614 34.7803 39.7706C35.2056 39.335 35.7228 39.0048 36.2921 38.8053C36.8615 38.6058 37.4679 38.5424 38.0649 38.6198C39.8735 38.8486 41.4955 40.4156 41.4955 42.7323C41.4314 44.931 39.7047 46.64 37.5629 46.64H37.5538C37.0052 46.6386 36.463 46.5196 35.9621 46.2905C35.4613 46.0614 35.013 45.7273 34.6461 45.3099C34.1413 44.7363 33.3973 44.4011 32.5961 44.3803L32.5719 54.8147C32.5717 54.8421 32.5611 54.8683 32.5423 54.8878C32.5236 54.9072 32.4981 54.9185 32.4714 54.919ZM26.3485 54.6935L32.3684 54.7082L32.3925 44.2728C32.3925 44.259 32.3952 44.2453 32.4004 44.2325C32.4056 44.2197 32.4132 44.2081 32.4227 44.1984C32.4323 44.1886 32.4437 44.1809 32.4562 44.1756C32.4686 44.1704 32.482 44.1677 32.4955 44.1677C32.5306 44.1749 33.8768 44.1211 34.8006 45.1683C35.1483 45.5638 35.5731 45.8804 36.0477 46.0975C36.5222 46.3146 37.036 46.4275 37.5559 46.4288H37.5643C39.594 46.4288 41.2303 44.8091 41.2913 42.7362C41.3032 40.5565 39.7677 39.0436 38.0414 38.8285C37.4754 38.7552 36.9006 38.8154 36.3608 39.0044C35.8211 39.1933 35.3306 39.5061 34.9271 39.9187C33.8604 41.0064 32.573 40.8562 32.5025 40.8695C32.4889 40.8695 32.4753 40.8667 32.4627 40.8612C32.4501 40.8558 32.4386 40.8478 32.4291 40.8378C32.4195 40.8278 32.412 40.8159 32.407 40.8029C32.402 40.7898 32.3996 40.7759 32.3999 40.7619L32.4241 30.0848L22.094 30.0601V30.1501C22.0922 30.9445 22.4131 31.7178 22.9978 32.3269C23.4115 32.762 23.7243 33.2868 23.9129 33.8624C24.1015 34.438 24.1611 35.0497 24.0873 35.6521C23.868 37.469 22.4145 38.936 20.6317 39.1404C19.4932 39.2698 18.4034 38.9138 17.5595 38.1391C17.1464 37.7596 16.8163 37.2953 16.5907 36.7764C16.365 36.2574 16.2489 35.6956 16.25 35.1276C16.2495 34.5744 16.3614 34.0272 16.5785 33.5205C16.7956 33.0139 17.1132 32.559 17.5111 32.1846C17.8004 31.9117 18.0332 31.5822 18.1956 31.2155C18.3581 30.8489 18.447 30.4525 18.457 30.05L10.2918 30.0303C10.9357 37.9103 15.632 44.9937 22.5697 48.5365C24.8786 49.7207 26.3191 52.0707 26.3485 54.6921V54.6935Z" fill="#536FF5"/>
<path d="M39.9216 62.1283C39.7704 62.1283 39.6227 62.0824 39.4969 61.9964C39.3712 61.9105 39.2733 61.7883 39.2154 61.6453C39.1576 61.5024 39.1424 61.3451 39.1719 61.1934C39.2014 61.0416 39.2742 60.9022 39.3811 60.7928C39.488 60.6834 39.6242 60.6089 39.7725 60.5788C39.9208 60.5486 40.0745 60.5641 40.2141 60.6233C40.3538 60.6825 40.4732 60.7827 40.5572 60.9114C40.6412 61.04 40.686 61.1913 40.686 61.346C40.6857 61.5534 40.6051 61.7522 40.4618 61.8988C40.3185 62.0455 40.1243 62.128 39.9216 62.1283ZM39.9216 60.8645C39.8286 60.8645 39.7376 60.8927 39.6602 60.9456C39.5829 60.9986 39.5226 61.0738 39.487 61.1617C39.4513 61.2497 39.442 61.3465 39.4602 61.4399C39.4783 61.5333 39.5231 61.6191 39.5889 61.6864C39.6547 61.7538 39.7386 61.7996 39.8298 61.8182C39.9211 61.8368 40.0157 61.8273 40.1017 61.7908C40.1876 61.7544 40.2611 61.6927 40.3128 61.6135C40.3645 61.5343 40.3921 61.4412 40.3921 61.346C40.392 61.2183 40.3424 61.0959 40.2542 61.0056C40.166 60.9154 40.0464 60.8646 39.9216 60.8645Z" fill="#536FF5"/>
</g>
<defs>
<linearGradient id="paint0_linear_14356_5755" x1="29.2325" y1="60.3809" x2="30.0072" y2="63.1842" gradientUnits="userSpaceOnUse">
<stop stop-color="#002698"/>
<stop offset="1" stop-color="#3263F8" stop-opacity="0.35"/>
</linearGradient>
<linearGradient id="paint1_linear_14356_5755" x1="29.2325" y1="55.5342" x2="30.0072" y2="58.3375" gradientUnits="userSpaceOnUse">
<stop stop-color="#002698"/>
<stop offset="1" stop-color="#3263F8" stop-opacity="0.35"/>
</linearGradient>
<linearGradient id="paint2_linear_14356_5755" x1="46.6553" y1="27.845" x2="58.1395" y2="39.0904" gradientUnits="userSpaceOnUse">
<stop stop-color="#002698"/>
<stop offset="1" stop-color="#3263F8" stop-opacity="0.35"/>
</linearGradient>
<linearGradient id="paint3_linear_14356_5755" x1="37.1949" y1="5.10547" x2="46.2407" y2="16.9016" gradientUnits="userSpaceOnUse">
<stop stop-color="#002698"/>
<stop offset="1" stop-color="#3263F8" stop-opacity="0.35"/>
</linearGradient>
<linearGradient id="paint4_linear_14356_5755" x1="23.7072" y1="29.9248" x2="32.7872" y2="41.6973" gradientUnits="userSpaceOnUse">
<stop stop-color="#002698"/>
<stop offset="1" stop-color="#3263F8" stop-opacity="0.35"/>
</linearGradient>
<clipPath id="clip0_14356_5755">
<rect width="53" height="62" fill="white" transform="translate(10 5)"/>
</clipPath>
</defs>
</svg>
