<svg width="72" height="72" viewBox="0 0 72 72" fill="none" xmlns="http://www.w3.org/2000/svg">
<path d="M37.8084 50.6723C37.7448 50.6721 37.6821 50.6583 37.6246 50.6317C37.5692 50.6045 37.5203 50.5663 37.481 50.5196L20.7901 30.8185C20.722 30.7393 20.6862 30.6383 20.6897 30.5349C20.6931 30.4315 20.7355 30.333 20.8088 30.2582C23.1539 27.8435 25.6474 25.5703 28.2755 23.4511C44.1465 10.6608 63.1593 6.4959 66.6901 10.6538C68.4462 12.7272 67.2989 18.0212 63.6977 24.4738C61.3572 28.6667 55.9668 36.8803 46.1797 44.7758C43.5868 46.8667 40.8749 48.8128 38.0568 50.605C37.9826 50.6507 37.8962 50.6741 37.8084 50.6723ZM21.6976 30.5706L37.8946 49.6944C40.5709 47.9775 43.1493 46.1194 45.6183 44.1286C55.3006 36.3227 60.6234 28.2114 62.9338 24.0717C66.2593 18.1137 67.5 12.9373 66.0195 11.1904C64.7703 9.7152 60.0663 9.24168 52.3785 11.507C47.7219 12.8771 38.4704 16.3373 28.8383 24.1026C26.3312 26.1213 23.9469 28.2809 21.6976 30.5706Z" fill="url(#paint0_linear_14352_1287)"/>
<path d="M58.5343 18.7245C58.9067 18.7245 59.2706 18.6168 59.5802 18.4149C59.8897 18.2131 60.131 17.9263 60.2735 17.5907C60.416 17.2551 60.4533 16.8858 60.3806 16.5296C60.308 16.1733 60.1287 15.846 59.8654 15.5892C59.6022 15.3323 59.2667 15.1574 58.9016 15.0866C58.5364 15.0157 58.1579 15.0521 57.8139 15.1911C57.47 15.3301 57.176 15.5655 56.9691 15.8675C56.7623 16.1695 56.6519 16.5246 56.6519 16.8879C56.6519 17.375 56.8502 17.8421 57.2032 18.1865C57.5562 18.531 58.0351 18.7245 58.5343 18.7245Z" fill="url(#paint1_linear_14352_1287)"/>
<path d="M58.5375 19.1448C58.4632 19.1463 58.3888 19.143 58.3149 19.135C57.7114 19.08 57.1538 18.7969 56.7614 18.3463C56.3689 17.8956 56.1727 17.313 56.2145 16.7231C56.2564 16.1331 56.5331 15.5825 56.9855 15.1889C57.4378 14.7953 58.0301 14.5899 58.6356 14.6166C59.2411 14.6432 59.8119 14.8999 60.2261 15.3317C60.6403 15.7635 60.865 16.3362 60.8522 16.9274C60.8394 17.5186 60.5901 18.0816 60.1576 18.4959C59.7251 18.9102 59.1436 19.1431 58.5375 19.1448ZM58.5375 15.4716C58.1545 15.4713 57.7866 15.617 57.5122 15.8777C57.2379 16.1384 57.0788 16.4934 57.0691 16.8669C57.0593 17.2404 57.1996 17.6029 57.46 17.8768C57.7204 18.1508 58.0803 18.3146 58.4628 18.3333C58.8453 18.3519 59.2201 18.224 59.5073 17.9767C59.7944 17.7294 59.971 17.3825 59.9995 17.0099C60.028 16.6372 59.906 16.2685 59.6597 15.9824C59.4134 15.6963 59.0622 15.5155 58.6811 15.4786C58.6251 15.4786 58.5777 15.4716 58.5375 15.4716Z" fill="url(#paint2_linear_14352_1287)"/>
<path d="M49.6377 26.7418C50.1716 26.7418 50.6935 26.5873 51.1375 26.2979C51.5814 26.0085 51.9274 25.5972 52.1317 25.116C52.3361 24.6347 52.3895 24.1052 52.2853 23.5943C52.1812 23.0834 51.9241 22.6141 51.5465 22.2458C51.169 21.8774 50.688 21.6266 50.1644 21.525C49.6407 21.4234 49.0979 21.4755 48.6047 21.6748C48.1114 21.8742 47.6898 22.2118 47.3932 22.6449C47.0966 23.078 46.9382 23.5872 46.9382 24.1081C46.9382 24.4539 47.0081 24.7964 47.1437 25.116C47.2794 25.4355 47.4782 25.7258 47.7289 25.9704C47.9796 26.215 48.2771 26.409 48.6047 26.5413C48.9322 26.6737 49.2832 26.7418 49.6377 26.7418Z" fill="url(#paint3_linear_14352_1287)"/>
<path d="M49.6435 27.1622C49.5427 27.1645 49.442 27.1598 49.3419 27.1482C48.6214 27.0799 47.9474 26.7702 47.4346 26.2717C46.9219 25.7732 46.6021 25.1167 46.5296 24.414C46.4572 23.7113 46.6366 23.0059 47.0374 22.4177C47.4381 21.8296 48.0354 21.3951 48.7276 21.1883C49.4197 20.9815 50.164 21.0151 50.8335 21.2835C51.5031 21.5518 52.0567 22.0383 52.4 22.66C52.7433 23.2818 52.8552 24.0004 52.7165 24.6936C52.5778 25.3867 52.1971 26.0116 51.6393 26.4617C51.0785 26.9158 50.3723 27.1637 49.6435 27.1622ZM49.6435 21.8947C49.089 21.8971 48.5548 22.0988 48.1433 22.4613C47.7318 22.8239 47.4717 23.3217 47.4129 23.8597C47.3541 24.3976 47.5007 24.9378 47.8246 25.3768C48.1486 25.8159 48.627 26.123 49.1686 26.2393C49.7101 26.3557 50.2765 26.2731 50.7595 26.0075C51.2426 25.7418 51.6082 25.3117 51.7864 24.7994C51.9647 24.2872 51.9431 23.7288 51.7257 23.2311C51.5084 22.7334 51.1106 22.3314 50.6084 22.1021C50.3063 21.9645 49.9768 21.8937 49.6435 21.8947Z" fill="url(#paint4_linear_14352_1287)"/>
<path d="M38.9284 36.7627C39.7517 36.7614 40.556 36.5219 41.2399 36.0747C41.9237 35.6274 42.4563 34.9924 42.7704 34.25C43.0845 33.5075 43.1659 32.6908 43.0044 31.9032C42.8429 31.1156 42.4458 30.3924 41.8631 29.8249C41.2805 29.2574 40.5385 28.8712 39.731 28.715C38.9234 28.5588 38.0865 28.6397 37.326 28.9474C36.5655 29.2551 35.9156 29.7758 35.4584 30.4437C35.0011 31.1117 34.7571 31.8969 34.7571 32.7001C34.7571 33.2342 34.865 33.7631 35.0748 34.2564C35.2845 34.7498 35.5918 35.198 35.9793 35.5753C36.3667 35.9526 36.8266 36.2517 37.3326 36.4555C37.8387 36.6593 38.3809 36.7637 38.9284 36.7627Z" fill="url(#paint5_linear_14352_1287)"/>
<path d="M38.933 37.176C37.8513 37.1758 36.8043 36.8031 35.9765 36.1238C35.1487 35.4444 34.5931 34.5019 34.4075 33.4622C34.2219 32.4225 34.4183 31.3522 34.962 30.4399C35.5057 29.5275 36.3619 28.8315 37.3798 28.4745C38.3978 28.1175 39.5122 28.1223 40.5269 28.4881C41.5415 28.8539 42.3914 29.5572 42.9268 30.4742C43.4622 31.3913 43.6489 32.4632 43.4539 33.5013C43.2589 34.5393 42.6947 35.477 41.8608 36.1492C41.0376 36.8144 40.0019 37.1776 38.933 37.176ZM38.9229 29.0381C37.9435 29.0385 37.003 29.4124 36.3023 30.0802C35.6017 30.748 35.1965 31.6566 35.1732 32.6119C35.15 33.5672 35.5106 34.4936 36.178 35.193C36.8454 35.8924 37.7666 36.3095 38.745 36.3551C39.7233 36.4008 40.6812 36.0713 41.414 35.4372C42.1467 34.8031 42.5962 33.9146 42.6665 32.9614C42.7368 32.0083 42.4223 31.0661 41.7901 30.3362C41.158 29.6063 40.2583 29.1464 39.2833 29.055C39.1627 29.0437 39.0421 29.0381 38.9229 29.0381Z" fill="url(#paint6_linear_14352_1287)"/>
<path d="M44.5516 13.9684L37.4368 12.0996C35.3357 11.5474 33.1299 11.4926 31.0028 11.9398C28.8757 12.3869 26.8887 13.323 25.2072 14.6703L10.7405 26.2558L25.3723 26.48L44.5516 13.9684Z" fill="url(#paint7_linear_14352_1287)"/>
<path d="M37.8086 50.252L30.6291 41.7709L29.4301 40.3546L20.9999 30.4011C20.9999 30.4011 14.9304 29.7469 13.4744 30.9152C6.63375 36.3984 4.5 48.2263 4.5 48.2263C4.5 48.2263 18.1152 40.4989 22.6326 45.8321C26.8311 50.7928 16.9234 62.8967 16.9234 62.8967C16.9234 62.8967 31.7893 61.7983 35.8773 57.3659C37.1337 55.9972 37.8086 50.252 37.8086 50.252Z" fill="url(#paint8_linear_14352_1287)"/>
<path d="M58.9533 30.9712L59.4932 38.1411C59.6525 40.2584 59.2916 42.3822 58.4405 44.3361C57.5894 46.29 56.2726 48.0174 54.5996 49.375L40.2104 61.0544L42.7434 46.9934L58.9533 30.9712Z" fill="url(#paint9_linear_14352_1287)"/>
<path d="M23.9595 27.8108L23.2947 28.3459L40.57 48.7404L41.2334 48.2053L23.9595 27.8108Z" fill="url(#paint10_linear_14352_1287)"/>
<defs>
<linearGradient id="paint0_linear_14352_1287" x1="40.9739" y1="9.10059" x2="56.4765" y2="27.146" gradientUnits="userSpaceOnUse">
<stop stop-color="#002698"/>
<stop offset="1" stop-color="#3263F8" stop-opacity="0.25"/>
</linearGradient>
<linearGradient id="paint1_linear_14352_1287" x1="58.2833" y1="15.0513" x2="59.6666" y2="16.517" gradientUnits="userSpaceOnUse">
<stop stop-color="#002698"/>
<stop offset="1" stop-color="#3263F8" stop-opacity="0.25"/>
</linearGradient>
<linearGradient id="paint2_linear_14352_1287" x1="58.2213" y1="14.6143" x2="59.9276" y2="16.4221" gradientUnits="userSpaceOnUse">
<stop stop-color="#002698"/>
<stop offset="1" stop-color="#3263F8" stop-opacity="0.25"/>
</linearGradient>
<linearGradient id="paint3_linear_14352_1287" x1="49.2778" y1="21.4744" x2="51.2615" y2="23.5762" gradientUnits="userSpaceOnUse">
<stop stop-color="#002698"/>
<stop offset="1" stop-color="#3263F8" stop-opacity="0.25"/>
</linearGradient>
<linearGradient id="paint4_linear_14352_1287" x1="49.2268" y1="21.0544" x2="51.5272" y2="23.4917" gradientUnits="userSpaceOnUse">
<stop stop-color="#002698"/>
<stop offset="1" stop-color="#3263F8" stop-opacity="0.25"/>
</linearGradient>
<linearGradient id="paint5_linear_14352_1287" x1="38.366" y1="28.6375" x2="41.4259" y2="31.8797" gradientUnits="userSpaceOnUse">
<stop stop-color="#002698"/>
<stop offset="1" stop-color="#3263F8" stop-opacity="0.25"/>
</linearGradient>
<linearGradient id="paint6_linear_14352_1287" x1="38.3216" y1="28.2102" x2="41.6981" y2="31.7878" gradientUnits="userSpaceOnUse">
<stop stop-color="#002698"/>
<stop offset="1" stop-color="#3263F8" stop-opacity="0.25"/>
</linearGradient>
<linearGradient id="paint7_linear_14352_1287" x1="25.392" y1="11.6406" x2="29.4192" y2="21.1263" gradientUnits="userSpaceOnUse">
<stop stop-color="#002698"/>
<stop offset="1" stop-color="#3263F8" stop-opacity="0.25"/>
</linearGradient>
<linearGradient id="paint8_linear_14352_1287" x1="18.9337" y1="30.2185" x2="31.2438" y2="43.1897" gradientUnits="userSpaceOnUse">
<stop stop-color="#002698"/>
<stop offset="1" stop-color="#3263F8" stop-opacity="0.25"/>
</linearGradient>
<linearGradient id="paint9_linear_14352_1287" x1="48.5822" y1="30.9712" x2="59.0404" y2="37.9142" gradientUnits="userSpaceOnUse">
<stop stop-color="#002698"/>
<stop offset="1" stop-color="#3263F8" stop-opacity="0.25"/>
</linearGradient>
<linearGradient id="paint10_linear_14352_1287" x1="31.0681" y1="27.8108" x2="38.9058" y2="34.7552" gradientUnits="userSpaceOnUse">
<stop stop-color="#002698"/>
<stop offset="1" stop-color="#3263F8" stop-opacity="0.25"/>
</linearGradient>
</defs>
</svg>
