<svg width="72" height="72" viewBox="0 0 72 72" fill="none" xmlns="http://www.w3.org/2000/svg">
<g clip-path="url(#clip0_14352_1364)">
<path d="M42.2811 62.1101C42.1909 61.9829 42.1425 61.8315 42.1425 61.6764C42.1425 61.5212 42.1909 61.3698 42.2811 61.2427C42.5299 60.9025 42.6668 60.4951 42.6733 60.0756C42.6733 58.1727 39.6853 56.6313 35.9998 56.6313C32.3143 56.6313 29.3264 58.1727 29.3264 60.0756C29.3328 60.4951 29.4697 60.9025 29.7186 61.2427C29.8081 61.3701 29.8561 61.5214 29.8561 61.6764C29.8561 61.8314 29.8081 61.9827 29.7186 62.1101C29.4696 62.4496 29.3326 62.8566 29.3264 63.2756C29.3264 64.1779 29.9999 64.9993 31.0944 65.6146C31.0691 65.7184 31.0561 65.8249 31.0558 65.9317C31.0558 67.3398 33.2675 68.4816 35.995 68.4816C38.7226 68.4816 40.9326 67.3398 40.9326 65.9317C40.9328 65.8249 40.9204 65.7185 40.8956 65.6146C41.995 64.9993 42.6636 64.1779 42.6636 63.2756C42.6602 62.8576 42.5266 62.4507 42.2811 62.1101Z" fill="white"/>
<path d="M35.9999 69C32.9332 69 30.5352 67.6505 30.5352 65.9268V65.8872C29.4101 65.1736 28.7993 64.2554 28.7993 63.2754C28.8037 62.7503 28.9721 62.2392 29.2815 61.8118C29.3099 61.7718 29.3251 61.7242 29.3251 61.6754C29.3251 61.6266 29.3099 61.579 29.2815 61.5391C28.9719 61.1118 28.8035 60.6006 28.7993 60.0754C28.7993 57.8554 31.964 56.1111 36.0047 56.1111C40.0454 56.1111 43.2086 57.8554 43.2086 60.0754C43.2037 60.6005 43.0354 61.1115 42.7264 61.5391C42.6974 61.5791 42.6819 61.6271 42.6819 61.6762C42.6819 61.7254 42.6974 61.7734 42.7264 61.8134C43.0356 62.2403 43.2039 62.7508 43.2086 63.2754C43.2086 64.2554 42.5962 65.1783 41.4727 65.8872C41.4735 65.9004 41.4735 65.9136 41.4727 65.9268C41.4695 67.6505 39.0666 69 35.9999 69ZM35.9999 57.1545C32.6696 57.1545 29.8569 58.4929 29.8569 60.0754C29.8642 60.3884 29.9685 60.6917 30.1559 60.9444C30.3074 61.1589 30.3887 61.414 30.3887 61.6754C30.3887 61.9369 30.3074 62.192 30.1559 62.4065C29.9685 62.6592 29.8642 62.9625 29.8569 63.2754C29.8569 63.9478 30.3905 64.617 31.3613 65.1577L31.7069 65.3512L31.6169 65.7333C31.6014 65.7967 31.5933 65.8616 31.5928 65.9268C31.5928 66.8782 33.4026 67.9518 35.9999 67.9518C38.5973 67.9518 40.4071 66.8846 40.4071 65.9268C40.4065 65.8616 40.3984 65.7967 40.383 65.7333L40.293 65.3512L40.6385 65.1577C41.6029 64.617 42.1413 63.9478 42.1413 63.2754C42.1349 62.9623 42.0304 62.6588 41.8424 62.4065C41.6921 62.1915 41.6116 61.9366 41.6116 61.6754C41.6116 61.4143 41.6921 61.1594 41.8424 60.9444C42.0306 60.6922 42.1351 60.3886 42.1413 60.0754C42.1413 58.4929 39.3286 57.1545 35.9999 57.1545Z" fill="url(#paint0_linear_14352_1364)"/>
<path d="M54.1156 33.6619C54.1156 23.9033 45.8847 15.5845 35.9936 15.5845C26.1024 15.5845 17.9808 23.6828 17.9149 33.4224C17.8811 38.381 20.3065 42.9939 23.6111 46.2225C26.0056 48.5385 27.722 51.4492 28.5792 54.6475L28.6194 54.8061C29.0176 56.3181 29.9132 57.6568 31.1658 58.6125C32.4183 59.5681 33.9569 60.0866 35.5403 60.0866H36.8759C38.4593 60.0866 39.9979 59.5681 41.2505 58.6125C42.503 57.6568 43.3986 56.3181 43.7969 54.8061L43.821 54.7126C44.6451 51.5239 46.3363 48.6179 48.7119 46.3081C50.4251 44.6647 51.7863 42.6984 52.7145 40.526C53.6428 38.3536 54.1192 36.0194 54.1156 33.6619Z" fill="url(#paint1_linear_14352_1364)"/>
<path d="M36.8726 60.602H35.537C33.8361 60.6016 32.1834 60.0446 30.8379 59.0181C29.4923 57.9917 28.53 56.5538 28.1017 54.9298L28.0615 54.7712C27.2293 51.6651 25.5635 48.8379 23.2397 46.5872C19.4867 42.9226 17.3538 38.1194 17.3844 33.4097C17.4535 23.288 25.8017 15.0532 35.995 15.0532C46.1064 15.0532 54.6394 23.5734 54.6394 33.6587C54.6475 36.0863 54.159 38.4906 53.2031 40.7276C52.2473 42.9646 50.8438 44.9883 49.0767 46.6776C46.7709 48.9189 45.1292 51.7388 44.3288 54.8331L44.3046 54.9266C43.8771 56.5507 42.9155 57.9889 41.5705 59.0159C40.2256 60.0429 38.5733 60.6008 36.8726 60.602ZM35.9902 16.1046C26.3787 16.1046 18.5062 23.8747 18.442 33.4208C18.413 37.8498 20.4318 42.3771 23.9822 45.8451C26.4428 48.2288 28.2072 51.2223 29.0902 54.5111L29.1304 54.6697C29.4993 56.0691 30.3285 57.3081 31.4879 58.1925C32.6473 59.077 34.0714 59.5569 35.537 59.557H36.8726C38.3382 59.5571 39.7625 59.0773 40.9219 58.1928C42.0814 57.3084 42.9105 56.0692 43.2792 54.6697L43.3049 54.5762C44.1527 51.2969 45.8936 48.3088 48.3389 45.9355C50.004 44.3429 51.3265 42.4355 52.2273 40.3272C53.1282 38.2189 53.5889 35.953 53.5819 33.665C53.5819 24.1443 45.5262 16.1046 35.9902 16.1046Z" fill="url(#paint2_linear_14352_1364)"/>
<path d="M37.0077 58.0711C36.938 58.0709 36.8691 58.0572 36.8048 58.0307C36.7406 58.0042 36.6822 57.9655 36.6331 57.9167C36.584 57.868 36.5451 57.8102 36.5186 57.7466C36.4922 57.683 36.4787 57.6149 36.4789 57.5462C36.5191 47.9937 42.1638 37.2266 43.2954 35.1651C43.9383 33.9774 44.1954 33.0133 44.0588 32.2188C43.8579 31.0501 43.2552 30.2985 42.2731 29.9877C41.4215 29.7481 40.5118 29.8098 39.7015 30.1621C40.923 31.483 41.717 33.5255 41.1754 35.3951C41.0658 35.7795 40.8454 36.1243 40.5409 36.3875C40.2365 36.6507 39.8611 36.821 39.4604 36.8777C38.9781 36.954 38.4838 36.8944 38.0343 36.7059C37.5848 36.5174 37.1983 36.2076 36.9193 35.8121C36.4371 35.1318 35.8537 33.5921 37.3757 30.9455C37.5487 30.6434 37.7569 30.3624 37.9962 30.1082C37.5525 29.8456 37.0559 29.6822 36.5413 29.6296C36.0267 29.577 35.5067 29.6364 35.0179 29.8037C34.7574 29.9008 34.5105 30.0303 34.2833 30.1891C35.6061 31.2705 36.1992 33.6682 35.918 35.0462C35.6881 36.1689 35.0195 36.9713 34.0808 37.2504C33.6838 37.3678 33.2618 37.3766 32.8601 37.2758C32.4584 37.1749 32.092 36.9683 31.8001 36.6779C30.9868 35.8739 30.7891 34.5419 31.2569 33.0307C31.5131 32.1397 31.9196 31.2975 32.4591 30.5395C30.675 30.1605 29.4422 31.0152 29.0999 31.8414C28.8916 32.373 28.8199 32.9471 28.8911 33.5127C28.9623 34.0782 29.1743 34.6176 29.5081 35.0827C31.1685 37.4232 35.0516 44.2562 35.2413 57.1117C35.243 57.2507 35.1888 57.3846 35.0906 57.4842C34.9924 57.5838 34.8581 57.6409 34.7173 57.643C34.5778 57.643 34.4438 57.5887 34.3445 57.4919C34.2452 57.3952 34.1886 57.2637 34.1869 57.126C34.0021 44.5622 30.2507 37.9386 28.6466 35.6837C28.2068 35.0775 27.9283 34.3719 27.8367 33.6319C27.7451 32.8918 27.8435 32.1409 28.1227 31.4482C28.7479 29.9274 30.81 28.8919 33.2659 29.6658C33.6744 29.3035 34.1475 29.0191 34.6611 28.8269C36.1783 28.2688 37.7149 28.689 38.6423 29.2662C38.721 29.3153 38.803 29.3677 38.8754 29.4247C39.4354 29.1058 40.0557 28.9032 40.6981 28.8296C41.3405 28.7559 41.9914 28.8128 42.6107 28.9966C43.9849 29.4311 44.8512 30.4872 45.1212 32.0507C45.3012 33.0989 45.0232 34.2486 44.2436 35.6694C43.133 37.6928 37.5943 48.2538 37.5558 57.5526C37.5549 57.6223 37.54 57.6912 37.5119 57.7552C37.4838 57.8192 37.443 57.877 37.392 57.9253C37.341 57.9736 37.2807 58.0113 37.2147 58.0364C37.1487 58.0614 37.0784 58.0732 37.0077 58.0711ZM33.4974 30.9233C32.9321 31.6417 32.5144 32.462 32.2678 33.3383C31.9174 34.4737 32.0203 35.4236 32.5475 35.9469C32.7025 36.1044 32.8986 36.2165 33.1142 36.2708C33.3298 36.3251 33.5565 36.3195 33.769 36.2545C34.3203 36.0959 34.7221 35.579 34.8716 34.848C35.0966 33.7411 34.5148 31.6242 33.4974 30.9233ZM38.8175 30.7806C38.6135 30.9863 38.4378 31.2177 38.2951 31.4688C37.3934 33.0386 37.207 34.4056 37.784 35.219C37.9483 35.4523 38.1756 35.6355 38.4401 35.7476C38.7047 35.8597 38.9958 35.8964 39.2804 35.8533C39.4823 35.8283 39.6722 35.7451 39.8266 35.6143C39.9809 35.4835 40.0928 35.3107 40.1483 35.1176C40.5791 33.619 39.8622 31.8557 38.8175 30.7742V30.7806Z" fill="white"/>
<path d="M44.2966 45.2725C44.1817 45.2721 44.0699 45.235 43.9782 45.1668C43.8864 45.0985 43.8195 45.0028 43.7874 44.8939C43.7554 44.785 43.76 44.6688 43.8005 44.5627C43.841 44.4565 43.9152 44.3662 44.0121 44.3052C45.5847 43.3262 46.9459 42.0506 48.0177 40.5515C49.0895 39.0525 49.8508 37.3594 50.258 35.5694C50.2885 35.4337 50.3723 35.3156 50.4911 35.241C50.6098 35.1663 50.7538 35.1413 50.8913 35.1714C51.0287 35.2014 51.1485 35.2841 51.2241 35.4013C51.2998 35.5185 51.3252 35.6605 51.2947 35.7961C50.8571 37.7218 50.0386 39.5432 48.8859 41.1561C47.7333 42.7689 46.2693 44.1414 44.5779 45.1948C44.4937 45.247 44.396 45.274 44.2966 45.2725Z" fill="white"/>
<path d="M24.8052 43.2253C24.7302 43.2257 24.6559 43.2101 24.5874 43.1798C24.5189 43.1494 24.4578 43.1049 24.4082 43.0493C22.8679 41.338 21.7482 39.2995 21.1359 37.092C20.5236 34.8845 20.4352 32.5675 20.8777 30.3209C21.3202 28.0743 22.2815 25.9585 23.6871 24.1379C25.0928 22.3172 26.9048 20.8407 28.9825 19.823C29.1087 19.7612 29.2546 19.7513 29.3881 19.7957C29.5217 19.84 29.6319 19.9348 29.6946 20.0593C29.7572 20.1838 29.7672 20.3277 29.7223 20.4595C29.6774 20.5912 29.5812 20.6999 29.4551 20.7618C27.5232 21.7079 25.8385 23.0807 24.5315 24.7734C23.2246 26.4661 22.3308 28.4333 21.9194 30.5221C21.5081 32.6109 21.5902 34.7652 22.1596 36.8176C22.7289 38.87 23.7701 40.7653 25.2022 42.3563C25.2706 42.4317 25.3153 42.5251 25.331 42.625C25.3467 42.725 25.3327 42.8273 25.2907 42.9196C25.2487 43.0119 25.1805 43.0902 25.0944 43.145C25.0082 43.1998 24.9078 43.2288 24.8052 43.2285V43.2253Z" fill="white"/>
<path d="M37.1395 62.4429C37.0054 62.4445 36.8757 62.3959 36.7765 62.307C36.6772 62.218 36.6158 62.0952 36.6046 61.9634C36.5934 61.8316 36.6333 61.7004 36.7161 61.5964C36.7989 61.4924 36.9186 61.4232 37.0511 61.4027C37.6351 61.3045 38.2135 61.1759 38.7837 61.0174C38.8509 60.9986 38.9211 60.9931 38.9903 61.0011C39.0596 61.0092 39.1266 61.0306 39.1875 61.0641C39.2484 61.0977 39.302 61.1428 39.3453 61.1968C39.3885 61.2508 39.4205 61.3127 39.4395 61.3789C39.4585 61.4451 39.4641 61.5144 39.456 61.5827C39.4478 61.6511 39.4261 61.7172 39.3921 61.7773C39.3581 61.8374 39.3124 61.8902 39.2576 61.9329C39.2029 61.9755 39.1402 62.0072 39.0731 62.0259C38.4664 62.1946 37.851 62.3312 37.2295 62.435C37.1998 62.4401 37.1697 62.4427 37.1395 62.4429Z" fill="url(#paint3_linear_14352_1364)"/>
<path d="M34.3268 65.8286C34.1909 65.8213 34.0631 65.7628 33.9696 65.6654C33.8761 65.5679 33.824 65.4388 33.824 65.3046C33.824 65.1703 33.8761 65.0412 33.9696 64.9437C34.0631 64.8463 34.1909 64.7878 34.3268 64.7805C35.6817 64.7678 37.6667 64.5822 39.4363 63.7672C39.4996 63.7381 39.5681 63.7217 39.6379 63.7187C39.7076 63.7158 39.7773 63.7265 39.8429 63.7501C39.9085 63.7737 39.9687 63.8099 40.0202 63.8565C40.0716 63.9031 40.1132 63.9592 40.1427 64.0217C40.1721 64.0842 40.1888 64.1517 40.1918 64.2206C40.1948 64.2894 40.184 64.3581 40.16 64.4229C40.1361 64.4876 40.0994 64.547 40.0522 64.5978C40.0049 64.6485 39.948 64.6896 39.8847 64.7186C37.9431 65.6146 35.7958 65.8175 34.3364 65.8286H34.3268Z" fill="url(#paint4_linear_14352_1364)"/>
<path d="M36.0899 11.8515H36.0787C35.938 11.8482 35.8043 11.7902 35.7068 11.6901C35.6093 11.59 35.5558 11.4559 35.5579 11.3171L35.7187 3.51371C35.7186 3.44447 35.7327 3.37593 35.7602 3.31221C35.7877 3.2485 35.8279 3.19091 35.8785 3.14293C35.9291 3.09494 35.989 3.05753 36.0546 3.03296C36.1202 3.00839 36.1902 2.99715 36.2603 2.99993C36.3302 3.00137 36.3991 3.01638 36.4631 3.0441C36.527 3.07182 36.5849 3.11171 36.6332 3.16148C36.6816 3.21125 36.7195 3.26994 36.7449 3.33418C36.7703 3.39843 36.7826 3.46697 36.7811 3.53591L36.6203 11.3393C36.6174 11.4762 36.5602 11.6064 36.4611 11.7022C36.3619 11.7979 36.2287 11.8515 36.0899 11.8515Z" fill="url(#paint5_linear_14352_1364)"/>
<path d="M13.1653 27.7518H8.11362C7.97779 27.7444 7.84997 27.686 7.75646 27.5885C7.66295 27.491 7.61084 27.3619 7.61084 27.2277C7.61084 27.0935 7.66295 26.9644 7.75646 26.8669C7.84997 26.7694 7.97779 26.711 8.11362 26.7036H13.1653C13.3011 26.711 13.4289 26.7694 13.5225 26.8669C13.616 26.9644 13.6681 27.0935 13.6681 27.2277C13.6681 27.3619 13.616 27.491 13.5225 27.5885C13.4289 27.686 13.3011 27.7444 13.1653 27.7518Z" fill="url(#paint6_linear_14352_1364)"/>
<path d="M17.8249 17.3304C17.7368 17.3302 17.65 17.3084 17.5726 17.2669L11.8764 14.2207C11.7528 14.1545 11.6609 14.0425 11.6209 13.9094C11.581 13.7763 11.5963 13.6331 11.6634 13.5111C11.7306 13.3891 11.8441 13.2985 11.979 13.2591C12.1138 13.2197 12.2591 13.2348 12.3827 13.301L18.0789 16.3456C18.1834 16.4008 18.2662 16.4889 18.3141 16.5959C18.3619 16.703 18.372 16.8227 18.3428 16.9361C18.3136 17.0495 18.2467 17.1499 18.1528 17.2214C18.0589 17.2928 17.9435 17.3312 17.8249 17.3304Z" fill="url(#paint7_linear_14352_1364)"/>
<path d="M58.8344 27.7518C58.7622 27.7558 58.6899 27.7451 58.622 27.7206C58.5541 27.696 58.492 27.658 58.4395 27.609C58.387 27.5599 58.3451 27.5008 58.3165 27.4353C58.2879 27.3697 58.2732 27.2991 58.2732 27.2278C58.2732 27.1564 58.2879 27.0858 58.3165 27.0203C58.3451 26.9547 58.387 26.8956 58.4395 26.8465C58.492 26.7975 58.5541 26.7595 58.622 26.735C58.6899 26.7104 58.7622 26.6998 58.8344 26.7037H63.8845C63.9567 26.6998 64.029 26.7104 64.0969 26.735C64.1648 26.7595 64.2269 26.7975 64.2794 26.8465C64.332 26.8956 64.3738 26.9547 64.4024 27.0203C64.431 27.0858 64.4457 27.1564 64.4457 27.2278C64.4457 27.2991 64.431 27.3697 64.4024 27.4353C64.3738 27.5008 64.332 27.5599 64.2794 27.609C64.2269 27.658 64.1648 27.696 64.0969 27.7206C64.029 27.7451 63.9567 27.7558 63.8845 27.7518H58.8344Z" fill="url(#paint8_linear_14352_1364)"/>
<path d="M54.1751 17.3304C54.0565 17.3312 53.9411 17.2928 53.8472 17.2214C53.7534 17.1499 53.6865 17.0495 53.6572 16.9361C53.628 16.8227 53.6381 16.703 53.686 16.5959C53.7338 16.4889 53.8166 16.4008 53.9212 16.3456L59.6174 13.301C59.6786 13.2682 59.7457 13.2476 59.815 13.2404C59.8843 13.2332 59.9543 13.2396 60.0211 13.2591C60.0879 13.2786 60.1501 13.3109 60.2042 13.3541C60.2584 13.3974 60.3034 13.4507 60.3366 13.5111C60.3699 13.5715 60.3907 13.6378 60.398 13.7061C60.4053 13.7744 60.3989 13.8435 60.3791 13.9094C60.3593 13.9753 60.3266 14.0367 60.2827 14.0901C60.2389 14.1435 60.1849 14.1879 60.1237 14.2207L54.4274 17.2669C54.35 17.3084 54.2633 17.3302 54.1751 17.3304Z" fill="url(#paint9_linear_14352_1364)"/>
</g>
<defs>
<linearGradient id="paint0_linear_14352_1364" x1="35.0433" y1="56.1111" x2="39.8548" y2="61.6717" gradientUnits="userSpaceOnUse">
<stop stop-color="#002698"/>
<stop offset="1" stop-color="#3263F8" stop-opacity="0.25"/>
</linearGradient>
<linearGradient id="paint1_linear_14352_1364" x1="33.6017" y1="15.5845" x2="50.1401" y2="29.4921" gradientUnits="userSpaceOnUse">
<stop stop-color="#002698"/>
<stop offset="1" stop-color="#3263F8" stop-opacity="0.25"/>
</linearGradient>
<linearGradient id="paint2_linear_14352_1364" x1="33.5281" y1="15.0532" x2="50.471" y2="29.3792" gradientUnits="userSpaceOnUse">
<stop stop-color="#002698"/>
<stop offset="1" stop-color="#3263F8" stop-opacity="0.25"/>
</linearGradient>
<linearGradient id="paint3_linear_14352_1364" x1="37.8407" y1="60.9976" x2="38.2713" y2="61.8773" gradientUnits="userSpaceOnUse">
<stop stop-color="#002698"/>
<stop offset="1" stop-color="#3263F8" stop-opacity="0.25"/>
</linearGradient>
<linearGradient id="paint4_linear_14352_1364" x1="36.5836" y1="63.7183" x2="37.0464" y2="65.1621" gradientUnits="userSpaceOnUse">
<stop stop-color="#002698"/>
<stop offset="1" stop-color="#3263F8" stop-opacity="0.25"/>
</linearGradient>
<linearGradient id="paint5_linear_14352_1364" x1="36.088" y1="2.99951" x2="37.023" y2="3.13309" gradientUnits="userSpaceOnUse">
<stop stop-color="#002698"/>
<stop offset="1" stop-color="#3263F8" stop-opacity="0.25"/>
</linearGradient>
<linearGradient id="paint6_linear_14352_1364" x1="10.2356" y1="26.7036" x2="10.3644" y2="27.4728" gradientUnits="userSpaceOnUse">
<stop stop-color="#002698"/>
<stop offset="1" stop-color="#3263F8" stop-opacity="0.25"/>
</linearGradient>
<linearGradient id="paint7_linear_14352_1364" x1="14.5285" y1="13.2375" x2="15.875" y2="15.5367" gradientUnits="userSpaceOnUse">
<stop stop-color="#002698"/>
<stop offset="1" stop-color="#3263F8" stop-opacity="0.25"/>
</linearGradient>
<linearGradient id="paint8_linear_14352_1364" x1="60.948" y1="26.7029" x2="61.0748" y2="27.474" gradientUnits="userSpaceOnUse">
<stop stop-color="#002698"/>
<stop offset="1" stop-color="#3263F8" stop-opacity="0.25"/>
</linearGradient>
<linearGradient id="paint9_linear_14352_1364" x1="56.5702" y1="13.2375" x2="57.9168" y2="15.5367" gradientUnits="userSpaceOnUse">
<stop stop-color="#002698"/>
<stop offset="1" stop-color="#3263F8" stop-opacity="0.25"/>
</linearGradient>
<clipPath id="clip0_14352_1364">
<rect width="56.8333" height="66" fill="white" transform="translate(7.58325 3)"/>
</clipPath>
</defs>
</svg>
