<svg width="72" height="72" viewBox="0 0 72 72" fill="none" xmlns="http://www.w3.org/2000/svg">
<g clip-path="url(#clip0_14352_1327)">
<path d="M54.217 72L51.7396 71.5563L53.4249 61.8815C53.468 61.6536 53.4601 61.4187 53.4017 61.1943C53.3434 60.9699 53.2361 60.7616 53.0878 60.5847C52.9414 60.4021 52.7563 60.2552 52.5463 60.1548C52.3363 60.0544 52.1066 60.003 51.8744 60.0045H19.921C19.6887 60.003 19.4591 60.0544 19.2491 60.1548C19.0391 60.2552 18.854 60.4021 18.7076 60.5847C18.5649 60.7653 18.4599 60.9734 18.3991 61.1963C18.3382 61.4192 18.3228 61.6523 18.3537 61.8815L20.039 71.5563L17.5447 72L15.8594 62.3251C15.7511 61.7248 15.775 61.1077 15.9294 60.5177C16.0838 59.9278 16.3649 59.3797 16.7526 58.9125C17.1405 58.4488 17.6232 58.076 18.1673 57.8197C18.7114 57.5634 19.304 57.4297 19.9041 57.428H51.8238C52.424 57.4297 53.0165 57.5634 53.5607 57.8197C54.1048 58.076 54.5875 58.4488 54.9754 58.9125C55.3631 59.3797 55.6442 59.9278 55.7986 60.5177C55.953 61.1077 55.9769 61.7248 55.8686 62.3251L54.217 72Z" fill="url(#paint0_linear_14352_1327)"/>
<path d="M37.1281 30.6899H34.6001V59.6292H37.1281V30.6899Z" fill="url(#paint1_linear_14352_1327)"/>
<path d="M35.8977 35.4506C33.5053 35.4514 31.1411 34.9275 28.9677 33.9151C26.7944 32.9026 24.8633 31.4256 23.3075 29.5856C21.7516 27.7455 20.6079 25.5861 19.9548 23.2559C19.3018 20.9257 19.155 18.4799 19.5245 16.0867C19.894 13.6936 20.7711 11.4098 22.0954 9.39258C23.4197 7.37533 25.1599 5.67241 27.1962 4.40094C29.2324 3.12947 31.5165 2.31962 33.8914 2.02708C36.2663 1.73454 38.6756 1.96624 40.9536 2.70627L40.1784 5.14631C38.7853 4.6876 37.3288 4.45718 35.8639 4.46377C32.7562 4.468 29.7379 5.51743 27.2832 7.44718C24.8286 9.37694 23.0767 12.0777 22.3028 15.125C21.5289 18.1724 21.7768 21.3938 23.0076 24.283C24.2385 27.1722 26.3825 29.5655 29.1027 31.087C31.823 32.6084 34.9655 33.1718 38.0364 32.6885C41.1072 32.2052 43.9326 30.7027 46.0684 28.4171C48.2042 26.1314 49.5295 23.1921 49.8361 20.0609C50.1427 16.9298 49.4132 13.7842 47.7622 11.1184L49.8857 9.75337C51.5545 12.4227 52.4372 15.5183 52.4305 18.6774C52.4261 23.1187 50.6839 27.3772 47.5853 30.5208C44.4867 33.6644 40.2842 35.437 35.8977 35.4506Z" fill="url(#paint2_linear_14352_1327)"/>
<path d="M45.4028 8.21781C44.5909 7.45684 43.6912 6.79799 42.7231 6.25555L43.9534 4.02026C45.0891 4.66091 46.1468 5.43401 47.1049 6.3238L45.4028 8.21781Z" fill="url(#paint3_linear_14352_1327)"/>
<path d="M37.5662 25.827H29.78V23.2676H37.5662C37.9306 23.1751 38.254 22.962 38.4851 22.6621C38.7162 22.3623 38.8418 21.9928 38.8418 21.6124C38.8418 21.2321 38.7162 20.8626 38.4851 20.5627C38.254 20.2629 37.9306 20.0498 37.5662 19.9573H34.4483C33.3443 19.9573 32.2855 19.5133 31.5049 18.7229C30.7242 17.9325 30.2856 16.8605 30.2856 15.7427C30.2856 14.6249 30.7242 13.5529 31.5049 12.7625C32.2855 11.9721 33.3443 11.5281 34.4483 11.5281H42.0322V14.0876H34.4483C34.0839 14.18 33.7605 14.3931 33.5294 14.693C33.2983 14.9929 33.1727 15.3623 33.1727 15.7427C33.1727 16.1231 33.2983 16.4925 33.5294 16.7924C33.7605 17.0923 34.0839 17.3054 34.4483 17.3978H37.5662C38.6702 17.3978 39.729 17.8419 40.5096 18.6323C41.2903 19.4226 41.7289 20.4947 41.7289 21.6124C41.7289 22.7302 41.2903 23.8022 40.5096 24.5926C39.729 25.383 38.6702 25.827 37.5662 25.827Z" fill="url(#paint4_linear_14352_1327)"/>
<path d="M37.1786 7.96191H34.6506V29.4104H37.1786V7.96191Z" fill="url(#paint5_linear_14352_1327)"/>
<path d="M53.9642 36.2698C53.9642 36.2698 54.5372 44.1018 50.1217 48.5723C45.7062 53.0429 37.9875 52.4457 37.9875 52.4457C37.9875 52.4457 37.4145 44.6307 41.83 40.1602C46.2455 35.6896 53.9642 36.2698 53.9642 36.2698Z" fill="url(#paint6_linear_14352_1327)"/>
<path d="M38.7965 53.7595C38.2066 53.7595 37.8527 53.7595 37.7853 53.7595H36.6899L36.6056 52.6674C36.6056 52.3262 36.0494 44.1358 40.8188 39.3752C45.5883 34.6145 53.6103 35.0923 53.9474 35.1264H55.026L55.1102 36.2355C55.1102 36.5768 55.6664 44.7671 50.897 49.5278C47.1219 53.3499 41.2065 53.7595 38.7965 53.7595ZM52.5991 37.5323C50.4082 37.5323 45.5883 38.0442 42.6053 41.0644C39.6223 44.0846 39.2347 48.9647 39.1167 51.1829C41.3076 51.1829 46.1276 50.671 49.1105 47.6508C52.0935 44.6306 52.616 39.7676 52.6497 37.5323H52.5991Z" fill="url(#paint7_linear_14352_1327)"/>
<path d="M34.3304 52.4457C34.3304 52.4457 34.9034 44.6307 30.4879 40.1602C26.0724 35.6896 18.3537 36.2698 18.3537 36.2698C18.3537 36.2698 17.7807 44.1018 22.1962 48.5723C26.6117 53.0429 34.3304 52.4457 34.3304 52.4457Z" fill="url(#paint8_linear_14352_1327)"/>
<path d="M33.4035 53.7595C31.044 53.7595 25.1286 53.3499 21.303 49.4766C16.5335 44.6477 17.0728 36.5256 17.0897 36.1843V35.0752H18.1683C18.5054 35.0752 26.5948 34.4951 31.2968 39.324C35.9988 44.1529 35.527 52.275 35.5101 52.6162V53.7083H34.4146C34.4146 53.7083 33.9933 53.7595 33.4035 53.7595ZM19.6008 37.5323C19.6008 39.7676 20.1064 44.6306 23.0894 47.6508C26.0724 50.671 30.8924 51.1488 33.0833 51.1829C33.0833 48.9647 32.5777 44.0846 29.5947 41.0644C26.6117 38.0442 21.7917 37.5835 19.6008 37.5323Z" fill="url(#paint9_linear_14352_1327)"/>
</g>
<defs>
<linearGradient id="paint0_linear_14352_1327" x1="33.1878" y1="57.428" x2="36.6245" y2="67.2149" gradientUnits="userSpaceOnUse">
<stop stop-color="#002698"/>
<stop offset="1" stop-color="#3263F8" stop-opacity="0.25"/>
</linearGradient>
<linearGradient id="paint1_linear_14352_1327" x1="35.6955" y1="30.6899" x2="37.6512" y2="30.8665" gradientUnits="userSpaceOnUse">
<stop stop-color="#002698"/>
<stop offset="1" stop-color="#3263F8" stop-opacity="0.25"/>
</linearGradient>
<linearGradient id="paint2_linear_14352_1327" x1="33.6711" y1="1.9043" x2="46.323" y2="14.8112" gradientUnits="userSpaceOnUse">
<stop stop-color="#002698"/>
<stop offset="1" stop-color="#3263F8" stop-opacity="0.25"/>
</linearGradient>
<linearGradient id="paint3_linear_14352_1327" x1="44.6219" y1="4.02026" x2="46.2007" y2="5.72403" gradientUnits="userSpaceOnUse">
<stop stop-color="#002698"/>
<stop offset="1" stop-color="#3263F8" stop-opacity="0.25"/>
</linearGradient>
<linearGradient id="paint4_linear_14352_1327" x1="35.0893" y1="11.5281" x2="40.4438" y2="16.271" gradientUnits="userSpaceOnUse">
<stop stop-color="#002698"/>
<stop offset="1" stop-color="#3263F8" stop-opacity="0.25"/>
</linearGradient>
<linearGradient id="paint5_linear_14352_1327" x1="35.7461" y1="7.96191" x2="37.6888" y2="8.19862" gradientUnits="userSpaceOnUse">
<stop stop-color="#002698"/>
<stop offset="1" stop-color="#3263F8" stop-opacity="0.25"/>
</linearGradient>
<linearGradient id="paint6_linear_14352_1327" x1="44.9075" y1="36.2451" x2="51.0274" y2="42.493" gradientUnits="userSpaceOnUse">
<stop stop-color="#002698"/>
<stop offset="1" stop-color="#3263F8" stop-opacity="0.25"/>
</linearGradient>
<linearGradient id="paint7_linear_14352_1327" x1="44.6216" y1="35.0979" x2="51.6586" y2="42.3268" gradientUnits="userSpaceOnUse">
<stop stop-color="#002698"/>
<stop offset="1" stop-color="#3263F8" stop-opacity="0.25"/>
</linearGradient>
<linearGradient id="paint8_linear_14352_1327" x1="25.2737" y1="36.2451" x2="31.3936" y2="42.493" gradientUnits="userSpaceOnUse">
<stop stop-color="#002698"/>
<stop offset="1" stop-color="#3263F8" stop-opacity="0.25"/>
</linearGradient>
<linearGradient id="paint9_linear_14352_1327" x1="25.0659" y1="35.0535" x2="32.1207" y2="42.2534" gradientUnits="userSpaceOnUse">
<stop stop-color="#002698"/>
<stop offset="1" stop-color="#3263F8" stop-opacity="0.25"/>
</linearGradient>
<clipPath id="clip0_14352_1327">
<rect width="72" height="72" fill="white"/>
</clipPath>
</defs>
</svg>
