<svg width="72" height="72" viewBox="0 0 72 72" fill="none" xmlns="http://www.w3.org/2000/svg">
<path d="M57.0904 36.4891C56.9758 36.2102 56.7813 35.9714 56.5313 35.8029C56.2812 35.6345 55.9869 35.5437 55.6855 35.5422H15.9804C15.6789 35.5437 15.3846 35.6345 15.1346 35.8029C14.8846 35.9714 14.69 36.2102 14.5755 36.4891C14.4585 36.7672 14.4266 37.0737 14.4836 37.3699C14.5407 37.6662 14.6843 37.9389 14.8961 38.1536L29.7245 52.9666V64.5575C29.7252 64.8337 29.8009 65.1046 29.9434 65.3413C30.0859 65.5779 30.29 65.7715 30.5338 65.9013C30.7726 66.0239 31.0395 66.0814 31.3076 66.068C31.5757 66.0546 31.8356 65.9708 32.0609 65.825L41.2237 59.7165C41.4394 59.5817 41.618 59.3952 41.7434 59.1738C41.8687 58.9525 41.9368 58.7033 41.9414 58.449V52.9666L56.7697 38.1536C56.9816 37.9389 57.1252 37.6662 57.1822 37.3699C57.2393 37.0737 57.2073 36.7672 57.0904 36.4891ZM39.33 51.2563C39.1885 51.399 39.0765 51.5682 39.0005 51.7543C38.9245 51.9403 38.886 52.1395 38.8872 52.3405V57.6244L32.7787 61.7018V52.3405C32.7799 52.1395 32.7413 51.9403 32.6653 51.7543C32.5893 51.5682 32.4774 51.399 32.3358 51.2563L19.6608 38.5965H52.0051L39.33 51.2563Z" fill="url(#paint0_linear_14430_1521)"/>
<path d="M34.3063 20.2712C32.966 20.2713 31.6493 20.6241 30.4886 21.2943C29.3278 21.9645 28.364 22.9284 27.6938 24.0891C27.0237 25.2499 26.6709 26.5666 26.6709 27.9069C26.6709 29.2472 27.0237 30.5639 27.6939 31.7246C27.8284 31.9577 28.0222 32.151 28.2555 32.2851C28.4888 32.4192 28.7534 32.4892 29.0225 32.4882H39.5901C39.8592 32.4892 40.1238 32.4192 40.3571 32.2851C40.5904 32.151 40.7842 31.9577 40.9187 31.7246C41.5889 30.5639 41.9417 29.2472 41.9417 27.9069C41.9417 26.5666 41.5889 25.2499 40.9188 24.0891C40.2486 22.9284 39.2847 21.9645 38.124 21.2943C36.9633 20.6241 35.6466 20.2713 34.3063 20.2712ZM38.628 29.4339H29.9845C29.8145 28.9427 29.7268 28.4267 29.7249 27.9068C29.7249 26.6918 30.2076 25.5265 31.0668 24.6673C31.926 23.8082 33.0912 23.3255 34.3063 23.3255C35.5213 23.3255 36.6866 23.8082 37.5458 24.6673C38.405 25.5265 38.8876 26.6918 38.8876 27.9068C38.8858 28.4267 38.7981 28.9427 38.628 29.4339Z" fill="url(#paint1_linear_14430_1521)"/>
<path opacity="0.9" d="M55.6858 38.5965H15.9808C14.7657 38.5965 13.6004 38.1139 12.7413 37.2547C11.8821 36.3955 11.3994 35.2302 11.3994 34.0152C11.3994 32.8001 11.8821 31.6349 12.7413 30.7757C13.6004 29.9165 14.7657 29.4338 15.9808 29.4338H55.6858C56.9009 29.4338 58.0662 29.9165 58.9253 30.7757C59.7845 31.6349 60.2672 32.8001 60.2672 34.0152C60.2672 35.2302 59.7845 36.3955 58.9253 37.2547C58.0662 38.1139 56.9009 38.5965 55.6858 38.5965Z" fill="url(#paint2_linear_14430_1521)"/>
<path d="M22.0897 5C20.5795 5 19.1033 5.44782 17.8476 6.28683C16.5919 7.12584 15.6132 8.31835 15.0353 9.71357C14.4574 11.1088 14.3062 12.6441 14.6008 14.1252C14.8954 15.6064 15.6227 16.9669 16.6905 18.0348C17.7584 19.1026 19.1189 19.8298 20.6001 20.1245C22.0812 20.4191 23.6165 20.2679 25.0117 19.69C26.4069 19.112 27.5994 18.1334 28.4385 16.8777C29.2775 15.622 29.7253 14.1458 29.7253 12.6356C29.7253 10.6105 28.9208 8.66836 27.4889 7.23641C26.0569 5.80446 24.1148 5 22.0897 5ZM22.0897 17.2169C21.1836 17.2169 20.2978 16.9482 19.5444 16.4448C18.791 15.9414 18.2038 15.2259 17.8571 14.3888C17.5103 13.5517 17.4196 12.6305 17.5964 11.7418C17.7731 10.8531 18.2095 10.0368 18.8502 9.39608C19.4909 8.75537 20.3072 8.31904 21.1959 8.14226C22.0846 7.96549 23.0058 8.05622 23.8429 8.40297C24.68 8.74972 25.3955 9.33693 25.899 10.0903C26.4024 10.8437 26.671 11.7295 26.671 12.6356C26.671 13.8506 26.1884 15.0159 25.3292 15.8751C24.47 16.7343 23.3047 17.2169 22.0897 17.2169Z" fill="url(#paint3_linear_14430_1521)"/>
<path d="M49.578 9.5813C48.0678 9.5813 46.5915 10.0291 45.3359 10.8681C44.0802 11.7071 43.1015 12.8997 42.5236 14.2949C41.9457 15.6901 41.7945 17.2254 42.0891 18.7065C42.3837 20.1877 43.1109 21.5482 44.1788 22.6161C45.2467 23.6839 46.6072 24.4111 48.0883 24.7058C49.5695 25.0004 51.1048 24.8492 52.5 24.2713C53.8952 23.6933 55.0877 22.7147 55.9267 21.459C56.7657 20.2033 57.2136 18.7271 57.2136 17.2169C57.2136 15.1918 56.4091 13.2497 54.9772 11.8177C53.5452 10.3858 51.6031 9.5813 49.578 9.5813ZM49.578 21.7982C48.6719 21.7982 47.7861 21.5295 47.0327 21.0261C46.2793 20.5227 45.6921 19.8072 45.3454 18.9701C44.9986 18.133 44.9079 17.2118 45.0847 16.3231C45.2614 15.4344 45.6978 14.6181 46.3385 13.9774C46.9792 13.3367 47.7955 12.9003 48.6842 12.7236C49.5729 12.5468 50.494 12.6375 51.3312 12.9843C52.1683 13.331 52.8838 13.9182 53.3872 14.6716C53.8906 15.425 54.1593 16.3108 54.1593 17.2169C54.1593 18.4319 53.6766 19.5972 52.8175 20.4564C51.9583 21.3156 50.793 21.7982 49.578 21.7982Z" fill="url(#paint4_linear_14430_1521)"/>
<path d="M29.7254 44.7051C30.5688 44.7051 31.2525 44.0214 31.2525 43.178C31.2525 42.3346 30.5688 41.6509 29.7254 41.6509C28.882 41.6509 28.1982 42.3346 28.1982 43.178C28.1982 44.0214 28.882 44.7051 29.7254 44.7051Z" fill="url(#paint5_linear_14430_1521)"/>
<path d="M35.8338 44.7051C36.6772 44.7051 37.3609 44.0214 37.3609 43.178C37.3609 42.3346 36.6772 41.6509 35.8338 41.6509C34.9904 41.6509 34.3066 42.3346 34.3066 43.178C34.3066 44.0214 34.9904 44.7051 35.8338 44.7051Z" fill="url(#paint6_linear_14430_1521)"/>
<path d="M41.9422 44.7051C42.7856 44.7051 43.4693 44.0214 43.4693 43.178C43.4693 42.3346 42.7856 41.6509 41.9422 41.6509C41.0988 41.6509 40.415 42.3346 40.415 43.178C40.415 44.0214 41.0988 44.7051 41.9422 44.7051Z" fill="url(#paint7_linear_14430_1521)"/>
<defs>
<linearGradient id="paint0_linear_14430_1521" x1="32.9827" y1="35.5422" x2="43.7526" y2="51.1347" gradientUnits="userSpaceOnUse">
<stop stop-color="#002698"/>
<stop offset="1" stop-color="#3263F8" stop-opacity="0.35"/>
</linearGradient>
<linearGradient id="paint1_linear_14430_1521" x1="33.2882" y1="20.2712" x2="37.7494" y2="26.0358" gradientUnits="userSpaceOnUse">
<stop stop-color="#002698"/>
<stop offset="1" stop-color="#3263F8" stop-opacity="0.35"/>
</linearGradient>
<linearGradient id="paint2_linear_14430_1521" x1="32.5754" y1="29.4338" x2="33.7893" y2="36.1264" gradientUnits="userSpaceOnUse">
<stop stop-color="#002698"/>
<stop offset="1" stop-color="#3263F8"/>
</linearGradient>
<linearGradient id="paint3_linear_14430_1521" x1="21.0716" y1="5" x2="26.8291" y2="10.9518" gradientUnits="userSpaceOnUse">
<stop stop-color="#002698"/>
<stop offset="1" stop-color="#3263F8"/>
</linearGradient>
<linearGradient id="paint4_linear_14430_1521" x1="48.5599" y1="9.5813" x2="54.3173" y2="15.5331" gradientUnits="userSpaceOnUse">
<stop stop-color="#002698"/>
<stop offset="1" stop-color="#3263F8"/>
</linearGradient>
<linearGradient id="paint5_linear_14430_1521" x1="29.5217" y1="41.6509" x2="30.6732" y2="42.8412" gradientUnits="userSpaceOnUse">
<stop stop-color="#002698"/>
<stop offset="1" stop-color="#3263F8" stop-opacity="0.35"/>
</linearGradient>
<linearGradient id="paint6_linear_14430_1521" x1="35.6301" y1="41.6509" x2="36.7816" y2="42.8412" gradientUnits="userSpaceOnUse">
<stop stop-color="#002698"/>
<stop offset="1" stop-color="#3263F8" stop-opacity="0.35"/>
</linearGradient>
<linearGradient id="paint7_linear_14430_1521" x1="41.7385" y1="41.6509" x2="42.89" y2="42.8412" gradientUnits="userSpaceOnUse">
<stop stop-color="#002698"/>
<stop offset="1" stop-color="#3263F8" stop-opacity="0.35"/>
</linearGradient>
</defs>
</svg>
