<svg width="72" height="72" viewBox="0 0 72 72" fill="none" xmlns="http://www.w3.org/2000/svg">
<path d="M39.1014 45.0095L38.2398 42.9595C38.9067 42.6784 39.5122 42.2696 40.0224 41.7562C40.526 41.2468 40.9292 40.6471 41.2108 39.9885C41.505 39.298 41.6566 38.5553 41.6566 37.8048C41.6566 37.0543 41.505 36.3115 41.2108 35.6211C40.9292 34.9624 40.526 34.3627 40.0224 33.8533C39.5122 33.3399 38.9067 32.9312 38.2398 32.65C37.55 32.3636 36.8104 32.2161 36.0635 32.2161C35.3166 32.2161 34.577 32.3636 33.8872 32.65C33.2203 32.9312 32.6148 33.3399 32.1046 33.8533C31.5916 34.3581 31.1828 34.9587 30.9013 35.6211C30.3268 37.0202 30.3268 38.5894 30.9013 39.9885C31.1828 40.6508 31.5916 41.2514 32.1046 41.7562C32.6148 42.2696 33.2203 42.6784 33.8872 42.9595L33.0553 45.0095C32.123 44.6243 31.2789 44.0531 30.5745 43.3309C29.8469 42.6063 29.2695 41.7451 28.8756 40.7968C28.4816 39.8485 28.2788 38.8317 28.2788 37.8048C28.2788 36.7779 28.4816 35.7611 28.8756 34.8128C29.2695 33.8645 29.8469 33.0033 30.5745 32.2787C31.2761 31.5458 32.1204 30.9644 33.0553 30.5703C34.0197 30.1658 35.0549 29.9575 36.1006 29.9575C37.1464 29.9575 38.1816 30.1658 39.1459 30.5703C40.5651 31.166 41.7767 32.1676 42.6287 33.4494C43.4808 34.7311 43.9353 36.2359 43.9353 37.7751C43.9353 39.3142 43.4808 40.819 42.6287 42.1008C41.7767 43.3825 40.5651 44.3841 39.1459 44.9798L39.1014 45.0095Z" fill="url(#paint0_linear_14352_1346)"/>
<path d="M12.2581 56.8938H10.0298V46.9854C10.0337 45.8834 10.4732 44.8277 11.2524 44.0485C12.0316 43.2693 13.0873 42.8298 14.1892 42.8259H33.0553V45.0096H14.2338C13.7216 45.0096 13.2304 45.2131 12.8682 45.5753C12.5061 45.9374 12.3026 46.4286 12.3026 46.9408L12.2581 56.8938Z" fill="url(#paint1_linear_14352_1346)"/>
<path d="M12.3025 63.207H10.0742V65.9998H12.3025V63.207Z" fill="url(#paint2_linear_14352_1346)"/>
<path d="M12.3025 58.9734H10.0742V61.7662H12.3025V58.9734Z" fill="url(#paint3_linear_14352_1346)"/>
<path d="M62.2013 66H59.973V47.0003C59.973 46.4881 59.7696 45.9969 59.4074 45.6347C59.0453 45.2726 58.554 45.0691 58.0419 45.0691H39.1016V42.8408H58.0419C59.1438 42.8447 60.1995 43.2842 60.9787 44.0634C61.7579 44.8426 62.1974 45.8983 62.2013 47.0003V66Z" fill="url(#paint4_linear_14352_1346)"/>
<path d="M61.0126 6V24.9997C60.9938 25.7818 60.6747 26.5266 60.1216 27.0797C59.5684 27.6328 58.8236 27.9519 58.0416 27.9708H38.7299C40.3356 27.2818 41.6129 25.9992 42.2952 24.3907C42.6478 23.5667 42.8297 22.6798 42.8297 21.7836C42.8297 20.8874 42.6478 20.0004 42.2952 19.1765C41.6129 17.568 40.3356 16.2853 38.7299 15.5964C37.0558 14.9032 35.175 14.9032 33.5009 15.5964C31.8953 16.2853 30.6179 17.568 29.9357 19.1765C29.583 20.0004 29.4012 20.8874 29.4012 21.7836C29.4012 22.6798 29.583 23.5667 29.9357 24.3907C30.6179 25.9992 31.8953 27.2818 33.5009 27.9708H14.1595C13.3775 27.9519 12.6327 27.6328 12.0795 27.0797C11.5264 26.5266 11.2073 25.7818 11.1885 24.9997V6H61.0126Z" fill="url(#paint5_linear_14352_1346)"/>
<path d="M32.9366 29.07C32.0098 28.6743 31.1676 28.1045 30.4558 27.3913C29.7364 26.6846 29.1656 25.8411 28.7771 24.9105C28.1724 23.4745 28.0091 21.8909 28.3081 20.3616C28.6071 18.8324 29.3547 17.4269 30.4558 16.3243C31.1804 15.5966 32.0416 15.0193 32.9899 14.6253C33.9382 14.2314 34.955 14.0286 35.9819 14.0286C37.0088 14.0286 38.0255 14.2314 38.9739 14.6253C39.9222 15.0193 40.7834 15.5966 41.508 16.3243C42.2378 17.0492 42.8171 17.9113 43.2124 18.861C43.6077 19.8106 43.8112 20.8291 43.8112 21.8578C43.8112 22.8865 43.6077 23.905 43.2124 24.8547C42.8171 25.8044 42.2378 26.6665 41.508 27.3913C40.7873 28.1077 39.9348 28.6777 38.9975 29.07L38.1359 27.02C38.7982 26.7385 39.3988 26.3297 39.9036 25.8167C40.417 25.3065 40.8257 24.701 41.1069 24.0341C41.4007 23.3462 41.5522 22.6059 41.5522 21.8578C41.5522 21.1098 41.4007 20.3695 41.1069 19.6815C40.8257 19.0146 40.417 18.4091 39.9036 17.8989C39.3942 17.3953 38.7945 16.9921 38.1359 16.7105C37.4454 16.4163 36.7027 16.2647 35.9522 16.2647C35.2016 16.2647 34.4589 16.4163 33.7685 16.7105C33.1098 16.9921 32.5101 17.3953 32.0007 17.8989C31.4873 18.4091 31.0786 19.0146 30.7974 19.6815C30.5036 20.3695 30.3522 21.1098 30.3522 21.8578C30.3522 22.6059 30.5036 23.3462 30.7974 24.0341C31.0786 24.701 31.4873 25.3065 32.0007 25.8167C32.5055 26.3297 33.1061 26.7385 33.7685 27.02L32.9366 29.07Z" fill="url(#paint6_linear_14352_1346)"/>
<path d="M32.9215 29.1592H14.1594C13.0575 29.1553 12.0018 28.7158 11.2226 27.9366C10.4434 27.1574 10.0039 26.1017 10 24.9997V6H12.258V24.9997C12.258 25.5119 12.4614 26.0031 12.8236 26.3653C13.1858 26.7274 13.677 26.9309 14.1892 26.9309H32.9215V29.1592Z" fill="url(#paint7_linear_14352_1346)"/>
<path d="M57.9673 29.1592H38.9973V26.9309H57.9673C58.4783 26.927 58.9673 26.7223 59.3286 26.361C59.6899 25.9997 59.8946 25.5107 59.8985 24.9997V13.9475H62.1268V24.9997C62.1229 26.1017 61.6834 27.1574 60.9042 27.9366C60.125 28.7158 59.0693 29.1553 57.9673 29.1592Z" fill="url(#paint8_linear_14352_1346)"/>
<path d="M62.127 6H59.8987V11.3627H62.127V6Z" fill="url(#paint9_linear_14352_1346)"/>
<defs>
<linearGradient id="paint0_linear_14352_1346" x1="35.0633" y1="29.9575" x2="40.7263" y2="36.0468" gradientUnits="userSpaceOnUse">
<stop stop-color="#002698"/>
<stop offset="1" stop-color="#3263F8" stop-opacity="0.25"/>
</linearGradient>
<linearGradient id="paint1_linear_14352_1346" x1="20.0075" y1="42.8259" x2="24.6563" y2="50.6918" gradientUnits="userSpaceOnUse">
<stop stop-color="#002698"/>
<stop offset="1" stop-color="#3263F8" stop-opacity="0.25"/>
</linearGradient>
<linearGradient id="paint2_linear_14352_1346" x1="11.0398" y1="63.207" x2="12.0741" y2="64.0601" gradientUnits="userSpaceOnUse">
<stop stop-color="#002698"/>
<stop offset="1" stop-color="#3263F8" stop-opacity="0.25"/>
</linearGradient>
<linearGradient id="paint3_linear_14352_1346" x1="11.0398" y1="58.9734" x2="12.0741" y2="59.8264" gradientUnits="userSpaceOnUse">
<stop stop-color="#002698"/>
<stop offset="1" stop-color="#3263F8" stop-opacity="0.25"/>
</linearGradient>
<linearGradient id="paint4_linear_14352_1346" x1="49.1115" y1="42.8408" x2="57.8435" y2="51.8445" gradientUnits="userSpaceOnUse">
<stop stop-color="#002698"/>
<stop offset="1" stop-color="#3263F8" stop-opacity="0.25"/>
</linearGradient>
<linearGradient id="paint5_linear_14352_1346" x1="32.7789" y1="6" x2="38.7611" y2="20.0239" gradientUnits="userSpaceOnUse">
<stop stop-color="#002698"/>
<stop offset="1" stop-color="#3263F8" stop-opacity="0.25"/>
</linearGradient>
<linearGradient id="paint6_linear_14352_1346" x1="34.9435" y1="14.0286" x2="40.6025" y2="20.1148" gradientUnits="userSpaceOnUse">
<stop stop-color="#002698"/>
<stop offset="1" stop-color="#3263F8" stop-opacity="0.25"/>
</linearGradient>
<linearGradient id="paint7_linear_14352_1346" x1="19.9326" y1="6" x2="28.6665" y2="14.9361" gradientUnits="userSpaceOnUse">
<stop stop-color="#002698"/>
<stop offset="1" stop-color="#3263F8" stop-opacity="0.25"/>
</linearGradient>
<linearGradient id="paint8_linear_14352_1346" x1="49.0201" y1="13.9475" x2="54.2176" y2="22.1172" gradientUnits="userSpaceOnUse">
<stop stop-color="#002698"/>
<stop offset="1" stop-color="#3263F8" stop-opacity="0.25"/>
</linearGradient>
<linearGradient id="paint9_linear_14352_1346" x1="60.8643" y1="6" x2="62.3314" y2="6.63021" gradientUnits="userSpaceOnUse">
<stop stop-color="#002698"/>
<stop offset="1" stop-color="#3263F8" stop-opacity="0.25"/>
</linearGradient>
</defs>
</svg>
