<svg width="72" height="72" viewBox="0 0 72 72" fill="none" xmlns="http://www.w3.org/2000/svg">
<path d="M8.14558 47.6112C8.14571 47.1667 8.14558 46.7964 8.1456 46.5742V44.7964V19.1667C8.1456 16.9576 9.93646 15.1667 12.1456 15.1667H60.0001C62.2092 15.1667 64.0001 16.9576 64.0001 19.1667V53.8334C64.0001 56.0425 62.2092 57.8334 60.0001 57.8334H12.1456C9.93645 57.8334 8.1456 56.0426 8.1456 53.8334V49.5371L8.14551 49.0927C8.14561 48.8705 8.14562 49.0186 8.14558 48.7223C8.14551 48.3519 8.14558 48.6334 8.14558 47.9816C8.14558 47.6853 8.14551 47.9075 8.14558 47.6112ZM52.1161 28.0451C52.1161 30.4162 54.4839 32.0578 56.7043 31.2262L56.8572 31.1689C58.829 30.4304 59.7145 28.0581 58.0728 26.7396C57.2889 26.11 56.4026 25.6019 55.4422 25.2443C53.6842 24.5895 52.1161 26.1691 52.1161 28.0451ZM57.8679 40.7905C58.073 39.7625 58.109 38.7516 57.9981 37.7834C57.7753 35.8373 55.6218 35.0371 53.7874 35.7241L53.1392 35.9669C50.9187 36.7985 48.5509 35.1569 48.5509 32.7858C48.5509 30.9098 46.9828 29.3305 45.2246 29.985C41.6136 31.3291 39.0438 34.7991 39.0438 38.8705C39.0438 44.7016 44.3203 49.3001 50.3811 48.186C54.1126 47.4867 57.1311 44.5119 57.8679 40.7905Z" fill="url(#paint0_linear_14430_1502)"/>
<path d="M60.8976 29.7543L52.3643 33.0092V24.4758C56.0848 24.4758 59.3013 26.6214 60.8976 29.7543Z" fill="white"/>
<path d="M56.7568 34.3785C57.6876 36.245 58.0483 38.4751 57.6062 40.7901C56.8848 44.5959 53.9294 47.6381 50.2759 48.3532C44.3419 49.4925 39.1758 44.7898 39.1758 38.8266C39.1758 33.4694 43.3412 29.1304 48.4841 29.1304V37.6146L56.7568 34.3785Z" fill="white"/>
<path d="M51.4409 33.9697C51.6418 34.1088 51.8782 34.1813 52.1171 34.1813C52.2585 34.1813 52.4 34.1563 52.5354 34.1064L60.985 30.9333C61.3035 30.8133 61.5543 30.5638 61.6767 30.2464C61.7991 29.9291 61.7789 29.5762 61.6232 29.2743C59.774 25.7032 56.1327 23.4856 52.1171 23.4856C51.4611 23.4856 50.9287 24.0168 50.9287 24.674V32.9929C50.9287 33.3827 51.12 33.7487 51.4409 33.9697ZM53.3055 25.9468C55.5029 26.2605 57.4721 27.4359 58.7936 29.2161L53.3055 31.278V25.9468Z" fill="url(#paint1_linear_14430_1502)"/>
<path d="M41.7188 47.1646C43.6523 48.7726 46.0731 49.627 48.5735 49.627C49.245 49.627 49.9235 49.5652 50.5997 49.4405C54.8174 48.6561 58.2079 45.3012 59.0374 41.0907C59.5211 38.6378 59.1824 36.1956 58.0582 34.028C57.7813 33.4932 57.1491 33.252 56.5857 33.4611L49.7405 36.0316V29.4277C49.7405 28.7705 49.2081 28.2393 48.5521 28.2393C44.4937 28.2393 40.8334 30.4901 39.0009 34.1124C38.705 34.6971 38.9391 35.4137 39.525 35.7096C40.1097 36.0055 40.8251 35.7714 41.1222 35.1855C42.3653 32.7267 44.6922 31.0796 47.3625 30.7005V37.7465C47.3625 38.1363 47.5539 38.5012 47.8747 38.7234C48.1956 38.9456 48.6044 38.9943 48.9692 38.8589L56.3695 36.0792C56.8947 37.5124 57.0112 39.0668 56.7034 40.6296C56.0605 43.893 53.4329 46.4956 50.1636 47.1017C47.6739 47.5663 45.1473 46.9222 43.2376 45.3357C41.3278 43.7504 40.2333 41.4163 40.2333 38.9349C40.2333 38.2777 39.7009 37.7465 39.0449 37.7465C38.3889 37.7465 37.8564 38.2777 37.8564 38.9349C37.8564 42.1258 39.2647 45.1242 41.7188 47.1646Z" fill="url(#paint2_linear_14430_1502)"/>
<path d="M14.0878 24.6742H27.1603C27.8163 24.6742 28.3487 24.143 28.3487 23.4858C28.3487 22.8286 27.8163 22.2974 27.1603 22.2974H14.0878C13.4318 22.2974 12.8994 22.8286 12.8994 23.4858C12.8994 24.143 13.4318 24.6742 14.0878 24.6742Z" fill="white"/>
<path d="M14.0878 29.4278H33.1023C33.7583 29.4278 34.2908 28.8966 34.2908 28.2394C34.2908 27.5822 33.7583 27.051 33.1023 27.051H14.0878C13.4318 27.051 12.8994 27.5822 12.8994 28.2394C12.8994 28.8966 13.4318 29.4278 14.0878 29.4278Z" fill="white"/>
<path d="M14.0878 34.1815H33.1023C33.7583 34.1815 34.2908 33.6503 34.2908 32.9931C34.2908 32.3359 33.7583 31.8047 33.1023 31.8047H14.0878C13.4318 31.8047 12.8994 32.3359 12.8994 32.9931C12.8994 33.6503 13.4318 34.1815 14.0878 34.1815Z" fill="white"/>
<defs>
<linearGradient id="paint0_linear_14430_1502" x1="32.3491" y1="15.1667" x2="47.7345" y2="35.9875" gradientUnits="userSpaceOnUse">
<stop stop-color="#002698"/>
<stop offset="1" stop-color="#3263F8" stop-opacity="0.35"/>
</linearGradient>
<linearGradient id="paint1_linear_14430_1502" x1="55.6206" y1="23.4856" x2="59.651" y2="27.7034" gradientUnits="userSpaceOnUse">
<stop stop-color="#002698"/>
<stop offset="1" stop-color="#3263F8"/>
</linearGradient>
<linearGradient id="paint2_linear_14430_1502" x1="47.1277" y1="28.2393" x2="55.1911" y2="36.5778" gradientUnits="userSpaceOnUse">
<stop stop-color="#002698"/>
<stop offset="1" stop-color="#3263F8"/>
</linearGradient>
</defs>
</svg>
