<svg width="72" height="72" viewBox="0 0 72 72" fill="none" xmlns="http://www.w3.org/2000/svg">
<g clip-path="url(#clip0_14356_5738)">
<path d="M3.75971 25.67C10.5397 23.9 32.1997 19.78 43.5397 17.42C54.8797 15.06 67.2697 13.42 68.8897 14.18C70.5097 14.94 52.5297 37.61 44.1297 46.59C41.3297 48.51 37.4997 44.97 37.4997 44.97C29.5497 53.22 20.5597 56.32 19.0897 56.61C17.6197 56.9 16.8697 47.77 16.7297 42.32C16.5897 36.87 17.5497 35.81 13.0397 33.63C-0.95029 26.85 3.75971 25.67 3.75971 25.67Z" fill="url(#paint0_linear_14356_5738)"/>
<path d="M19.0901 57.11C19.0244 57.1192 18.9576 57.1154 18.8934 57.0987C18.8292 57.0821 18.7689 57.053 18.716 57.0131C18.6091 56.9324 18.5386 56.8126 18.52 56.68C18.5015 56.5474 18.5364 56.4128 18.617 56.3059C18.6976 56.1991 18.8175 56.1286 18.9501 56.11C19.6901 55.84 22.3801 51.49 24.3501 48.31C26.4501 44.89 28.4501 41.66 29.6401 40.47C31.8701 38.24 52.4801 24.24 61.2301 18.24L18.4101 35.24C18.2867 35.2891 18.149 35.2871 18.0271 35.2346C17.9052 35.1821 17.8091 35.0833 17.7601 34.96C17.711 34.8367 17.7129 34.6989 17.7654 34.577C17.8179 34.4551 17.9167 34.3591 18.0401 34.31L65.1901 15.6C65.3097 15.5527 65.443 15.5533 65.5622 15.6017C65.6814 15.6501 65.7773 15.7426 65.8301 15.86C65.8818 15.9784 65.8856 16.1121 65.8409 16.2333C65.7962 16.3545 65.7063 16.4536 65.59 16.51C64.14 17.28 32.7001 38.83 30.3601 41.17C29.2601 42.27 27.2001 45.6 25.2201 48.82C21.8001 54.35 20.2201 56.82 19.2201 57.06C19.1809 57.086 19.1365 57.1031 19.0901 57.11Z" fill="white"/>
<path d="M38.41 46.06C38.3032 46.0609 38.1986 46.0295 38.11 45.97L37.9 45.81C34.9 43.6 31.11 40.81 30.23 41.29C30.1718 41.3207 30.108 41.3394 30.0424 41.345C29.9768 41.3505 29.9108 41.3428 29.8483 41.3223C29.7857 41.3017 29.728 41.2688 29.6784 41.2254C29.6289 41.1821 29.5886 41.1292 29.56 41.07C29.531 41.0109 29.5139 40.9467 29.5098 40.881C29.5056 40.8153 29.5145 40.7495 29.5359 40.6872C29.5572 40.625 29.5907 40.5676 29.6343 40.5183C29.6779 40.469 29.7308 40.4288 29.79 40.4C31.15 39.72 33.84 41.61 38.49 45L38.7 45.16C38.7833 45.2224 38.845 45.3093 38.8766 45.4085C38.9082 45.5077 38.908 45.6143 38.876 45.7134C38.8441 45.8125 38.782 45.8992 38.6985 45.9613C38.6149 46.0234 38.5141 46.0579 38.41 46.06Z" fill="white"/>
</g>
<defs>
<linearGradient id="paint0_linear_14356_5738" x1="31.595" y1="13.9922" x2="46.0457" y2="37.1215" gradientUnits="userSpaceOnUse">
<stop stop-color="#002698"/>
<stop offset="1" stop-color="#3263F8" stop-opacity="0.35"/>
</linearGradient>
<clipPath id="clip0_14356_5738">
<rect width="65.99" height="43.11" fill="white" transform="translate(3 14)"/>
</clipPath>
</defs>
</svg>
