<svg width="72" height="72" viewBox="0 0 72 72" fill="none" xmlns="http://www.w3.org/2000/svg">
<path d="M23.1209 10.0829L49.8785 10.0829C51.1036 10.0829 52.0967 11.0991 52.0967 12.3527L52.0967 30.4018C52.0967 31.6555 51.1036 32.6716 49.8785 32.6716L23.1209 32.6716C21.8958 32.6716 20.9027 31.6555 20.9027 30.4018L20.9027 12.3528C20.9027 11.0993 21.8959 10.0829 23.1209 10.0829Z" fill="white"/>
<path d="M50.0312 33.9422H22.9694C20.7356 33.9422 18.918 32.1245 18.918 29.8907V12.0515C18.918 9.81763 20.7354 8 22.9694 8H50.0311C52.2649 8 54.0823 9.81763 54.0823 12.0515V29.8907C54.0824 32.1246 52.265 33.9422 50.0312 33.9422ZM22.9694 11.6161C22.7294 11.6161 22.5341 11.8114 22.5341 12.0515V29.8907C22.5341 30.1308 22.7294 30.3261 22.9694 30.3261H50.0311C50.271 30.3261 50.4662 30.1308 50.4662 29.8907V12.0515C50.4662 11.8114 50.2709 11.6161 50.0311 11.6161H22.9694Z" fill="url(#paint0_linear_14430_2265)"/>
<path d="M58.3765 54.327C57.378 54.327 56.5684 53.5174 56.5684 52.519V44.4744C56.5684 43.5275 55.7978 42.7571 54.851 42.7571H18.1489C17.2021 42.7571 16.4315 43.5275 16.4315 44.4744V52.519C16.4315 53.5173 15.622 54.327 14.6235 54.327C13.6249 54.327 12.8154 53.5174 12.8154 52.519V44.4744C12.8154 41.5335 15.2079 39.1411 18.1489 39.1411H54.851C57.7919 39.1411 60.1845 41.5335 60.1845 44.4744V52.519C60.1844 53.5176 59.3748 54.327 58.3765 54.327Z" fill="url(#paint1_linear_14430_2265)"/>
<path d="M36.5004 48.5421C35.5019 48.5421 34.6924 47.7325 34.6924 46.734V32.1342C34.6924 31.1358 35.5019 30.3262 36.5004 30.3262C37.4989 30.3262 38.3085 31.1358 38.3085 32.1342V46.734C38.3085 47.7327 37.4989 48.5421 36.5004 48.5421Z" fill="url(#paint2_linear_14430_2265)"/>
<path d="M14.6235 64.8731C10.9686 64.8731 7.99512 61.8997 7.99512 58.2447C7.99512 54.5897 10.9686 51.6165 14.6235 51.6165C18.2783 51.6165 21.2519 54.5897 21.2519 58.2447C21.2519 61.8997 18.2782 64.8731 14.6235 64.8731ZM14.6235 55.2326C12.9624 55.2326 11.6111 56.5839 11.6111 58.2447C11.6111 59.9056 12.9624 61.2571 14.6235 61.2571C16.2846 61.2571 17.6359 59.9056 17.6359 58.2447C17.6359 56.5839 16.2843 55.2326 14.6235 55.2326Z" fill="url(#paint3_linear_14430_2265)"/>
<path d="M41.3209 64.8731H31.6801C30.6816 64.8731 29.8721 64.0635 29.8721 63.065V53.4245C29.8721 52.4261 30.6816 51.6165 31.6801 51.6165H41.3209C42.3193 51.6165 43.1289 52.4261 43.1289 53.4245C43.1289 54.423 42.3193 55.2326 41.3209 55.2326H33.4882V61.2571H39.5129V58.7873C39.5129 57.7889 40.3225 56.9793 41.321 56.9793C42.3194 56.9793 43.129 57.7889 43.129 58.7873V63.0651C43.1288 64.0637 42.3192 64.8731 41.3209 64.8731Z" fill="url(#paint4_linear_14430_2265)"/>
<path d="M58.3764 64.8731C54.7215 64.8731 51.748 61.8996 51.748 58.2447C51.748 54.5899 54.7216 51.6165 58.3764 51.6165C62.0313 51.6165 65.0048 54.5897 65.0048 58.2447C65.0048 61.8997 62.0313 64.8731 58.3764 64.8731ZM58.3764 55.2326C56.7153 55.2326 55.364 56.5839 55.364 58.2447C55.364 59.9056 56.7156 61.2571 58.3764 61.2571C60.0373 61.2571 61.3888 59.9056 61.3888 58.2447C61.3887 56.5839 60.0373 55.2326 58.3764 55.2326Z" fill="url(#paint5_linear_14430_2265)"/>
<path d="M31.6786 60.5953H19.4428C18.4443 60.5953 17.6348 59.7857 17.6348 58.7873C17.6348 57.789 18.4443 56.9792 19.4428 56.9792H31.6786C32.6772 56.9792 33.4867 57.7889 33.4867 58.7873C33.4867 59.7856 32.6773 60.5953 31.6786 60.5953Z" fill="url(#paint6_linear_14430_2265)"/>
<path d="M47.4082 60.5953H41.3207C40.3224 60.5953 39.5127 59.7857 39.5127 58.7873C39.5127 57.789 40.3223 56.9792 41.3207 56.9792H47.4082C48.4065 56.9792 49.2162 57.7889 49.2162 58.7873C49.2161 59.7856 48.4065 60.5953 47.4082 60.5953Z" fill="url(#paint7_linear_14430_2265)"/>
<defs>
<linearGradient id="paint0_linear_14430_2265" x1="34.1559" y1="8" x2="43.4101" y2="20.9676" gradientUnits="userSpaceOnUse">
<stop stop-color="#002698"/>
<stop offset="1" stop-color="#3263F8" stop-opacity="0.35"/>
</linearGradient>
<linearGradient id="paint1_linear_14430_2265" x1="33.342" y1="39.1411" x2="36.5833" y2="49.5929" gradientUnits="userSpaceOnUse">
<stop stop-color="#002698"/>
<stop offset="1" stop-color="#3263F8" stop-opacity="0.35"/>
</linearGradient>
<linearGradient id="paint2_linear_14430_2265" x1="36.2594" y1="30.3262" x2="38.9656" y2="30.8815" gradientUnits="userSpaceOnUse">
<stop stop-color="#002698"/>
<stop offset="1" stop-color="#3263F8" stop-opacity="0.35"/>
</linearGradient>
<linearGradient id="paint3_linear_14430_2265" x1="13.7397" y1="51.6165" x2="18.7376" y2="56.7832" gradientUnits="userSpaceOnUse">
<stop stop-color="#002698"/>
<stop offset="1" stop-color="#3263F8" stop-opacity="0.35"/>
</linearGradient>
<linearGradient id="paint4_linear_14430_2265" x1="35.6168" y1="51.6165" x2="40.6147" y2="56.7833" gradientUnits="userSpaceOnUse">
<stop stop-color="#002698"/>
<stop offset="1" stop-color="#3263F8" stop-opacity="0.35"/>
</linearGradient>
<linearGradient id="paint5_linear_14430_2265" x1="57.4926" y1="51.6165" x2="62.4906" y2="56.7832" gradientUnits="userSpaceOnUse">
<stop stop-color="#002698"/>
<stop offset="1" stop-color="#3263F8" stop-opacity="0.35"/>
</linearGradient>
<linearGradient id="paint6_linear_14430_2265" x1="24.5039" y1="56.9792" x2="25.078" y2="59.5807" gradientUnits="userSpaceOnUse">
<stop stop-color="#002698"/>
<stop offset="1" stop-color="#3263F8" stop-opacity="0.35"/>
</linearGradient>
<linearGradient id="paint7_linear_14430_2265" x1="43.7176" y1="56.9792" x2="44.5879" y2="59.3936" gradientUnits="userSpaceOnUse">
<stop stop-color="#002698"/>
<stop offset="1" stop-color="#3263F8" stop-opacity="0.35"/>
</linearGradient>
</defs>
</svg>
