<svg width="72" height="72" viewBox="0 0 72 72" fill="none" xmlns="http://www.w3.org/2000/svg">
<path d="M30.6611 24.0087L34.8649 33.5128L35.596 32.4162L37.0581 30.7712L38.5203 30.4057L40.348 30.0401L42.7241 31.5023L43.6379 33.8783V36.8027L41.4446 38.4476L39.6169 38.9959H37.0581L40.8963 48.1345C43.8816 46.9769 49.9618 44.6253 50.4005 44.4791C50.8391 44.3329 54.726 42.5904 56.6147 41.7375C56.9193 41.2501 57.4554 40.2388 57.163 40.0926C56.7975 39.9098 57.163 37.5338 56.7975 37.351C56.505 37.2048 56.5538 34.975 56.6147 33.8783L57.163 32.0506L58.6252 31.5023L60.0873 31.6851L61.3667 34.7922L62.8289 38.9959L64.6566 38.0821L65.2049 36.8027L64.6566 34.4266L55.7008 13.5907L46.0139 16.8806V15.9667L45.2829 12.6768L44.0035 11.0319L40.8963 10.8491L38.1548 11.3974L36.8754 14.5046L38.1548 17.7944L39.9825 19.0738L40.1652 19.9877L30.6611 24.0087Z" fill="url(#paint0_linear_14430_1560)"/>
<path d="M65.7673 35.7317L56.0224 12.4077L46.6196 16.3363C46.7376 15.2273 46.7376 13.6582 46.1359 12.5256C44.791 10.0127 41.6528 9.05713 39.1399 10.4021C36.627 11.747 35.6714 14.8852 37.0163 17.3981C37.4882 18.2829 38.1961 19.0026 39.0691 19.4863L29.0175 23.6744C28.7934 22.9666 28.4512 22.2941 28.0147 21.6924C28.1445 21.6216 28.2507 21.5391 28.3568 21.4329C28.6046 21.1851 28.758 20.8548 28.758 20.5009L28.7108 16.6076H29.513C29.7018 16.6076 29.8787 16.5251 30.0085 16.3953C30.1501 16.2655 30.2209 16.0767 30.2209 15.888L30.0793 5.55322L28.6636 5.57682L28.7934 15.1919L9.88169 15.3335L9.75191 5.55322L8.33619 5.57682L8.46597 16.0649C8.47776 16.4543 8.7845 16.7492 9.17383 16.761H9.99966C9.99966 16.7964 10.0469 20.6542 10.0469 20.6542C10.0587 21.079 10.271 21.4683 10.6131 21.716L10.094 22.5419C9.89348 22.8604 9.62214 23.6508 9.62214 23.6508H9.61034L7.54575 31.3547L8.08844 33.03L7.32159 33.3721C6.61373 33.6907 6.04744 34.2688 5.7761 35.0002C5.50475 35.7317 5.52835 36.5339 5.84688 37.2418L16.335 60.6719L26.1625 56.2714C26.5164 56.118 26.7642 55.7877 26.7995 55.3984C26.8349 55.0091 26.658 54.6315 26.3394 54.4192C25.0771 53.5344 24.2041 52.5787 23.9445 51.8001C23.2838 49.8417 24.3338 47.7063 26.304 47.0456C28.2625 46.385 30.3978 47.435 31.0585 49.4052C31.377 50.3372 31.3063 51.3636 30.8697 52.2484C30.681 52.6259 30.7518 53.0742 31.0467 53.3692C31.3299 53.6759 31.7782 53.7703 32.1557 53.5933L40.3197 49.9361C40.709 49.7709 41.0393 49.4877 41.2753 49.1338L42.514 48.6265C42.6556 49.7945 43.0921 50.9035 43.7882 51.8591C43.6584 51.9299 43.5522 52.0242 43.4461 52.1304C43.1865 52.3782 43.0449 52.7203 43.0449 53.0742L43.1039 56.9557H42.3017C42.1129 56.9557 41.936 57.0383 41.8062 57.168C41.6646 57.2978 41.5938 57.4866 41.6056 57.6753L41.7354 66.5826H43.1511L43.0213 58.3832L61.933 58.2298L62.0628 66.5944H63.4785L63.3487 57.522C63.3369 57.1326 63.0302 56.8259 62.6409 56.8141H61.815C61.815 56.7905 61.8268 56.7551 61.8268 56.7315L61.7678 52.9327C61.7678 52.508 61.5555 52.1068 61.2016 51.8709C61.4729 51.4344 61.6853 51.104 61.7206 51.0332C61.9212 50.7265 62.0746 50.3844 62.169 50.0186L62.1926 49.9361H62.2044L64.2689 42.2204L63.5139 39.8373L64.1982 39.5541C65.6847 38.9406 66.3925 37.2536 65.7791 35.7671C65.7791 35.7553 65.7673 35.7435 65.7673 35.7317ZM16.3468 29.3373L16.2288 29.5379C15.4266 30.9536 13.9755 31.5789 13.9637 31.5789L13.4446 31.7912C13.4446 31.7912 14.2586 36.7109 14.4828 38.1384C14.6126 38.9878 14.4592 39.8608 14.0345 40.6041C13.7277 41.0406 13.2322 41.3002 12.7013 41.3002C12.3356 41.2884 12.1822 41.0996 12.1232 40.9934L9.8227 33.8086L9.38618 32.4519L9.02046 31.3193L11.0143 23.8986C11.0733 23.6862 11.1676 23.4857 11.2856 23.2969C11.2856 23.2969 11.6513 22.707 12.0643 22.07L26.4102 21.952C27.0237 22.6009 27.472 23.3913 27.7198 24.2525L16.3468 29.3373ZM27.0827 20.5481H27.0591V20.5245L11.7575 20.6424C11.6513 20.6542 11.557 20.6188 11.4744 20.5599V20.4183L11.4272 16.8554C11.5098 16.8082 11.6041 16.7728 11.6985 16.7728L27.0237 16.6548C27.1299 16.643 27.2243 16.6784 27.3068 16.7374L27.3658 20.4655C27.2833 20.5127 27.1771 20.5481 27.0827 20.5481ZM39.7416 48.6383L32.5096 51.8827C33.2057 49.1102 31.5304 46.3024 28.758 45.6063C25.9855 44.9103 23.1777 46.5855 22.4816 49.358C22.2338 50.3136 22.281 51.3282 22.5878 52.2602C22.9889 53.4282 24.0625 54.4664 25.0417 55.2214L17.0311 58.8079L7.12103 36.6637C6.95586 36.298 6.94407 35.885 7.09744 35.5075C7.23901 35.13 7.52215 34.835 7.88788 34.6699L8.51316 34.3867L10.8255 41.5951C11.1794 42.2676 11.8637 42.7041 12.6305 42.7159C12.6305 42.7159 14.471 42.7513 15.226 41.3474V41.3238C15.8159 40.2856 16.0401 39.0822 15.8513 37.9024C15.6743 36.7699 15.1906 33.8086 14.9901 32.6171C15.9339 32.098 16.7361 31.3429 17.326 30.4463L29.3007 25.0784C29.3007 25.0784 29.631 24.8896 29.8905 24.9486C30.0439 25.0076 30.1855 25.1845 30.2563 25.3379L33.9607 33.8086C34.1141 34.198 34.5034 34.4339 34.9163 34.4103C35.3293 34.3867 35.6832 34.1036 35.813 33.7143C36.1315 32.6407 36.9101 31.7794 37.9483 31.3547C39.7888 30.5289 41.9596 31.3429 42.7854 33.1834C43.5522 34.8822 42.927 36.876 41.3225 37.8316C40.2961 38.4097 38.5028 38.2682 37.7832 38.1856C37.4057 38.1384 37.0281 38.3036 36.7922 38.6103C36.7922 38.6221 36.45 39.0114 36.6742 39.6839L40.1781 47.4939C40.3079 47.7889 40.2607 48.1428 40.0601 48.3906C39.9893 48.4967 39.8714 48.5911 39.7416 48.6383ZM60.3521 53.1332L60.4111 56.6961C60.3285 56.7551 60.2341 56.7905 60.128 56.7787L44.8028 56.8967C44.6966 56.9085 44.6022 56.8731 44.5196 56.8141L44.4607 53.145L60.3521 53.1332ZM60.8004 49.6529C60.7414 49.8653 60.6471 50.0658 60.5291 50.2546V50.2782C60.5291 50.2782 60.1752 50.8563 59.7622 51.4933L59.6207 51.7175H45.5224L45.4045 51.5995C44.4961 50.6321 43.9534 49.3698 43.8826 48.0366L54.0994 43.7777C53.8752 44.1788 53.6628 44.6035 53.4623 45.0282L54.7482 45.6299C55.0078 45.0754 55.2909 44.5327 55.5859 44.0136C55.8808 43.4945 56.2819 43.0462 56.742 42.6687C57.0842 42.3856 57.4499 42.1614 57.851 41.9726L58.3701 41.7603L58.2875 41.2058C58.2757 41.194 58.2403 40.9344 58.1696 40.5451C57.9572 39.271 57.5089 36.5103 57.3319 35.4249C57.2021 34.5755 57.3555 33.7025 57.7802 32.9592C58.087 32.5227 58.5825 32.2514 59.1134 32.2514C59.4791 32.2631 59.6325 32.4519 59.6915 32.5699L61.7678 39.035L62.2044 40.3917L62.7942 42.244L60.8004 49.6529ZM64.4695 37.4305C64.3161 37.7963 64.0212 38.0912 63.6555 38.2446L63.0774 38.4923L60.9774 31.9564C60.6235 31.2839 59.9392 30.8592 59.1842 30.8356C57.3673 30.8828 56.5769 32.216 56.5769 32.216C55.987 33.2542 55.7628 34.4575 55.9516 35.6373C56.1286 36.7817 56.6123 39.7311 56.8128 40.9226C56.5415 41.076 56.2819 41.253 56.0342 41.4417L41.641 47.4585C41.6056 47.2698 38.3259 39.8844 38.3259 39.8844C39.4938 39.967 40.8388 39.908 41.8416 39.3771L42.2899 39.1058C42.8326 38.7401 43.3045 38.28 43.6702 37.7373L43.8236 37.5013C44.0949 37.053 44.2955 36.5693 44.4253 36.062C44.4371 36.0384 44.4371 36.0148 44.4371 35.9912H44.4489C44.5786 35.5311 44.6376 35.0592 44.6376 34.5755C44.6376 34.0564 44.555 33.5255 44.4017 33.03C43.5522 30.3047 40.65 28.7946 37.9248 29.6441C36.6152 30.057 35.518 30.9772 34.881 32.2042L34.0433 30.3283C33.772 29.6559 31.9669 25.6918 31.5658 24.7716C31.4714 24.5947 31.3652 24.4177 31.2355 24.2643L40.5674 20.4183C40.9567 20.2531 41.1927 19.8638 41.1691 19.4509C41.1573 19.038 40.8742 18.684 40.4848 18.5661C38.5028 17.9644 37.3821 15.8762 37.9837 13.8824C38.0427 13.6936 38.1135 13.5166 38.1961 13.3397C38.6562 12.3723 39.5056 11.6408 40.5438 11.3577C42.2427 10.874 44.0477 11.629 44.8854 13.1863C45.4399 14.2245 45.2511 16.006 45.1449 16.7256C45.0977 17.1149 45.2511 17.4925 45.5578 17.7284C45.8646 17.9644 46.2657 18.0234 46.6196 17.87L55.2555 14.2599L64.4577 36.2744C64.6229 36.6401 64.6229 37.0648 64.4695 37.4305Z" fill="url(#paint1_linear_14430_1560)"/>
<defs>
<linearGradient id="paint0_linear_14430_1560" x1="45.6301" y1="10.8491" x2="59.6819" y2="24.3072" gradientUnits="userSpaceOnUse">
<stop stop-color="#002698"/>
<stop offset="1" stop-color="#3263F8" stop-opacity="0.35"/>
</linearGradient>
<linearGradient id="paint1_linear_14430_1560" x1="31.767" y1="5.55322" x2="54.7871" y2="29.1048" gradientUnits="userSpaceOnUse">
<stop stop-color="#002698"/>
<stop offset="1" stop-color="#3263F8"/>
</linearGradient>
</defs>
</svg>
