<svg width="72" height="61" viewBox="0 0 72 61" fill="none" xmlns="http://www.w3.org/2000/svg">
<path d="M41.5695 60.8588C24.7898 60.8588 11.1392 47.2104 11.1392 30.4351C11.1392 13.6598 24.7898 0.0124512 41.5695 0.0124512C58.3493 0.0124512 71.9999 13.6598 71.9999 30.4351C71.9999 47.2104 58.3493 60.8588 41.5695 60.8588ZM41.5695 0.498439C25.0582 0.498439 11.6252 13.9282 11.6252 30.4307C11.6252 46.9332 25.0582 60.3629 41.5695 60.3629C58.0809 60.3629 71.5139 46.9332 71.5139 30.4307C71.5139 13.9282 58.0809 0.502854 41.5695 0.502854V0.498439Z" fill="url(#paint0_linear_14352_1307)"/>
<path d="M41.5696 53.9635C36.1269 53.9627 30.8528 52.0747 26.6459 48.6213C22.4391 45.1679 19.5598 40.3626 18.4986 35.0243C17.4375 29.686 18.2601 24.1449 20.8263 19.345C23.3925 14.5452 27.5436 10.7837 32.5723 8.70133C37.601 6.61896 43.1961 6.34459 48.4044 7.92498C53.6126 9.50536 58.1118 12.8427 61.1354 17.3684C64.1589 21.8941 65.5197 27.3282 64.9859 32.7447C64.4521 38.1613 62.0568 43.2251 58.208 47.0736C56.0279 49.265 53.4348 51.0022 50.5788 52.1849C47.7229 53.3675 44.6608 53.9721 41.5696 53.9635Z" fill="url(#paint1_linear_14352_1307)"/>
<path d="M41.5697 46.4408C37.8677 46.4409 34.2802 45.1573 31.4184 42.8089C28.5566 40.4605 26.5976 37.1925 25.8751 33.5616C25.1526 29.9308 25.7114 26.1618 27.4562 22.8967C29.201 19.6317 32.0239 17.0726 35.4439 15.6554C38.8639 14.2383 42.6695 14.0508 46.2123 15.1248C49.7551 16.1989 52.8159 18.4681 54.8732 21.5458C56.9305 24.6236 57.8571 28.3194 57.495 32.0037C57.133 35.6879 55.5047 39.1327 52.8876 41.7511C51.4048 43.2422 49.641 44.4244 47.6983 45.2294C45.7556 46.0344 43.6726 46.4461 41.5697 46.4408Z" fill="white"/>
<path d="M34.8417 24.7674C36.1537 23.2114 37.9645 22.1585 39.9658 21.7881C41.9671 21.4177 44.0348 21.7527 45.8168 22.736C47.5987 23.7194 48.9845 25.2902 49.738 27.1809C50.4915 29.0715 50.5661 31.1649 49.949 33.1044C49.332 35.0438 48.0615 36.7093 46.354 37.817C44.6466 38.9246 42.6079 39.406 40.5854 39.1789C38.5628 38.9519 36.6816 38.0305 35.2623 36.5718C33.843 35.1131 32.9734 33.2074 32.8017 31.1794C32.7014 30.0288 32.83 28.8698 33.1801 27.7692C33.5303 26.6687 34.095 25.6484 34.8417 24.7674Z" fill="url(#paint2_linear_14352_1307)"/>
<path d="M34.1431 26.0526L41.9586 30.2276L34.85 24.9392L34.1431 26.0526Z" fill="url(#paint3_linear_14352_1307)"/>
<path d="M7.59717 8.439L14.3634 12.7289L14.454 7.97953C14.4741 6.92725 14.2229 5.88752 13.7245 4.9605C13.2262 4.03348 12.4975 3.25041 11.6088 2.68671L7.75403 0.242432L7.59717 8.439Z" fill="url(#paint4_linear_14352_1307)"/>
<path d="M14.0027 12.9718C13.9565 12.972 13.9113 12.9589 13.8724 12.9342L7.11054 8.64428C7.07565 8.62147 7.04717 8.59011 7.02784 8.55318C7.0085 8.51625 6.99896 8.47499 7.00009 8.43332L7.15692 0.238953C7.15764 0.195768 7.16987 0.153555 7.19233 0.11666C7.21478 0.0797657 7.24666 0.0495227 7.28469 0.0290459C7.32271 0.008569 7.36551 -0.00140302 7.40867 0.00015897C7.45184 0.00172096 7.49381 0.014759 7.53026 0.037931L11.385 2.48221C12.3067 3.0707 13.0624 3.88534 13.5802 4.84855C14.0979 5.81176 14.3605 6.89148 14.3429 7.98489L14.2523 12.7343C14.2516 12.7774 14.2393 12.8194 14.2168 12.8562C14.1942 12.8929 14.1623 12.9229 14.1242 12.943C14.0871 12.9635 14.045 12.9734 14.0027 12.9718ZM7.48606 8.3063L13.7719 12.2925L13.8547 7.97605C13.8701 6.96647 13.6271 5.96971 13.1489 5.08047C12.6706 4.19122 11.9729 3.43901 11.1221 2.8953L7.63297 0.686278L7.48606 8.3063Z" fill="url(#paint5_linear_14352_1307)"/>
<path d="M7.59706 8.43872L14.3633 12.7286L10.1054 14.8349C9.16183 15.3015 8.114 15.5173 7.06282 15.4616C6.01165 15.4059 4.99251 15.0805 4.10351 14.5168L0.248779 12.0726L7.59706 8.43872Z" fill="url(#paint6_linear_14352_1307)"/>
<path d="M7.39173 15.7087C6.1799 15.7117 4.99226 15.3696 3.96775 14.7223L0.112993 12.2781C0.0765599 12.255 0.046936 12.2226 0.0271345 12.1843C0.00733299 12.146 -0.00191802 12.1031 0.000330685 12.0601C0.00257939 12.017 0.0162326 11.9753 0.0399162 11.9393C0.0635997 11.9033 0.0964673 11.8742 0.135105 11.855L7.48342 8.22009C7.52101 8.20177 7.56265 8.19337 7.60441 8.19569C7.64617 8.19801 7.68665 8.21097 7.72198 8.23334L14.4882 12.5233C14.5246 12.5465 14.5542 12.5789 14.574 12.6173C14.5937 12.6557 14.603 12.6986 14.6007 12.7418C14.5985 12.7849 14.5848 12.8266 14.5612 12.8628C14.5375 12.8989 14.5047 12.9281 14.4661 12.9474L10.2071 15.0526C9.33144 15.4844 8.36811 15.7089 7.39173 15.7087ZM0.743691 12.0991L4.23282 14.3082C5.08773 14.8467 6.06624 15.1576 7.07524 15.2112C8.08424 15.2647 9.09017 15.0592 9.99728 14.6141L13.8686 12.7022L7.58171 8.71712L0.743691 12.0991Z" fill="url(#paint7_linear_14352_1307)"/>
<path d="M29.5491 23.6484L9.19402 10.7407C8.99215 10.6127 8.84942 10.4097 8.7972 10.1765C8.74497 9.94321 8.78754 9.69876 8.91555 9.49689L9.11725 9.17881C9.24526 8.97695 9.44823 8.8342 9.68149 8.78198C9.91475 8.72975 10.1592 8.77232 10.361 8.90033L30.7161 21.8081L29.5491 23.6484Z" fill="white"/>
<path d="M29.5472 23.8922C29.5014 23.8922 29.4566 23.8792 29.418 23.8547L9.06293 10.9473C8.80673 10.7844 8.62564 10.5265 8.55938 10.2302C8.49311 9.93384 8.5471 9.62335 8.70949 9.36679L8.91163 9.04869C9.07437 8.79257 9.33211 8.61149 9.62824 8.54523C9.92437 8.47896 10.2347 8.53292 10.4911 8.69525L30.8461 21.6026C30.9015 21.6369 30.9411 21.6917 30.9565 21.755C30.9635 21.7862 30.9643 21.8184 30.9588 21.8498C30.9533 21.8813 30.9417 21.9114 30.9245 21.9383L29.7559 23.7795C29.7338 23.8147 29.703 23.8436 29.6664 23.8634C29.6298 23.8831 29.5888 23.893 29.5472 23.8922ZM9.32361 10.5365L29.4732 23.3134L30.3811 21.8776L10.2326 9.10613C10.1596 9.05959 10.0782 9.02793 9.99295 9.01296C9.9077 8.99799 9.82035 9.00001 9.73588 9.01889C9.65142 9.03777 9.57152 9.07315 9.50077 9.123C9.43002 9.17285 9.36982 9.23618 9.32361 9.30936L9.12147 9.62746C9.02886 9.77511 8.99813 9.95331 9.03596 10.1234C9.0738 10.2936 9.17715 10.442 9.32361 10.5365Z" fill="url(#paint8_linear_14352_1307)"/>
<path d="M32.622 26.4359L24.1104 21.0385L26.0363 18.0013L34.5479 23.3988C34.8811 23.6101 35.1168 23.9451 35.203 24.3302C35.2892 24.7152 35.2189 25.1188 35.0076 25.452L34.6775 25.9725C34.5732 26.1381 34.4372 26.2815 34.2773 26.3945C34.1175 26.5074 33.9369 26.5878 33.7459 26.6308C33.555 26.6739 33.3574 26.6788 33.1645 26.6454C32.9717 26.6119 32.7873 26.5407 32.622 26.4359Z" fill="white"/>
<path d="M33.4149 26.9108C33.0878 26.9108 32.7676 26.8177 32.4915 26.6424L23.9791 21.2446C23.9264 21.2096 23.8892 21.1557 23.8752 21.094C23.8613 21.0323 23.8715 20.9676 23.904 20.9133L25.8313 17.877C25.8658 17.8236 25.9198 17.7859 25.9817 17.7719C26.0436 17.7578 26.1086 17.7686 26.1627 17.8019L34.6774 23.1952C34.8693 23.3168 35.0354 23.4751 35.1662 23.661C35.297 23.8468 35.3898 24.0566 35.4395 24.2784C35.4891 24.5002 35.4946 24.7295 35.4555 24.9534C35.4165 25.1773 35.3337 25.3913 35.2119 25.5831L34.8806 26.1089C34.7237 26.3553 34.5071 26.5581 34.2508 26.6983C33.9946 26.8385 33.707 26.9116 33.4149 26.9108ZM24.4452 20.9641L32.7511 26.2315C33.0298 26.4082 33.3673 26.467 33.6894 26.3949C34.0115 26.3228 34.2918 26.1258 34.4686 25.8471L34.7999 25.3225C34.8878 25.1846 34.9476 25.0308 34.9758 24.8698C35.0041 24.7087 35.0003 24.5437 34.9647 24.3842C34.9291 24.2246 34.8624 24.0737 34.7684 23.94C34.6743 23.8063 34.5548 23.6924 34.4167 23.605L26.1119 18.3353L24.4452 20.9641Z" fill="url(#paint9_linear_14352_1307)"/>
<defs>
<linearGradient id="paint0_linear_14352_1307" x1="37.5122" y1="0.0124505" x2="60.4519" y2="23.7323" gradientUnits="userSpaceOnUse">
<stop stop-color="#002698"/>
<stop offset="1" stop-color="#3263F8"/>
</linearGradient>
<linearGradient id="paint1_linear_14352_1307" x1="38.4364" y1="6.91138" x2="56.1758" y2="25.2496" gradientUnits="userSpaceOnUse">
<stop stop-color="#002698"/>
<stop offset="1" stop-color="#3263F8" stop-opacity="0.25"/>
</linearGradient>
<linearGradient id="paint2_linear_14352_1307" x1="49.046" y1="35.2136" x2="39.5283" y2="35.8613" gradientUnits="userSpaceOnUse">
<stop stop-color="#002698"/>
<stop offset="1" stop-color="#3263F8" stop-opacity="0.25"/>
</linearGradient>
<linearGradient id="paint3_linear_14352_1307" x1="37.5298" y1="24.9392" x2="39.358" y2="27.7323" gradientUnits="userSpaceOnUse">
<stop stop-color="#002698"/>
<stop offset="1" stop-color="#3263F8"/>
</linearGradient>
<linearGradient id="paint4_linear_14352_1307" x1="10.5689" y1="0.242432" x2="14.6137" y2="2.53891" gradientUnits="userSpaceOnUse">
<stop stop-color="#002698"/>
<stop offset="1" stop-color="#3263F8" stop-opacity="0.25"/>
</linearGradient>
<linearGradient id="paint5_linear_14352_1307" x1="10.1823" y1="-1.36085e-07" x2="14.4485" y2="2.49677" gradientUnits="userSpaceOnUse">
<stop stop-color="#002698"/>
<stop offset="1" stop-color="#3263F8" stop-opacity="0.25"/>
</linearGradient>
<linearGradient id="paint6_linear_14352_1307" x1="6.36507" y1="8.43872" x2="8.43972" y2="12.7438" gradientUnits="userSpaceOnUse">
<stop stop-color="#002698"/>
<stop offset="1" stop-color="#3263F8" stop-opacity="0.25"/>
</linearGradient>
<linearGradient id="paint7_linear_14352_1307" x1="6.32712" y1="8.19531" x2="8.58841" y2="12.7381" gradientUnits="userSpaceOnUse">
<stop stop-color="#002698"/>
<stop offset="1" stop-color="#3263F8" stop-opacity="0.25"/>
</linearGradient>
<linearGradient id="paint8_linear_14352_1307" x1="18.2517" y1="8.51758" x2="23.594" y2="16.5747" gradientUnits="userSpaceOnUse">
<stop stop-color="#002698"/>
<stop offset="1" stop-color="#3263F8" stop-opacity="0.25"/>
</linearGradient>
<linearGradient id="paint9_linear_14352_1307" x1="28.9011" y1="17.7659" x2="32.2269" y2="22.1315" gradientUnits="userSpaceOnUse">
<stop stop-color="#002698"/>
<stop offset="1" stop-color="#3263F8" stop-opacity="0.25"/>
</linearGradient>
</defs>
</svg>
