<svg width="119" height="42" viewBox="0 0 119 42" fill="none" xmlns="http://www.w3.org/2000/svg">
<path fill-rule="evenodd" clip-rule="evenodd" d="M59.2895 41.9526C92.0345 41.9526 118.58 32.5619 118.58 20.9763C118.58 9.39131 92.0345 0 59.2895 0C26.545 0 1.13499e-08 9.39131 1.13499e-08 20.9763C-0.000633809 32.5613 26.545 41.9526 59.2895 41.9526Z" fill="#6F788B"/>
<path fill-rule="evenodd" clip-rule="evenodd" d="M59.2776 41.5362C91.3711 41.5362 117.82 32.3312 117.82 20.9763C117.82 9.62206 91.3711 0.417725 59.2776 0.417725C27.1847 0.417725 0.61499 9.62206 0.61499 20.9763C0.61499 32.3312 27.1847 41.5362 59.2776 41.5362Z" fill="white"/>
<path fill-rule="evenodd" clip-rule="evenodd" d="M114.43 26.1615C111.815 28.8945 108.645 30.6908 105.372 32.1409C95.7373 36.3774 85.0537 38.3777 74.1019 39.7531C56.5825 41.8625 38.549 39.9724 22.7796 35.7734C15.7391 33.7914 8.71889 31.1509 3.71678 25.3736C2.66717 23.9241 1.45214 22.4758 1.51425 20.6048L1.74052 19.9811C1.80264 20.2568 1.94652 20.5496 2.23427 20.7151C2.81105 20.9718 3.69649 20.6967 4.04636 21.2836C4.29355 21.9618 4.10784 22.806 4.56102 23.4101C5.98142 26.1805 8.8222 29.0416 11.9305 30.4898C20.2474 34.9659 29.6964 36.9827 39.3723 38.5242C53.35 40.7064 69.4287 40.3591 83.118 37.8643C91.0033 36.4706 98.7429 34.7643 105.702 31.3531C108.996 29.8674 111.713 26.8954 113.359 24.0528C114.019 22.8422 114.554 21.5771 114.533 20.0914C114.575 19.926 114.657 19.6876 114.905 19.6693C115.501 19.4855 116.468 19.9076 116.634 19.1007L116.737 18.7705C118.177 21.4471 116.426 24.1618 114.43 26.1615Z" fill="#6F788B"/>
<path fill-rule="evenodd" clip-rule="evenodd" d="M113.771 19.9248C113.834 22.4373 112.392 24.437 110.931 26.3999C108.748 29.0778 105.64 30.8005 102.491 31.8837C105.311 30.3797 108.667 28.5822 110.499 25.7756C111.673 24.0142 112.846 22.2351 112.784 20.0161C113.072 19.9616 113.442 19.9799 113.771 19.9248ZM5.63099 21.2641C6.12537 24.4927 8.57509 27.2619 11.6833 29.2794L13.9068 30.7093C9.93336 29.2052 5.87818 25.7762 4.80766 22.0164L4.70435 21.1164L5.63099 21.2641Z" fill="#6F788B"/>
<path fill-rule="evenodd" clip-rule="evenodd" d="M59.2173 38.62C88.2666 38.62 111.816 30.4906 111.816 20.4636C111.816 10.4359 88.2666 2.30652 59.2173 2.30652C30.1687 2.30652 6.61914 10.4359 6.61914 20.4636C6.61914 30.4906 30.1687 38.62 59.2173 38.62Z" fill="#6F788B"/>
<path fill-rule="evenodd" clip-rule="evenodd" d="M59.1632 37.2003C87.2896 37.2003 110.091 29.7465 110.091 20.5523C110.091 11.3581 87.2896 3.90442 59.1632 3.90442C31.0368 3.90442 8.23511 11.3581 8.23511 20.5523C8.23511 29.7465 31.0368 37.2003 59.1632 37.2003Z" fill="white"/>
<path fill-rule="evenodd" clip-rule="evenodd" d="M59.1633 35.8159C86.4315 35.8159 108.539 28.9827 108.539 20.5523C108.539 12.1224 86.4315 5.28796 59.1633 5.28796C31.8945 5.28796 9.78809 12.1224 9.78809 20.5523C9.78745 28.9827 31.8945 35.8159 59.1633 35.8159Z" fill="#6F788B"/>
<path fill-rule="evenodd" clip-rule="evenodd" d="M52.1637 8.55855L60.2715 9.62843C64.4186 10.1799 69.2413 10.2971 73.2572 9.36096C73.7078 9.34448 74.2897 9.17715 74.6459 9.4947C74.8341 9.64491 74.8709 9.84584 74.8158 10.0632C74.6275 10.8828 73.6337 11.4342 72.882 11.8354C69.3541 13.6412 64.3996 12.8552 60.608 12.0693L54.4714 10.6311H54.453C54.3966 10.865 54.5088 11.1661 54.3592 11.367C51.976 12.6543 49.7799 14.7611 48.4102 16.8686C49.7615 16.8185 51.1502 16.7684 52.4451 16.5174C52.2575 15.5312 52.6327 14.6115 53.5333 13.9929C54.0214 13.7083 54.6406 13.5416 55.2225 13.6754C55.6357 13.8091 55.9919 14.1767 56.1047 14.545C56.3114 15.2973 55.9729 15.9996 55.3727 16.5181C54.9601 16.8356 54.5094 17.0866 54.0214 17.2368L54.0404 17.2869C54.3782 17.5544 54.8099 17.7553 55.0723 18.0899C55.081 18.144 55.077 18.1993 55.0608 18.2515C55.0445 18.3037 55.0163 18.3515 54.9785 18.391C54.8289 18.5412 54.6406 18.5412 54.4346 18.5583C53.74 18.5083 53.3273 17.8896 52.8393 17.472C51.1502 17.7058 49.4046 17.8561 47.6591 17.9904L46.5518 19.395L43.5488 23.5744C41.184 26.7524 37.6371 30.4475 32.8892 29.9284C30.6746 29.7281 28.3472 28.2735 27.7096 26.3176C26.8463 23.859 28.2541 21.5848 30.4122 20.0972C31.2191 19.5953 32.1761 19.2784 33.2086 19.395C33.4336 19.445 33.6586 19.5953 33.7524 19.7962C33.8089 19.9635 33.8089 20.1809 33.6967 20.2982C32.777 21.0841 31.5195 21.536 30.8812 22.5882C30.3558 23.3918 30.1872 24.6455 30.8255 25.448C31.8199 26.6522 33.6777 26.8354 35.1792 26.4012C39.2141 25.1469 42.0853 21.3009 44.6383 18.3587C43.2122 18.4924 41.8039 18.7428 40.6782 19.5458C40.5654 19.5959 40.3778 19.6295 40.2466 19.5623C40.0773 19.4786 40.059 19.3113 40.0216 19.1611C40.1154 18.3923 41.0724 18.0747 41.7291 17.8237C42.9866 17.3889 44.3943 17.2717 45.745 17.0549C47.6781 14.4968 50.4745 11.9216 53.4776 10.4835C48.6168 9.46364 41.4286 7.9748 37.8064 12.1726C37.3373 12.7747 37.0179 13.5435 37.2809 14.3124C37.5814 14.8809 38.219 15.1984 38.8953 15.232C40.7714 15.2656 42.0669 13.844 43.3054 12.6568C43.4366 12.5732 43.6058 12.4895 43.7934 12.5396C43.9436 12.5732 44.0184 12.724 44.0748 12.8235C44.1129 14.0113 43.23 14.8967 42.4611 15.7999C40.8842 17.3547 38.726 18.4081 36.3803 17.7394C35.1228 17.3883 34.2221 16.2012 34.1093 15.0641C33.8279 12.7735 35.4606 10.8004 37.6371 9.76407C40.959 8.05846 45.2005 7.85754 49.2728 8.25875L52.1637 8.55855Z" fill="white"/>
<path fill-rule="evenodd" clip-rule="evenodd" d="M82.1921 26.8842C82.0609 27.2024 81.8358 27.5858 82.0609 27.9541C82.1737 28.0878 82.3233 28.2551 82.5299 28.2881C83.3367 28.3546 83.956 27.9205 84.5936 27.5193C85.7199 26.6839 86.7524 25.6305 87.8033 24.6931C88.0099 24.5593 88.1969 24.3762 88.4593 24.4256C88.7603 24.5257 89.1539 24.7438 89.2294 25.0619L89.1907 25.2115C87.0902 27.2182 84.9308 29.9937 81.7782 30.2612C80.9339 30.3119 80.2209 30.0273 79.7145 29.4416C79.3766 29.0404 79.3196 28.5055 79.3766 27.987C77.7439 29.2743 75.7163 30.6459 73.446 29.7598C72.1137 29.0582 71.7004 27.7373 71.7949 26.3828C71.8703 25.9468 72.0389 25.5462 72.1885 25.1285C70.8562 25.9132 69.3737 27.1003 67.6091 26.4323C66.7649 26.0805 66.3142 25.2958 66.2585 24.5099C66.2014 24.2589 66.2768 23.9749 66.2768 23.7411L61.9599 29.827L59.1451 29.8112C59.0887 29.7776 58.9949 29.7269 59.0139 29.6603L59.0887 29.4264L63.5926 23.0559C63.8366 22.5533 64.2499 21.9353 63.8924 21.3503C63.5368 21.0657 63.0482 21.3167 62.6913 21.4346C60.7962 22.3866 59.3321 24.193 58.0182 25.6983C56.2542 27.8546 53.833 30.5806 50.4548 30.0286C48.8595 29.8612 47.7712 28.4231 47.4334 27.17C47.4334 27.1193 47.4143 27.0686 47.3769 27.0521C46.6075 27.6378 46.0256 28.4573 45.1814 28.8744C45.0459 28.908 44.9043 28.908 44.7688 28.8744C44.431 28.624 44.3371 28.2729 44.2617 27.9211C44.3936 27.4863 44.9374 27.3196 45.2568 26.985C47.6026 24.7603 48.2782 21.4504 51.6939 20.096C52.5381 19.7448 53.4388 19.5274 54.4529 19.5439C54.7343 19.5439 54.9784 19.7613 55.0905 19.9952C55.1983 20.1543 55.3155 20.4046 55.2034 20.5973C54.8655 20.8977 54.3585 20.8977 53.9649 21.0651C52.0317 21.851 50.155 23.6067 49.9864 25.5303C49.9116 26.3328 50.174 27.1345 50.9999 27.5706C52.0317 28.0384 53.2518 27.6372 54.0777 27.0186C55.5792 25.7978 56.3106 24.2766 56.5173 22.5533C56.5737 21.8516 56.3106 21.266 56.123 20.648C56.123 20.2303 56.5921 19.9122 56.9679 19.7448C57.2493 19.6276 57.7 19.5274 57.9814 19.7112C58.6387 20.3134 58.7508 21.1323 58.7882 21.9518C58.7882 22.1857 58.8073 22.4196 58.7509 22.6376C60.6086 21.2166 62.1671 18.7079 64.8881 19.0426C65.5638 19.1262 66.2014 19.6612 66.3529 20.2633C66.4644 20.6645 66.4087 21.1652 66.3332 21.5506C67.4038 20.2798 68.8299 19.0426 70.7066 19.31C71.4197 19.4102 72.1511 19.9616 72.3393 20.5973C72.5643 21.3497 72.2823 22.0849 71.7004 22.6198C71.2885 22.938 70.8378 23.1383 70.2743 23.0889C69.8053 23.0382 69.373 22.855 69.1106 22.4525C68.8666 22.102 68.8666 21.5341 69.1106 21.1982C68.4914 21.2647 68.0965 21.9011 67.9096 22.3695C67.7029 23.0046 67.4031 23.8906 68.0224 24.4592C68.4344 24.9954 69.2418 24.811 69.8237 24.7267C73.5588 23.5902 75.7917 19.1091 80.2583 19.594C81.0651 19.6776 81.8726 19.9787 82.2662 20.6975C82.4171 20.9979 82.5483 21.2825 82.604 21.6171L87.7278 14.4943L90.8811 14.6946L82.1921 26.8842Z" fill="white"/>
<path fill-rule="evenodd" clip-rule="evenodd" d="M80.7842 21.7009C81.1594 22.3695 80.7658 23.1384 80.4648 23.7411L81.0282 23.9243C79.9399 25.3453 78.8136 27.1853 76.8799 27.8198C76.4489 27.9535 75.81 27.9871 75.4354 27.7367C74.8161 27.3184 74.7597 26.599 74.8909 25.9468C75.4354 23.975 77.1999 21.6337 79.6395 21.2489C80.1269 21.1824 80.5205 21.3833 80.7842 21.7009ZM54.9769 14.417C55.2032 14.5818 55.1417 14.8936 55.1005 15.1136C54.8743 15.774 54.1124 16.1226 53.4532 16.3058C53.3093 15.535 53.5153 14.7282 54.2975 14.3428C54.5035 14.2699 54.8121 14.2699 54.9769 14.417Z" fill="#6F788B"/>
</svg>
