<svg width="22" height="21" viewBox="0 0 22 21" fill="none" xmlns="http://www.w3.org/2000/svg">
<path fill-rule="evenodd" clip-rule="evenodd" d="M18.6906 16.6887C18.3251 17.6072 17.6175 18.3148 16.6944 18.6849C15.3121 19.2332 12.0319 19.1067 10.5043 19.1067C8.97668 19.1067 5.69184 19.2285 4.31417 18.6849C3.39573 18.3194 2.68816 17.6119 2.31796 16.6887C1.76971 15.3064 1.89623 12.0262 1.89623 10.4986C1.89623 8.97101 1.7744 5.68616 2.31796 4.3085C2.68347 3.39005 3.39104 2.68248 4.31417 2.31229C5.69653 1.76404 8.97667 1.89056 10.5043 1.89056C12.0319 1.89056 15.3167 1.76872 16.6944 2.31229C17.6129 2.67779 18.3204 3.38537 18.6906 4.3085C19.2389 5.69085 19.1124 8.971 19.1124 10.4986C19.1124 12.0262 19.2389 15.3111 18.6906 16.6887ZM20.9306 6.16922C20.851 4.48698 20.4667 2.99684 19.2343 1.76913C18.0066 0.541423 16.5165 0.15717 14.8342 0.072827C13.1005 -0.0255777 7.90375 -0.0255777 6.16995 0.072827C4.49239 0.152491 3.00226 0.536736 1.76987 1.76445C0.537468 2.99216 0.157903 4.48229 0.0735594 6.16454C-0.0248453 7.89833 -0.0248453 13.095 0.0735594 14.8288C0.153224 16.5111 0.537468 18.0012 1.76987 19.2289C3.00226 20.4566 4.48771 20.8409 6.16995 20.9252C7.90375 21.0236 13.1005 21.0236 14.8342 20.9252C16.5165 20.8456 18.0066 20.4613 19.2343 19.2289C20.4621 18.0012 20.8463 16.5111 20.9306 14.8288C21.0291 13.095 21.0291 7.90302 20.9306 6.16922H20.9306ZM17.3646 4.8951C17.3646 5.59331 16.8022 6.15094 16.1087 6.15094C15.4105 6.15094 14.8529 5.58862 14.8529 4.8951C14.8529 4.20158 15.4152 3.63928 16.1087 3.63928C16.8022 3.63928 17.3646 4.20159 17.3646 4.8951ZM10.5044 14.0005C8.57848 14.0005 7.00401 12.4307 7.00401 10.5001C7.00401 8.56945 8.57379 6.99967 10.5044 6.99967C12.435 6.99967 14.0048 8.56945 14.0048 10.5001C14.0048 12.4307 12.4303 14.0005 10.5044 14.0005ZM10.5045 5.11558C7.5242 5.11558 5.12032 7.51946 5.12032 10.4997C5.12032 13.48 7.5242 15.8839 10.5045 15.8839C13.4847 15.8839 15.8886 13.48 15.8886 10.4997C15.8886 7.51946 13.4847 5.11558 10.5045 5.11558Z" fill="#DFDFE4"/>
</svg>
