<svg width="21" height="21" viewBox="0 0 21 21" fill="none" xmlns="http://www.w3.org/2000/svg">
<path fill-rule="evenodd" clip-rule="evenodd" d="M20.9954 20.9998H16.8167V14.435C16.8167 12.8705 16.7851 10.8641 14.6394 10.8641C12.4621 10.8641 12.1285 12.5639 12.1285 14.3223V20.9998H7.94523V7.51408H11.9616V9.35365H12.0202C12.5793 8.29409 13.945 7.17592 15.9825 7.17592C20.2208 7.17592 20.9999 9.96685 20.9999 13.5919V20.9998H20.9954ZM3.22604 5.6743C1.88695 5.6743 0.800781 4.56514 0.800781 3.22604C0.800781 1.88661 1.88661 0.800781 3.22604 0.800781C4.56548 0.800781 5.65131 1.88661 5.65131 3.22604C5.65131 4.56514 4.5647 5.6743 3.22604 5.6743ZM5.32199 21.0002H1.13426V7.51445H5.32199V21.0002Z" fill="#DFDFE4"/>
</svg>
