<svg width="20" height="21" viewBox="0 0 20 21" fill="none" xmlns="http://www.w3.org/2000/svg">
<path d="M0.00130811 0.0185136C0.0485366 0.00991425 0.0961857 0.00394216 0.144045 0.000622968C2.04282 0.000622968 3.94145 0.000622968 5.83994 0.000622968C5.87387 -0.0022089 5.9079 0.00465125 5.93826 0.0204423C5.96862 0.0362333 5.99412 0.0603372 6.01192 0.0900773C6.35762 0.60936 6.7077 1.12596 7.05515 1.6439C7.84085 2.81217 8.6251 3.98075 9.40789 5.14962L11.0862 7.65434C11.098 7.67223 11.1124 7.68833 11.1325 7.71472C11.3267 7.48527 11.5171 7.26163 11.7061 7.03665C12.284 6.34845 12.8615 5.65995 13.4385 4.97115C14.0255 4.27102 14.6124 3.57134 15.1994 2.87211C15.7561 2.20925 16.313 1.54684 16.8703 0.884879C17.0951 0.616516 17.3177 0.348153 17.5464 0.0824738C17.5841 0.0395622 17.6361 0.0127386 17.6922 0.00733177C18.2121 0.00196451 18.7324 0.00375371 19.2523 0.00464825C19.2908 0.00820723 19.329 0.0144839 19.3666 0.0234336L19.1126 0.327579C18.4433 1.12641 17.774 1.92494 17.1047 2.72317C16.3874 3.57746 15.6692 4.431 14.9501 5.2838C14.1321 6.25617 13.3147 7.22883 12.4979 8.2018C12.3233 8.41068 12.1487 8.62179 11.9719 8.82798C11.9213 8.88657 11.9365 8.92906 11.9719 8.98318C12.2958 9.46415 12.6191 9.94541 12.9418 10.427C13.3023 10.9637 13.6627 11.5004 14.023 12.0372C14.4455 12.6657 14.8675 13.2943 15.2889 13.9229C15.7882 14.6683 16.2873 15.4138 16.786 16.1592C17.4466 17.1432 18.1075 18.1272 18.7686 19.1112C19.1781 19.7213 19.5869 20.3326 19.9952 20.945C19.9987 20.9499 19.9952 20.9589 20 20.9839C19.9649 20.9918 19.9293 20.997 19.8935 20.9996C17.984 20.9996 16.0744 20.9996 14.1649 20.9996C14.1346 21.0018 14.1043 20.9953 14.0774 20.9808C14.0505 20.9664 14.028 20.9445 14.0125 20.9177C13.5103 20.1654 13.0062 19.414 12.5005 18.6635C11.6586 17.4111 10.8168 16.1574 9.9749 14.9024C9.5384 14.252 9.10292 13.6013 8.66846 12.95C8.64838 12.9201 8.62481 12.891 8.59731 12.8512L8.12414 13.4112L5.54355 16.4812C4.73835 17.4396 3.93316 18.3981 3.12796 19.3568C2.69146 19.8787 2.25496 20.4025 1.81322 20.9222C1.77568 20.9631 1.7243 20.9877 1.66961 20.9911C1.15673 20.996 0.643838 20.9947 0.13095 20.9938C0.0870122 20.9901 0.0432998 20.9839 0 20.9754L0.467493 20.4181C1.18917 19.5576 1.91071 18.697 2.6321 17.8365C3.46115 16.8504 4.2905 15.8643 5.12015 14.8782C5.78043 14.0916 6.43998 13.3038 7.0988 12.5148C7.31138 12.2608 7.52352 12.0058 7.74133 11.7545C7.79764 11.6896 7.80331 11.6467 7.75399 11.5756C7.23455 10.8089 6.71715 10.0405 6.20179 9.27033C5.39863 8.07075 4.59605 6.87072 3.79406 5.67024C3.20857 4.79627 2.6222 3.92275 2.03496 3.04967C1.36144 2.04689 0.689232 1.04456 0.00130811 0.0185136ZM17.5704 19.6582C17.5421 19.6095 17.5268 19.5804 17.5098 19.554C17.057 18.8888 16.6042 18.224 16.1514 17.5596C15.8354 17.0962 15.5167 16.6342 15.2002 16.1704C14.6389 15.3471 14.078 14.5231 13.5175 13.6983C13.0531 13.0185 12.5856 12.3409 12.1207 11.661C11.713 11.0634 11.3097 10.4628 10.902 9.8652C10.4777 9.2426 10.0491 8.62313 9.62483 8.00097C9.02566 7.12313 8.42736 6.24424 7.82994 5.36431C7.37482 4.69638 6.91882 4.0289 6.46195 3.36187C6.03505 2.73748 5.60874 2.11249 5.183 1.48691C5.16644 1.45678 5.14193 1.43204 5.11229 1.41551C5.08265 1.39898 5.04907 1.39132 5.01539 1.39343C4.22969 1.39656 3.44399 1.39343 2.65829 1.39343H2.42432C2.45619 1.44442 2.47234 1.47215 2.49023 1.49898C2.80684 1.96206 3.12345 2.42513 3.44006 2.88821L5.54268 5.97438C6.28269 7.06036 7.023 8.14604 7.76359 9.23142C8.6395 10.5136 9.5157 11.7974 10.3922 13.0829C11.088 14.1009 11.7839 15.1189 12.48 16.1368C13.2657 17.289 14.0528 18.441 14.8414 19.5929C14.8565 19.6113 14.875 19.6264 14.896 19.6372C14.9169 19.648 14.9398 19.6542 14.9632 19.6555C15.3303 19.6609 15.697 19.6591 16.0641 19.6596L17.5704 19.6582Z" fill="#DFDFE4"/>
</svg>
